<?xml version="1.0" encoding="utf-8"?>
<!-- Generator: Adobe Illustrator 22.0.1, SVG Export Plug-In . SVG Version: 6.00 Build 0)  -->
<svg version="1.1" id="Layer_1" xmlns="http://www.w3.org/2000/svg" xmlns:xlink="http://www.w3.org/1999/xlink" x="0px" y="0px"
	 viewBox="0 0 1030.4 1030.4" style="enable-background:new 0 0 1030.4 1030.4;" xml:space="preserve">
<style type="text/css">
	.st0{fill:#AF956D;}
</style>
<g>
	<g>
		<path class="st0" d="M1027.8,514.8c0-11.2-2.4-22.1-2.2-32.7c-3-5.1-5-17.7-5.6-26.6c-0.3-4.9,0.9-8.2,1-11.1
			c0.6-15.3-6.1-26.6-7.2-40.7c-0.6-9.2-3.9-20.6-4.1-30.2c-0.6-1.2-1.8-1.5-1.9-2.9c0-5-2.1-10.2-3.3-14.9c-0.3-1.4,0.4-2.6,0-3.9
			c-0.9-4-3.3-7.9-4.5-11.9c-4.2-13.9-7.9-29.2-12.8-41.9c-10.6-26.9-24.3-51.5-39.6-72.6c0.7-1.6-0.9-1.7-0.8-3.5
			c-2.2-0.1-6.6-8.1-6.6-8.9c0-0.3,2.9-0.4,2.2-1.3c2.2,2.5,3.4,5.9,6.2,8.3c4,11.2,12.1,18.6,17.4,28.7c1-0.2,1.8,0.1,1.9,0.9
			c-0.7,0-1.3,0.1-1,1c3.6,4.7,5.7,10.9,9.1,15.9c1.8-2-0.3-3.9-1.5-6.3c-0.6-1-1-3-1.9-4.9c-1.5-2.3-4.8-5.4-1.6-3.6
			c-2.6-5.2-5.5-10.1-8.3-15.2c-0.7-1.6,0.6-1.9-0.9-2.9c0.1,1.1-0.3,1.6-1.6,1.2c-4.8-8.3-9.5-16.8-15.3-24.1c0-0.7,0-1.3,0-2.1
			c-9.6-15.7-21-29.6-30.8-45.3c-2.5-0.8-3.7-3.1-5.1-5.1c0.5-3.5-2.7-6.1-4.1-6.1c1.4,0.8,2.2,3.4,2.8,4.4
			c-3.3-3.5-5.5-7.9-9.9-9.9c-7.9-12.6-20.7-20.4-29.3-32.1c-1.6-0.4-0.5,1.5-1.9,1.5c-10-9.9-20.3-20.1-31.3-28.9
			c-1.7,0.2-2.1-1.1-4.1-0.7c-0.2-3.4-3-4.3-6.1-4.8c-0.5-1.2-2.4-1.6-1.9-4.1c-1.5-0.5-2.9-1-4.3-2.6c-0.7-0.4-3.1-2.8-3.5-3.2
			c-0.6-0.4-1.6,0.4-2.1,0c-0.4-0.1-0.6-1.5-1.1-1.5c-1.1-0.6-2.3-0.9-3.6-1.5c-1.9-0.9-3.9-3.3-6-2.6c6,6.9,16.7,9.4,22.1,16.9
			c5.1,2.4,7.3,7,12.6,8.7c0,1.1,0.1,1.9,0.5,2.3c3.1,0,2.6,3,5.7,2.9c1.6,3.8,5.3,5.5,8.2,7.8c3.3,3,6.4,6.4,9.7,9.4
			c3.7,3.3,6.5,6.3,9.8,9.2c1.7,1.8,4.1,2.5,5.6,4c2.4,2.8,4.1,6.4,7.1,7.5c0,0.5,0,1.4,0,1.9c6.5,3.8,9.6,10.7,15.4,14.8
			c0.8,2.1,2.9,2.8,4.2,4.6c7.4,10.1,15.6,19.3,23,29.6c1.5,4.5,7.1,7.8,6.2,12.9c3,3.8,5.9,7.9,7.2,13.3c-1.3-0.2-1.1-1.8-2.7-1.7
			c-5.5-9.7-12.9-17.9-19-27.5c0.7,1.6-0.7,1-0.9,2.1c3.5,5.9,7.6,11.3,11.7,16.5c-0.4,1.7,0.9,1.5,0.7,2.6
			c7.1,7.4,10.5,18.2,18.2,24.6c-1.4,1.7,2.8,3.3,1.7,4.1c-2.4-1.9-4.4-4.1-6.7-6.1c-5.7,0.5-6.7-4.6-9.2-8.8
			c-7.8-13.6-15.8-26.4-24.6-38.4c-3-4.5-7.7-9-10.8-12.3c-1.8-3.3-4-6.4-6.1-9.5c-2.7-7.9-11-8.7-15.1-16.2c0.6-2-0.8-2.1-0.4-3.4
			c-2.6-2.9-6.1-4.6-7.1-9c-2.3,0.3-2.6-0.8-4.2,0c-0.6-1.6-3.5-1.6-3-4.5c-3.9-1.6-6.7-4.6-8.7-8.3c-6.7-2.9-10.1-9.7-16-13.6
			c-2.3-1.9-5.2-2.7-5.7-5.5c-5.8-2.7-12-6.9-14.3-11.3c-0.1,0.4-0.2,1-1.1,0.8c-1.3-1.1-4.5-1.1-5.1-3.9c-7.7-2.2-12.2-8.3-20-10.8
			c0-0.6-0.6-0.6-0.4-1.5c-6.3-1.3-12.2-5.5-17.9-7.3c-1.8-0.5-6.1,0.1-5.8-2.7c2.2-0.1,4.1,2.3,5.8,0.4c-4.5-2.1-10.9-6.2-14.9-4
			c-1.2-1.4-3.8-1.5-6.7-1.3c-3.2-2-8.2-2.8-10.8-5.3c6.2,1.5,9.8,4.5,14.7,1.8c-6.3-2.4-14.2-10.6-21.3-6.6
			c-1.5-0.9-1.7-2.9-3.8-3.3c0.5,4.3-4,0.7-6.6,1.6c3.8,3.9,10.3,1.9,13.4,6.1c-0.7,0.9-3.8,0-3.4,1.7c6.8,6.1,18.9,3,25.1,7.7
			c-2.2-0.3-3.7,0.4-4.2,1.3c1.1,5.1,7.3,5.4,11.4,7.6c13.2,5.5,25.5,13.3,38.3,19.2c-0.2,1.6,1.2,1.3,1.3,2.4
			c5.4,2.1,10.8,6.4,14.6,9.3c0.8,0.5,1.9,0.5,2.7,0.9c3.3,2.9,6.1,6.3,9.6,8.5c1.1,0.7,3,1.4,4.3,1.9c2.3,1.7,3.6,4.7,5.9,6.2
			c0.7,1,1.9,0.7,2.6,1.3c6,4.5,10.1,11.2,15.9,15.8c0,0.5,0,1.1,0,1.5c2.8,1.6,4.1,4.4,7.1,6c7.5,7.4,14.5,16.4,21.2,24
			c1,1.4,3.3,2.7,3.1,4.5c-4.1-2.5-6.1-7.3-9.8-10.2c-1-0.2-1,0.8-1.5,1.2c-4.7-4.6-10.8-7.5-14.4-13.3c1.3-0.1,2.7,2.7,2.7,0
			c-2,0-0.7-1.1-1.5-2.2c-3.1-3.8-11-5.2-9.9-10.8c-9.8-3.3-15.8-10.7-23.1-16.6c0.3-1,0.7-1.1,0-1.8c-6.7-2.5-10.1-8.6-16.8-11.4
			c-3.6-4.8-10.8-6.1-14.4-10.9c-1.5,0.4-2-0.8-2.9-0.8c-2.5-2.4-5.6-4.7-9.5-5.9c-5.3-4.8-11.8-9.4-18.9-11.9
			c0-0.5-0.2-1.1-0.6-1.3c-2.4-0.5-4.9-1-5.8-3c-11.1-1.9-15.3-10-25.3-12.7c-0.3-1.3-1.9-1.7-2.6-2.6c-3.2-0.3-5.6-1.1-6.3-3.9
			c-4.6-1.5-10-3.9-15.9-5.7c-0.2-3.4-1.2-5.1-4.1-5.7c-1.6-0.6-0.6,1.4-2.6,0.7c-4-3-9.9-5.5-16.8-4.5c-0.4-0.5-1.4-0.9-1.4-2
			c-7.4-1.5-14.8-2.5-18.6-7.3c-4.2,0.6-9.8-0.1-13.3,1.8c-3.1-0.2-6.2-3.6-7-1.8c-8.2-4.1-23.9-4.6-33-9.4
			c-7.2-0.2-14.2-2.6-19.8-6.3c-0.6,1.4-4.9,0-4.7,2.4c1.8,0.2,2.2-0.7,3.1-1c0.6,0.8,0.7,2.6,2.1,3c0.4-2.4,3.9-0.4,4.4-1.2
			c0,0.7-0.9,1.4,0,1.9c6.1,1,13.3,5,19.6,7.2c-0.1,0.5-1.7,0.1-1,2c6.5,0.1,9.7,1.4,14.8,4.4c-0.6,0-0.6,1.4,0,1.4
			c0.3-2.7,5.9-0.2,8.1,0.6c-0.5,1-3.7,0-3,2.4c2.9,1.3,5.3,0,8.9-0.6c-0.5,1.1-2.6,2.4-1.1,3.3c0.1-1.2,3.1,1.6,3.1-0.6
			c-1.1-0.5-3.7-0.5-2.1-2c2.2-0.6,5.3,1.5,7.4,2.7c4.2-0.5,8.7,1.3,8.8,3.6c-1.9-2.5-1.8,1-0.6,0.7c-0.9,1.1-3.9-1.7-5.5,0
			c0.9-0.2,2.6,1.2,1.5,1.3c-3.6,0.4-7.3-1.7-6.8-4c0.5,1.6,2.5,3,3.1,2.3c-2.3-1.3-4.2-7.1-7.1-2.3c1.4,2.1,3.6,3.4,5.5,4.9
			c1.7,2.1,4.2,3.7,4.2,5.6c-1,1-3.6,0.3-4.2-1c1.5-0.4,3,2,2.7-0.3c-1.4-2.3-5.5-3.7-8.1-1.7c1.8-0.1,4.4,1.7,3.4,3
			c-5.7-1.1-9.7-3.8-14.7-6c-0.8,0-0.5,0.9-1.1,1.1c-3.8-1.7-8-2.9-11.9-4.1c-1.3,0.7-1.3,0.7-1.4,1.2c-6.2-3.1-7.1-8.1-11.4-12.8
			c1.7,0.2,1-2.7,0-0.9c0.4-0.2,0.5,0.6,0,0.6c-3.9-1.8-5.9-11.2-10.6-9.2c-0.5,0.2,1.8,3.3,2.5,4c1.3,1.8,2.9,3.6,3,5.5
			c0.5,2-1.3,1.8-1.5,2.9c2.5,0.4,2.8,0.6,6.2,0.6c0.1,2,2.7,1.9,3.5,3.5c0.2,0.5-0.4,1.4,0,1.9c0.9,1,2.4,1,2.5,3.3
			c-1.6-1.9-3.1-3.1-5.2-4.2c0.6-2.6-1.3-2.6-2.1-3.6c-0.2,2.4-2.4,3.3-3.5,3.3c0.9,1.1,2.7,0,3.1,2.1c-4.8,1.8-8.1-2.1-13.3-1.9
			c0-0.5-0.6-0.5-0.5-1.3c-7.8-1.8-16-2.9-22.6-5.9c-3.1,1.4-7-0.9-7.6,2.9c3.6-0.1,4.5,1.6,8.2,0.9c3.4,3.6,10.9,3.1,14.8,5.8
			c5.3-0.1,8.8,2.7,11.6,3.8c1.8,0.4,4.4-0.8,4.2,1.8c-2.4-1.7-7.3,0.7-7.7-2.9c-1.9-0.4-0.3,2.1-2.6,1.3c-0.7-0.1-0.2-1,0-1.3
			c-2.7,0-7.1,1.1-9.7-0.4c-1.5-1.3,0.8-1.3,1-2.6c-1.9-0.4-2.6,0.1-4.1-0.4c0.6,3,0,0.5-0.6,2.7c-1.2,0.3-2.5-2.3-3.5-0.4
			c2.7,1-2.4-1.6-2,0.7c1.2,0.9,5,0,5.2,1.7c-5.9,0.2-7.8-0.2-12.9-1c1.7-1.3-0.9-1.2-1-3c1.5-0.2,1.5,1.2,3,0.7
			c-1.5-3.2-8-2.5-11.3-2.3c0.8,1.4,3.3,1.5,5.8,1.6c-2.1,2.3,1.8,1,1.6,2.7c-9.7-1.3-17.4-5.2-26.3-4c0,1.3,2.1,1.1,2.6,2.8
			c-0.2-1.6,1.7-0.4,2.5-0.8c0.6,1.6,2.4,1.3,4.2,1.3c1.1,0.1,0.9,1.4,2.6,1c14.6,2.3,32,6.2,44.1,12.7c0.1,2.9,3.3,9,1.5,9.3
			c0.7,0.9,1.2-0.6,1.7,0.4c0.6,1.6-0.6,4.5-0.7,6.9c-4.7,2.7-11.6,6.5-18.4,6.1c-3.4-0.1-7.1-3.4-11.3-2.8
			c-1.1-0.4-1.1-1.6-2.4-1.8c-2.4,1.3-7.4,0.7-11,1.8c3.5,3.4,9.7,3.9,9.8,10.3c-1.5,1.6-6.4-0.6-6.6,2.1c1,1.6,4.1,1.2,4.6,3.5
			c-2.2,4.5-4.6,8.8-11.2,8.8c-0.3,2.3-3.1,2.1-5.7,2.4c-2.7,3.4-6.9,6.3-9.8,10.1c-10.9-0.3-19-3.3-27.1-6.1c1.8,3.5,7.1,3,9.7,5.3
			c-1.2,1.2-0.5,1.3-1.1,2.4c2.5,0,4.9,1.2,3.6,3c4.7,0.2,10.6,0.9,17,0.9c9.5,6.2,25.8,7.4,38.4,8.8c-0.1,3.7,5,2.2,6.6,4.4
			c-7.9,0.6-18.1-0.8-24.7-4c-1.5-0.4-1.5,0.8-2.9,0.4c-0.4-1.6-3.7-0.4-3.1-2c-2.5,1.2-4.7-2.3-7.1,0.4c2.4,2.4,13.1,1.6,12.8,6.2
			c-4.4-1-9.1-3.8-14.8-4.6c-1.7,0-3.4,0.3-5.1,0c-1.2,0-2.1-1.1-3.2-1.6c-1.1-0.3-2.4,0.5-3.6,0c-3.2-0.5-7.2-2.7-9.8-1
			c5.3,1.8,11.9,2.5,16,4.8c10.1,1.3,18.6,3.1,26.7,6.3c-1.6,1.1-5.3,0.9-6.7,2.8c1.7,1.4,3.5,0,6.7,0.5c0.1,0.6,0.6,0.8,0.4,1.7
			c12.1-0.2,26.2,2.4,34.3,7.3c3.7-0.1,4.9,1.4,6.8,2.4c1.1,0.6,3.2,0.4,3.4,1.8c-2,0-2.7-1.2-5.1-0.9c-1,0.1,0,2.2-1.5,2
			c-2.5-0.7-4.8-1.8-8.3-1.8c0.1,2.3,2.9,1.6,3.2,3.2c0.3,2.7,3,3,4.7,4.2c-3.3-0.3-7-2.3-10.4-0.7c0.3,0.4,1.9,0.1,2.1,0.7
			c-6.9-2.6-18.1-1.6-24.2-5.1c0,2.4-2.5,2.4-2.6,4.7c4.3-0.8,6.3,2.8,5.2,3.9c-3.3,0.1-5.3-0.6-9.3-0.9c1.4,1.4,4.2,2.3,6.2,3
			c4.9,1.1,10.3,1,13.2,5.3c6,2.3,10.9,3.6,16.3,5.6c1.8,0.4,2.8,1.7,3.3,2.9c1.6-0.1,1.7,1.3,3.6,0.8c0.5,0.6,0.1,1.5,1.4,1.3
			c13,8.1,29.4,12.9,41.2,21.8c5.8,0,7.2,4.6,12.2,5.5c9.6,8.7,22.2,14.5,32.2,22.8c0.4,0.6,0.9,1.2,1.1,2c-0.2,0.9-0.9-0.5-1.1,0.5
			c4,2.4,7.1,6.3,10.4,9.3c-1.7,0.5,0.3,2.2,0,3.2c1,2.3,4.1,3.7,5.7,5.5c0.1,0.2-0.6,1.3,0,1.8c0.6,0.7,2.5,1.1,3.3,2.4
			c4.5,4.4,8.2,10.5,11.7,15.2c2,2.2,4.1,3.9,3.8,7.4c1.9,1.9,4.8,4.7,6.6,7c1,1.1,2.5,3,2.1,4.8c0.8,0.6,2.4,1.1,2.9,2.4
			c-1.6,2,1,3.4,1.2,5.4c1.1-0.1,1.4,0.7,2.5,1.2c0.5,5,7.4,7.1,6.7,12.1c-0.6-1.3-1.2-0.7-2.7-1.4c-0.7-1.7-2.4-4.4-4.1-3.5
			c1.1,0.3,0.2,2.6,0.5,3.5c3.6,1.9,5.1,8.2,8.7,8.2c-2-0.9-2.3-5-1.6-6.2c4.4,4,7.3,9.2,9.7,15.3c2.4,1.4,5.1,5,5.2,6.8
			c-2-1-3.4-2.3-4.8-4c-1.1,3.1,3.7,7.7,6.4,5.4c1.1,2.9,4.3,6.4,1.4,8.8c-5.2-0.1-5.7-5-8.6-7.3c3.5,8.4,10.4,13.7,14.9,21.3
			c-1.2,1-0.6,1.1-1.2,2.3c2.8,4.4,7,8.9,9.5,14c1.1,3.4,1.1,7.1,4.3,9.8c5.8,13.3,14,26.3,18.9,40.9c2.6,6.9,3.5,14.3,6.7,21.1
			c-0.6,1.5-0.9,4.9,1.1,6c0-0.5,0.1-1.1,1.1-1c0.1,2.1,0.5,3.7,2.1,5.6c1.1,6.3,3.3,13.2,4.7,20c1.7,10.7,5.3,19.3,1.9,29.8
			c-3.3,0-1.9-3.2-2.6-5.2c-1.1-4.4-2-10.1-2-15.5c-1-0.9-0.8-3.3-1.6-4.5c0.8,0,1.8,0,1.6-1.1c0.7-1.5-0.6-3.2-1-5
			c-0.4-1.6,0.5-5.2-1.5-4.4c0.6,2.2,1.1,6.7,0.9,7.9c-0.9-3.6-2.3-7.7-3.1-10.3c-1.7-6.2-1.7-13.3-3.5-17.8
			c-0.6,1.8,1.8,4.3-1.2,4.3c-2.7-3.3-2.3-7.4-3.6-11.9c-0.2-1.5-1.5-2.4-2-3.8c-4-11.6-6.9-24.3-12.8-34.1
			c-2.1-10.3-8.3-14-9.4-24.6c-2.1-2.8-4.4-5.5-6-8.4c-7.1-15-15.7-29-25.6-41.4c-0.6-2.3-2.6-3.5-4.3-5.1c0-0.6-0.7-1.1-0.4-2.1
			c-4.9-4-8.3-9.9-13.4-14.1c-5.3-9.1-14.5-17.2-21.7-23.7c-1.6-1.1-2.5-3.1-3.7-4.4c-1.2-1.1-3-1.5-4-2.7c-1.9-1.3-3.3-3.5-5.3-5.5
			c-1.1-0.4-2.7-1-3.6-1.9c-1.9-1.3-3-3.3-4.6-5c-1.4-1-3.4-1.2-5.1-2.7c-2.2-1.7-3.7-4.9-7.2-4.9c-4.3-4-11.2-8.1-16.3-11.3
			c-1.6-1-3.8-4-5.7-2.1c1.6,2.2,4.5,2.6,5.7,5.1c1.6,0,1.7,0.9,3.5,0.7c1.9,2.4,4.2,4.2,7.1,5c5.6,5,11.6,9.2,18,12.7
			c3,4.9,8.3,7.3,12.3,11c4.3,5.1,9.7,8.9,13.8,14c0.5,0.6,0.7,1.2,0.6,2.5c3,2,5.1,5.2,8,7.3c-0.4,1.5,1.1,1.2,0.7,2.4
			c3.5,1.9,5.6,5.6,7.4,9.6c2.9,1.3,4.4,4.1,6.3,6.2c3.3,4.1,7.5,8.5,10.1,12.5c0.3,0.3-0.2,0.9,0,1.5c1.7,2,4.6,4.1,4.7,7
			c3.8,1.1,3.9,5.8,5.8,8.7c0.8,1.6,2.7,2.4,3.4,4c1.1,2,2.5,4.8,2.7,7.2c-2.8-3.8-6.4-8.5-8.6-12.1c-1.8-2.5-2.1-5.3-3.9-6.9
			c-1.3-1.4-4.8-5-5.5-3.3c8.1,11.9,16.4,24.6,26,39.4c3.8,5.5,7.1,11.9,10.2,18.7c4.5,9,8.5,19,11.5,28.1c0.4,2.2,0.2,2.2-0.7,2.5
			c2.5,2.6,4.3,7.2,3.7,11.4c1.5,1.8,2.4,4.3,2.4,7.4c2.8,2.5,2,6.3,2.6,9.5c0.8,3.1,2,6.5,2.6,9.7c0.6,4.3,1.9,7.1,2.5,9.8
			c0.6,3.1,0,5.1,0,6.9c0.2,2.4,1.3,4.7,1.5,7c3,21.7,4.9,45.9,3.1,67.1c-0.3,4.8-1.6,9.8-1.6,14.3c0,3.5-0.5,5.7-1,8.9
			c0,1.2,0.8,2.3,0.6,3.6c0,1-1.1,1.9-1.2,2.8c-0.2,1.5,0.3,3.4,0,4.9c-0.2,3-1.5,6-2,8.9c-0.3,2.6,0.5,5.3,0,8.1
			c-1.1,7.9-3.3,16-5.5,23.6c-5.3-0.6-5.2,7.2-6.3,12.3c2.4-0.8,1.5-4.8,3.2-6.5c0.9,10.5-7.6,16.4-2.5,24.6c0.9,0,1.7,0.2,2.5,0.6
			c0.9-0.8,1.9-1.7,3.1-2.4c3.8-15.8,8-30.9,12.1-46.5c1.2,0.1,1.7-0.8,2.7-0.8c2.2-23.5,6.4-47.7,6.6-70.2c0.1-4,0.9-7.6,0.5-11.7
			c-0.3-3.6-1.7-6.7-1.5-10.7c3.9-0.2,4.3-4.3,6.7-5.5c0,4.2,1.9,6.5,2.5,10.6c0.5,2.8-0.2,6,0,8.7c0,1.2,0.8,1.9,1,3.2
			c0.1,1.1-0.6,3.2-0.3,4.5c0.3,2.1,2.2,3.9,2.5,6.4c0.4,2.9-1.1,6.3-0.5,9.1c0.3,1.9,1.7,3.2,2.1,5.1c2.4,10.5,0.8,22.4,0.5,36.1
			c-0.9,0-1.1-0.3-1.6-0.6c0.2,4.2-0.5,8.2-1,10.8c-0.6,4.2,0.5,7.8-0.6,11.2c-0.3,1.4-1.2,2.1-1.4,3.1c-0.7,3.1-0.7,5.8-1.2,8.6
			c-0.9,4-2.5,8-4,11.2c-1.1,2.6-1.8,5.1-2.7,7.5c-0.7,2.6-2.7,5-3.6,7.5c-0.6,2.4-0.2,4.5-0.8,6.3c-2.6,5-5.6,11.3-7.4,17.6
			c-2.1,0.6-2.6,2.9-2.6,5.8c-1.1,0.2-0.7,2.3-2,2.3c0,3.6-2.2,5.7-3.4,8c-3.5,5.2-5,10.9-8.1,16.7c-2.5,4.2-4.7,9.1-7,12.2
			c-0.1,0.4-1.2,0.6-1.4,1.1c-1.8,2.7-5.1,12.8-8.1,9.2c-9.8,19.7-24.2,37.8-41.2,48.5c8.9-9.7,17.7-19.5,25.4-30
			c2.4-8.3,8.6-12.4,11.6-20.4c2.8-1.3,3-5.2,5.6-6.9c0.6-2.4,1.3-4.1,2-5.8c0.6-1,1-2.3,1.8-3.4c3.1-6.1,8.6-12.2,9.1-18.3
			c-2.2,2.6-3,6.7-6.1,8.4c0.2-1.1-0.1-1.7-1.1-1.9c-1.9,4.5-5.4,7.8-6.2,13.4c-8.8,12.6-16.6,26.3-26.4,38.4
			c-0.9,0.4-2.1,0.4-2.7,1.2c-7.7,13.2-20,22.9-30.8,33.4c-3.6,3.4-6.4,6.3-10.2,9.5c-7.1,5.7-15,10.5-24.1,13.7
			c-0.7,1.1-1.9,2-3.2,2.4c-0.7,0-1.4,0-2.1,0c-1,1.2-2.2,2.3-3.5,2.9c-1.6,0.8-3.7,0.7-5.2,1.6c-2.4,1.2-3.8,4.3-7.1,3.9
			c-2.4,1.9-4.9,3.6-6.7,4.4c-2.9,1.9-5.9,2.8-8.9,3.9c-3.9,1.7-8.8,1.9-13.1,3.5c-4.2,1.7-7.2,4.9-11.4,5.1
			c-2.6,3.2-12.4,5.7-17.4,5.1c-1.6,0.6-3.7,2.9-4.7,2.3c0.6-0.2,0.9-0.7,1.1-1c-2.2,0.3-3.1,1.8-5.1,2.3c-4.2-1-6.7,1.7-9.7,2.6
			c-7.7,1.9-14.4,3.1-21.6,4.4c-17,2.9-38,5.8-55.5,7.4c-2-0.4-2.2-1.8-4.1-1.8c-15.4,1.2-30.6,2.2-47.6,0.8c-3-0.2-5.8-1.1-8.7-1.7
			c-12.5-1.2-23.8-3.2-34.3-5.9c-2.7-0.4-5.7-2.2-8.2-2.9c-3.2-0.5-6.9-0.5-9.9-1.5c-0.4-0.1-1-1.3-1.3-1.5
			c-5.6-2.2-12.5-3.4-17.6-6c-0.8-0.3-1.3-1.6-2.6-2.5c-4.9-2.6-11.3-3.9-16.2-6.7c-4.1-3.8-7.7-8-15.5-8
			c-6.3-4.1-14.1-6.8-18.9-11.3c-1.6-1.8-3.1-3.6-4.6-5c-0.5-0.5-1.5,0-2.1-0.5c-4.4-2.9-6.8-8.1-12.3-9.9c-0.5-0.8-1.9-1.7-2.1-2.9
			c-3.1-1.1-6-3.1-7.6-5.8c-4.7-1-6.1-5-10.8-5.9c-3-4.9-9.2-6.6-12.2-11.4c4.9-0.2,7.2,6.9,10.9,4.9c-4.1-2.1-7-4.9-10.4-7.3
			c-2-1.6-4.4-2.7-6-4.1c-2.8-2-3.7-5.6-5.9-7.7c-3-3.6-9.2-4.8-10.3-10.2c-2.5-0.6-2.7-3.7-4-5.4c-2-2.5-4.7-4.2-6.6-6.8
			c-5.2-6.5-10.5-15.4-14.4-22.3c-2.3-3.8-3.7-8.4-5.1-12.9c-0.6-0.1-1.2-0.4-1.6-0.9c-1.6-6.3-6.3-12.9-6.6-19.1
			c2,0.8,1.7,3.9,4.3,4c-4.7-13.5-12.6-24.2-15.6-39c2.4-3.4-0.3-6.8-0.9-10c-0.6-1.2-1.8,0.5-2.1-0.5c-2.2-9.1-5.6-16.7-8.3-25.1
			c-1.6-5.8-2.3-11.5-4.5-16.3c-0.4-1-0.4-3.9-2.6-3.4c0.5,0,0.7,0.8,0,0.9c-1.6-0.1-1.2-3.9,0-3.9c-0.8-0.7-1.6-1.1-2-2.1
			c2.4-1.7-2.8-4.8-0.5-7.9c-2.3-6.1-5.4-14.4-6.8-21.6c-0.1-2,0.2-4.9-0.4-6.9c-0.7-2.5-2.9-6.7-4.6-6.5c1.1,3.6-0.6,6.6-0.4,9.8
			c0,3.1,1.6,6.1,2,9.1c0.1,0.8-0.5,1.5-0.5,2.2c0.3,3.3,2.4,7,3,10c0.1,0.4-0.8,0.6-0.4,1.5c0.1,0.8,0.8,0.6,0.9,1.5
			c0.2,0.8-0.5,1.6-0.5,2.6c0,1.4,1.3,3.1,1.5,4.6c0.2,1.3-0.6,2.3-0.6,3c0.3,0.7,1.4,2.3,1.5,3.1c1.2,3.4,1.7,5.4,1.2,7.5
			c-2.1-2.3-1.4-6.8-5.1-7.5c-0.7,3.1,2,10.1,2.1,12.5c-0.7-0.1-1.2,0.2-1.6,0.2c-0.7-5.4-4.6-11-4-15.1c0,0,0.7,0.5,1-0.7
			c0.7-3.1,1-3.8,2-5.9c-1.7-7.5-3.4-13.7-2.4-21.5c-1.4-1.2-1.8-1.9-3.2-2c-0.8-3.2-0.8-8.6,0-12.1c-0.5-1.2-1.8-2.2-1.9-4.3
			c1.5,0.2,0.9,2.5,1.9,3.2c-0.4-5.2,0.3-10,1.6-14.6c0,1.6,1.7,1.8,2,3.2c0.7,2.2-1.5,5.5-0.4,7.4c0.7,1.6,2.1,3.8,4.5,3.1
			c-1.3-1.9-1.5-2.4-0.4-4.8c-1.3-3.1-1.4-6.9-2.1-11.7c-0.6,0-1.4,0-1.5-0.4c1,0,0.3-1.7,1-2.1c-1.7,0.8-2.8-1.9-1.5-2.5
			c0.8,0,0,2.1,2,1.3c1.4-2.6-2.2-2-2.6-4.6c1.8,0,0.2-3.3,2-3.2c-2.2-0.7,0-5-2.6-4.3c0.5-0.7,2.4-0.7,2.1-2
			c-1.3-3.7,2.3-13.9-2.1-13.7c1.3,2-0.6,1.3-0.4,0.8c-0.8,3.3,1,3.6-1.1,4.7c-0.3-3.2,0.9-5.3,0.5-8.4c2.3,0.2,1.7,0.1,3.7,0.5
			c-1.4-2.3,1.4-2.6,0-4c-1.4,2.7-0.8-6.3,1.5-4.4c0.4-1.7-2.2-0.5-1.5-2.2c-0.7-2.5,1.8-5.1-0.6-6.1c-0.2,1.7-2.3,4.3-3.1,4.1
			c0.5-2.1,1.2-3.4,1.6-5.6c1.2,0.8,0.7,1.1,2.6,0.5c0.3-5.9-0.6-10.7,1-14.9c2.3,7.2,0,13.3,0,20.4c0,0.6,1.4,0.2,1.6,1
			c1.3,6.5,0,12.4,0.9,17.8c2.2-1,3.1-3.1,5.4-3.8c-3-7.2,1.5-15.3-2.2-20.5c1.9-4.3,4.4-11.5,0.6-16.4c-0.6-6.8,3.9-10.1,1.6-17.6
			c2.6-4.5,1.4-11,3.5-17c0.7-0.7,2.4-0.3,3-0.9c0.3-3.8,0.3-4.6-1-7.8c2.1-2.1,3.8-4.6,6.2-6.6c-0.8-8.3,3.4-15.5,4.1-24.1
			c0.4,0,1,0,1.5,0c1.1-5,2.1-10.5,3.6-14.8c1.1-2.9,2.5-5.1,3.5-6.2c0.6-1,0.1-2.1,0.6-2.6c2.1-3.6,4.2-7.4,7.1-9.9
			c0.8-3.5,2.9-5.5,5.1-7.3c0.4,3-2.9,4.9-3.9,7.3c-1.3,2.6-1.4,5.9-3.1,7.4c-0.3,0.2,0,1.2,0,1.6c-1,1.7-1.8,3.5-2.6,5.2
			c-1.1,2.5-3,5.1-3.6,7c-0.3,0.8,0.3,1.9,0,2.6c-0.9,2.2-2.8,4-3.6,6.4c-0.2,0.9,0.2,2.4,0,3.4c-0.2,1.8-1.6,3.5-1.9,5.1
			c-2.2,8.4-4.4,17.9-6.2,26.6c-1.9,9.5-3.9,19.2-4.3,29c4.9-19,8.1-38.8,13-57.8c5.9-3.9,4.3-15.3,9.3-20.1
			c1.1-5.8,3.2-10.5,6.4-14.4c0.6-4.6,3.9-7.2,5.7-10.7c1.8,0.4,2.3-0.7,3.2-0.9c-0.9-5.2,2.3-6.7,3-10c0.7,0,1.5,0,2.1,0
			c1.9-4.9,5.5-8.2,8.1-12.6c0.9,0,0.5,1.2,2.1,0.9c1.1-0.9,0.7-2.7,1.4-4c0.4-0.4,1.9-0.2,2.2-0.6c0.2-0.2,0.5-1.2,0.5-1.2
			c0.9-1.6,2.4-2.3,3.8-2.6c0.8,0.5,1.2,1.2,3.1,0.7c0.8-3.4,4.6-4.2,5.5-7.8c1,0,1.7,0,2-0.4c7.6-9.8,18.2-16.7,26.5-25.1
			c9.6-7.2,17.9-15.7,27.7-22.3c0.8-0.1,0.8-0.8,1.7-1c-0.1,1.9,0.4,0.2,1.3,0.3c0.2-0.5-0.5-0.5-0.9-1
			c14.2-8.3,26.9-17.9,43.4-23.4c-1.1,1-2.8,2.5-0.9,3.7c0.8-0.9,1.8-3.7,3.1-3c0.8-1.4-1.8-0.2-1.4-1.2c0.5-0.8,2.4-1.9,3.4-0.6
			c2.7-4.2,9.5-4.3,13.9-7.1c0.6,1.3,3.3,0.1,4.6,0.6c0.9-2,7.1-1.8,8.8-0.6c1.2,0,1.7-1.5,3-1.8c0.8,0,1.6,0.2,2,0.5
			c5.6-5.9,15.5-7.7,26.2-9.1c7.7-1.5,16.4-1.9,23.6-0.6c1.1-0.7,1.5-1.7,2.6-2.4c4.6-0.4,5.2-4.6,8.2-6.5c1.9-1.3,6.4-0.1,7.7-1.9
			c-5.1,1.2-6.9-3-12.3-3c0.7-1.2,2.8-1.2,1.9-4c-1.7-0.5-3.1,1.5-4,0c2-2.2,4.2-3.9,5.6-6.3c5.5-2,14.3-0.6,14.9-6.9
			c-5.4-1.2-10.8,2.5-13.8,0.4c-0.2-1.5,0.7-2,1.5-2.5c3.9,1.2,5.4,1.4,10.4,1.1c0-3.4-3.4-3.6-3.6-6.6c-2.9-0.5-6.3,2-7.2,0
			c2-0.9,7-2,6.7-3.4c-3.3-0.1-6.7,3-9.9,2.5c3.6-4.7,10.6-5.5,13.6-10.4c1.7,1.2-1.7,4.7,0.5,3.4c-0.5-1.1,1.9-0.6,1.6-2.5
			c3.1,0.9,2.5-1.1,4,0.5c1.3-1.2-0.6-1.2-0.9-2.1c2.9-0.2,5.9-2.2,4.4-5.4c1-1-2.5,3.6-2.9,0c2.3-3.7,3.9-6.3,9.6-4.2
			c0-1.3-0.1-2.5,1.2-2.6c14.3-5.1,34-1.8,47.6-7.3c-7.7,0-16.7,0-23.7-2.1c-0.7-0.9-0.7-3.1-2.6-3.8c-1.6,0-2.5,0.8-4.4,0.5
			c-2.6-2.5-9.2-0.5-11.9-2.6c2.5-0.6,4.8,0.2,7.2-0.3c-1-2.9-4.1-3-5.7-5c3.1-7.5,5.8-15.8,4.1-26.4c1.1-0.7,2.3-1.1,3.2-3
			c-2.9,1.8-3.2-0.6-5.7-0.9c-2.2,1.3-6.4,2.8-7.8-0.3c0.9-2.8,7-0.2,6.6-3.9c-2.1-0.5-3.3,0.2-4.4-0.5c0.5-2.6,4.1-2.4,7.1-2.5
			c-1.5-1.6,0-2.9-0.9-5.1c-1.4-1.4-2.3,1.7-3.6,0c2.2-1.6-1.4-5.3-3.7-6.2c-1.4-0.3,0.3,2.6-1.1,2.5c-4.9,0.4-4.3-4.1-5.6-6.8
			c-1.3-3.4-4.7-6.2-5.1-9c0.4-1,2-0.9,1.7-2.6c-2-1.8-6.5-1.1-6.7-5c1.9-1.9,3.8-4.1,3.1-8.9c0.7,0,1.6,0,2.5,0
			c-1.4-2,1.5-2.8,2-4.4c0.6-1.3,1.1-2.6,0-4.4c-2-1.1-2.3,2.4-5.6,1.4c0,1,0,2.3,0,3c-3.2-0.3-3.9,1.7-7.1,1.4
			c-0.4-2.6-2.9-3.7-3.7-6.4c2.8-0.4,3.9-2.8,7.7-2.6c1.6-1.1,3.2-2.6,5.2-2.6c0.2-0.6,1.8-2.8,0.6-3.6c-0.2,2.9-2.5,1.3-6.2,2
			c-1.7-0.7-0.8-2.9-2.6-2.9c-1.3-0.2-0.4,1.9-2.1,1.5c-2.7-2-5.8,0.8-8.2,0.4c1.4-1.1,2.7-1.3,5.2-2.1c-1.3-0.8,0.6-3,1-3.8
			c-2.5-0.5-1.7,2-3.7,2c-2-0.8-4.2-1.2-5-3c2.2-1.4,6.3-1.4,9.7-2.2c0.1-3.3-4.3-2.9-7.3-2.5c-0.8-1.5,0.3-2.8-0.5-3.6
			c-2.1,0-2.7-1.3-3.5-0.5c1.4,1.2-2.2,1.5-2.7,2.7c0,1.5,0.4,3-1.5,3c-2.9,0.6-1.2-2.9-3.6-2.5c0.3,2.9-8.5,0.5-9.2,0
			c1.5-2.8,4.8-0.7,6.7-3.2c-3.8,0.4-4.5,0.4-8.2,0.5c-0.6,1.1,0.3,1.4-0.4,2.2c-4.8-0.7-8.5,0.5-13.4,1c2.7,0.1,4.1-2.5,7.2-3.2
			c1.1-0.2,2.5,0,3.6,0c3.4-0.3,6-1.8,8.2-2.2c0.7-0.1,2.1,1.2,2-0.6c-2.1-0.8-6.2-1.4-8.2-0.8c-2-3-7.3,1.9-11.8-0.4
			c-0.1-1.7,3.1,0,3.1-0.8c-0.8-0.4,2-1.4,3-1.7c-0.1-2.1-1.9-2.1-1.5-4.1c-2.6-0.5-0.4,3-3.1,2.2c-1.2-1.2-1.8-2.5-5.2-1.8
			c0-3.3-2.9-3.3-3.9-4.9c-3.3,1.6-10,0.8-13.4,3.1c-0.2-1.5-2.3-0.4-2.4-2c-0.9-1,1.1-1.3-0.6-3c-3.9-0.6-6.7-2.7-11.1-2.7
			c-1.2,0-0.1,2.3-1.8,2.2c-2.5-1.3-7.1,0.8-9.7-1.2c-2.6,1.9-5.6,2.3-8.7,3.1c-11.3,2.4-22.4,5.8-33.8,7.9c-3,0.4-7.1,2.7-8.7,3.2
			c-4.6,2.1-10.6,3.7-15.9,5.3c-2.6,1.3-5.6,1.8-8.1,2.3c-1.8,0.2-3.2,1.8-4.5,2.4c-3.9,1.5-7.9,2.6-11.2,3.9c-1.2,4.7-7,3.8-11.4,5
			c-4.7,1.2-8.6,4-11.9,5.8c0.9,1,1.4-0.6,2.1,1.1c-4.8,2.5-10.4,3.9-14.8,6.9c-0.9-0.7-2.3-0.7-3.9-0.8
			c-6.6,3.7-14.1,6.9-20.7,10.6c-0.8,0.6-1.3,2.2-1.6,3c-4.8,2-8.4,5.5-13.3,7.3c-2.1,3.1-5.1,5.7-9.3,6.4c-2.3,2.7-5.3,4.9-9.4,5.9
			c-2.4,3.4-6.4,5.8-10.2,7.8c-0.6,6.2-6.4,8.2-9.7,11.3c-2.2,1.6-4.4,3.8-6.7,4.9c-1.1,0.9-2.5,0.9-3.6,1.4
			c-2.8,2.2-4.2,5.6-7.6,6.7c0.7,3-0.3,3.8-1,6.2c-1.6,0-1.8,1.4-3.6,1.2c-1.1,2.8-4,3.4-6.1,4.8c-5,3.8-9.2,9.2-14.8,12.2
			c-3.3,5.8-8.6,10.4-12.7,14.5c-2.8,2.8-6,4.3-8.3,6.8c-1.7,1.7-2.3,4.6-4.1,6.1c-2.4,2.3-4.9,4.5-7.5,6.4c0.6,1.7-0.9,2-0.8,3.4
			c-10.9,8.6-18.2,21.1-27.2,31.6c0,1.3,0,2.3,0,3.6c-0.9,0-1.9,0-2.7,0c-2.7,3.9-6.5,7.4-8.6,12.4c-3.5,1.7-4.8,5.1-6.8,7.8
			c-2.6,3.9-5.8,9.4-8.8,12.2c-1.6,2.1-4.9,2.5-3.8,5.8c-2.2,1.9-4.1,4.6-3.2,7.6c-1.4,2.7-4.7,4-4.1,9c-3.4,1.1-3.6,5.2-6.2,5.5
			c0.3,2.6-2.1,6.7-4.2,8.7c0,5.2-3.6,9.3-2.6,13.8c2.2-6.8,7.1-10.9,8.9-18.2c1.6,0.7,1.1-0.8,2-1.1c0.7-5.8,3.4-10.2,6.7-13.7
			c-1.4,0.8,0.9,2.1,0.9,1c-0.8-0.8,0.6-2.5-0.3-3.9c0.9-1.1,2.5-0.7,3-1c-1.9-0.4-0.4-0.8-0.6-2.6c7.4-9.1,12-21.1,20.6-29
			c-0.2-1.5,0.8-1.4,0.5-3c4.6-3.6,6.8-9.9,11.3-12.2c-0.7-2.2,3.9-3.7,4.1-6.5c2.1-0.8,3.5-2.7,4.2-5c5-4.7,9.1-11,13.2-15.8
			c4-4.4,8.5-8.6,12-12.5c0.6-1.4,1.7-2.3,2-3.8c4.2-3.1,7.5-7,10.4-11.6c0.7,0,0.9-0.5,1.8-0.5c2.5-4.8,7.7-7,10.8-10.9
			c1.6-1.5,1.6-1.5,3.5-0.4c2.3-3,7-3.8,6.8-9.3c4.8-3.9,9.8-7.4,14.3-11.6c4-0.8,4.8-4.8,10.3-4.2c1.4-1.3,2.7-2.7,4.7-3.6
			c0-1.8,1.5-1.5,2.5-0.5c-1.3-1.4-0.9,0.3-1.5,0.8c0.5-0.4-2,2.4-1.5,2.9c0.8,0.7,1.9,1.2,2.1,3c-1.1,0.3-2.1,0.8-3.1,1.2
			c-4.8,5.4-12,8.8-16,15.4c-6.4,4.3-12.3,9.4-16.8,15.7c1.5,0.4-0.4,1.6,0,2.5c4.1-0.7,4.4-5.6,9.7-5c2.6-2.8,5-5.3,7.6-8
			c1.4-0.3,1.8-2.4,3.2-1.4c-2.6,2.9-6.1,5.1-9.1,7.9c-3.1,2.8-5.6,5.8-8.3,8.7c-4,4.7-9,8.8-12.9,13.1c-1.3,1-3.1,3-4,4.3
			c-0.4,0.4-0.3,1.8-1.2,2.3c-3.2,3.8-8.5,4.4-12.9,7c1.5,0.7,3.9,0.2,3.9,2.3c-1.9,2.6-4.7,3.7-5.7,6.8c-1.6-0.1-1.4,1.6-2.7,1.8
			c-1.8,2.5-5.6,8-7.7,7.4c-0.5,3.4-1.3,6.7-5.9,6.7c-0.7,1.1,0.8,1.1,0,2.5c-2.5,1.7-4.6,3.3-6.8,5.5c-6.1,2.5-10.7,5.2-13.9,10.9
			c-0.9,0-1.2-1.1-1.7,0c-0.3,1.2-5.6,5.4-5.4,7.3c0.1-0.5,0.7-1,1.4-1.4c-1.6,1.7-3.6,3.5-4.2,6.4c-2.6,1.3-4,3.5-5.4,5.8
			c-2.1,1-4.1,2-5.2,3.6c-0.8,1.1,0.7,3.5,1.1,4.7c-0.5,0.2-0.7,0.7-0.6,1.4c-0.1,0.7-1.9,0.4-1.5,1.8c-0.6,2.2-2.6,7.2-4.6,9.8
			c0.2,1.7,0.2,2-0.5,5c-0.5,0.3-2.9,1.2-1.7,1.5c1.7,0.7-2.8,3.3-0.4,4.3c-1.8-0.8-3.9,0.7-4.6,0.6c0.7-2.4,3.7-4,2.5-7
			c-5.8,1.4-4.8,8.9-6.1,12.3c1.2-1.5,2.4-3.4,4.6-4.3c1.3,0.3,2.1,1.2,3.6,1.3c0-3.1,2.8-3.4,4.1-5.2c1.1-0.4-1.7-1.1-1.2-2.3
			c1.9-0.4,1.2-1.8,2.1,0c1.6-1.8-0.3-3.4,2.1-2.4c-0.3-0.5-0.2-2.3-1-2.7c0.2,1.3-0.2,2.1-1.6,1.9c1.2-1.6-0.8,0.2-0.9-1.9
			c2.2-1.1,4.6-1.1,6.1-3.4c-0.8,0-1.2-0.7-1.4-1.3c3.1-0.1-0.1-3.3,3.1-3.8c1.4,3.3-1.1,1.1,0,3.8c1.2,2.1,1.3-3.1,2.6-1.1
			c-2.2,3.6-5.2,3.9-5.2,10.4c-8,12.5-10.4,28-17.5,41.8c1.2,3-1.5,5.6-2.7,8.3c-0.9,3.7-1,7.8-2.5,12.3c-2.2,7.8-7.2,18.5-7.2,26
			c-1.1,3.7-2.4,6.6-3,10.5c-0.6,3.7-0.2,11.3-2,12.8c-4.9,4-7.7,10.5-3.1,16.2c-0.8,11.3-5.8,21.1-5.6,30.1
			c1.4,2.7,1.8,2.4,1.4,4.5c-0.6,3.8-2.4,8.8-3.2,14.6c-1,13.4-0.4,30.5-0.4,43.5c0,3.8-0.9,7.1-0.9,9.5c-0.1,2.2,1.1,4.3-0.7,4.8
			c2.9,0.9-0.9,5.7,1.6,6.4c0.2-1.7,0.2-4.5,1.2-5.5c0.9,6.5,0.4,15.2,0,21.7c0.5-0.1,0.2-0.1,0,0c-0.9,3.7-0.8,6.8-1.2,10.5
			c0.4,0.5,0.2,0.2,0,0.2c2.3,7.3,2,29.2,5.3,33.9c0-2.9-2.5-13.2-2.2-15.8c0.6-5.9-1.4-14.1,1.8-16c-0.2-3.7-0.2-7.3,0-11.4
			c0-0.2,0-0.6,0-1.2c-0.4-1-1.7-1.5-2.1-3.1c2.1-2.8,0.4-1.4,0.5-3c0,0.2-0.5-2,1.1-0.8c0-1,0.3,2,0.5,6.9v0c0,0.8,0,0.9,0,1.1
			c0.4,10.1,1.1,25.9,1.4,28.2c0.2-1.6,2.9-12.5,5.4-22.3c-0.1-1.7-0.1-3.3,0.3-4.9c0.2,0.7,0.3,1.6,0.5,2.1
			c0.6-2.5,1.1-4.9,1.7-6.3c-0.1-1.3-0.1-2.3-0.2-3c1.1,0,1.2-1.1,1.7-1.5c0.1-0.4,0.2-0.8,0.2-0.4c0,0.1-0.2,0.3-0.2,0.4
			c-0.4,0.6-0.7,2.1-1.4,4.6c0.3,2.9,0.3,7,0.7,10.3c0.2,0.8,0.9,1.6,0.9,2.4c0.5,3.6-0.9,7.1-0.4,11c0.4,2.7,2.1,8.6-1,11.9
			c-1.6-0.9-3.4-1-3.1-3.5c-1.5,0.1-3-1.4-5-0.7h-0.1l0,0c0.1-6-1-11.5-1.1-17.2c-0.1,0-0.1,0.4-0.1,0.4c0.2,3.9,0.5,7.3,0.2,10.8
			c-0.2,3.9-0.8,5.4,0,8.3c0.5,1.5,1,3.4,1.1,4.2c0.7,4.3-0.8,5.7-1.1,8.7c-0.4,5.9,0.5,11.2,0.5,17.3c0.8,1.1,1.3-0.7,1.6,0.5
			c-1.8,19.5,6.8,27.9,6.6,50.3c-1.3,1.1,5.7,1.6,5.6,3c0.9,0.7,2.1,1.6,3.1,2.4c0.9-1.4,1.9-2.5,0.9-4.6c1.3,1.7,1.8,5.4,2.6,7v0.2
			c2,1.6,3.8,3.7,5.2,5.4c-0.9,6.3,3.1,14,2.5,20c0.6,0.6,1.9,0.5,2.1,1.6c2.1,8,5.4,11.9,6.5,20.3c1.2,0.6,3.6,2.5,2.6,3.4
			c-2.1-1.8-3.7-4.1-6.2-5.4c0-0.3,1.1-2.7,0.5-3.1c-0.1,0.9-0.7,1.1-2.1,1c0.2-1.4-0.4-2.4-1-3.5c1.2,0,1.8-0.4,1.7-1.4
			c-1.4-1-0.9-3.3-1-4.1c-2.1-1.3-4.1-7-5.1-10.8c0.5-0.1,1.1-0.6,1.5-1.3c-1-0.3-1-1.6-1.9-2c0-6.1-3.5-11.1-4.3-15.1
			c-0.4-2.4-0.5-3.6-0.9-5.1c-1.2-1-2.3-1.8-3.5-2.6c-0.2,0.6-0.6,1.1-0.7,1.9c-0.2,2.6,1.4,4.4,2,6.9c0,0-0.7,1.2-0.4,1.8
			c0.4,2.9,3,6,2.6,9.5c3.7,1.8,2.8,8.8,5.6,11.7c-2.3,1,0.2,3.2,1,4.1c-0.8,0.8,0.4,2.4,0,4.5c0.6,0.8,2.7,3.3,1.5,4.3
			c-2.7-0.1-1.8-3.6-4.1-4.3c-1.2-5.5-6.3-6.9-5.4-12.8c-1.4,0.1-2.2-0.1-2.1-1.6c1.2,1,3.5,0.5,3.7-1.3c-3-4.2-5.8-9.1-7.8-14.5
			c2.1,0-1.7-3.8-3-5.1c-1.4,6,2.6,10.5,2,18.8c0.9,1.9,2,4.4,2.7,5.5c0.4-1.4,1.9,0.4,1.9,0.9c-2.3,1.3,0.5,4.6,0.6,7.5
			c1.2,0.1,2,1.2,2.5,1.9c0,0.9-0.1,1.4-0.4,1.9c3.8,1.7,5.2,6.8,8.1,10.9c3.8,1.2,5.3,4.2,7.7,6.3c0.3-0.4,0.6-1.1,0.9-1.4
			c1.9,3.1,4.3,5.7,4.1,10.3c5.9,7.3,8.7,19.1,15.6,27.9c0,0.4-1.2,0.3-1.3,0.7c2.3,0.9,2.8,3.5,4.6,4.5c1.1,1.3,2.1,4.9,4.2,3.5
			c-1-2.6-3.3-3.8-4.2-7c0-0.6,1.5-0.3,1.1-1.4c-0.9-1.6-1.7-3-2.4-4.4c0.6,0,0.7,0.9,0.8,0c-1.7-4.3-4.5-7.4-6.5-11.3
			c-1.9-3.7-4.1-7.5-5.1-12c0.6,0.7,1.3,0.7,2.1,0c5.4,12.4,12.5,23,18,35c2.4,2.7,4.9,6.3,5.3,9.2c1.2,0,1.8,0.1,2.3,0.5
			c0.2,3.8,3.9,4.3,4,8.2c3.7,3,5.2,8,7.8,11.8c-1.2-0.1-0.1,1.9-0.5,2.6c0.5,1.8,2.3,2.5,2.6,4.4c-5.7-5.4-10.7-12.8-15.1-19.2
			c-1.8-2.1-2.9-6.4-6.8-5.4c2.4,1.4,2.8,4.7,4,7.2c3.1,1.6,7.3,3.7,6,7.7c1.9,2.6,4.3,5.1,6.3,7.9c3.6,5.8,9,9.6,11.7,15.1
			c0,2.1,0.6,3.1,1.2,4.5c1.6,0.7,2.6,1.7,3.4,2.9c2.6,3,2.8,9,7.7,9.5c-0.9-3.5-0.9-4.5-2.5-7.4c1.7,1.9,4.2,3.8,6.3,6.3
			c0.2,0.5,0.3,2,0.9,2.5c1.4,1.6,3.5,2.3,5.2,3.9c0.7,1,1.2,2.6,2.1,3.3c4.1,5,9.7,9.4,13.8,14.5c1.4,1.3,2.2,3.8,3.6,5.5
			c1.4,1.5,3.1,2.2,4.1,3.4c0.4,0.5,0.1,1.4,0.6,1.9c0.5,0.7,1.9,1.1,2.5,1.6c2.3,2.2,0.2,2.6,1,4.4c3,0.9,4.4,4.1,6.7,5.8
			c0.6,0.5,1.9,0.5,2.6,0.9c1.3,1,2.1,2.9,3,4c0.9,1.3,3.4,2.3,2.5,4c-1.7-0.4-0.7-3.3-3-3c-1,1.9,0.6,1.9,0.5,4
			c3,1,4.1,3.9,6.6,5.5c0.9,2.4,3.3,6,5.6,5.2c-2.6-3.9-6.1-7.3-8.7-11.3c2.2-0.3,1.4,2.7,3.5,2.4c0-0.7,0.1-1.3,1.1-0.9
			c2.7,3.1,8.1,5.3,8.5,8.9c0.2-0.7,1.3-0.4,1.7,0c4.1,4,8.8,7.9,13,11.4c1.8,1.5,3.4,3.2,5,4.8c1.7,1.7,3.7,2.8,5.6,4.5
			c2,1.6,3,4.3,5.2,5.4c2.1,1.4,3.2,2.2,5.1,3.3c1.2,1,2.5,1.5,3.1,3.4c4.7,1.3,8,4.5,11.2,8.1c-1,0.1-1.1,0.7-1,1.9
			c4.8,3.9,12.7,4.9,16.5,10.1c5.9,2.4,11.1,6.2,15.9,10.1c0.8,0,1.8,0,2.5,0c0.3,1.2,1.9,1.7,2.4,2.6c1.8-0.2,1.8,0.9,3.2,0.4
			c1.7,1.1,3,3.4,4.6,4.6c1.6,1,3.7,1.1,5.3,1.8c2.9,2,5,5.1,8,4.3c1.3,2.1,3.3,2.6,6.3,2.3c2,2.4,6.3,2.4,8.3,5.4
			c1.8,0.5,1.2,0,2.9,0.5c1.7,4.3,5.8,6.1,11,7.6c3.5,2.6,8.2,4.8,12.6,6.7c4.7,1.7,9,4.5,13.9,5.5c2.3,3.4,8.3,2.8,10.7,5.6
			c-12.2-3.3-23.4-7.4-33.6-12.7c-6.5-0.1-9.1-3-13.3-4.8c-10.3-4.3-18.7-7.7-26.3-13.5c-7.1-1.9-11.1-6.7-18-8.7
			c0.7,0,1.8-1.9,0.7-1.8c-0.8,1.8-1.7-0.4-3.3,0c-0.2,3.6,6.7,3.9,7.7,7.7c1.5,0.1,2.8,0.5,4.2,0.7c0.5,1.7,2.1,1.9,2.6,3
			c4.6,0.8,6.4,4.7,11.3,5.1c0,0.4,0.1,0.7,0.3,1.2c3.4,0.2,4.6,2.7,6.6,3.3c1.8,0.3,1.3,0.4,2.1,1.2c1.3,0.8,3.5,1.6,4.8,2.1
			c1.5,0.5,3.1,1.9,3.9,2.3c1.5,0.4,2.1,0,3.4,0.7c0.7,0.7,1.9,1.9,2.8,2.6c1.7,0.6,3.5,0.4,5.3,0.7c3.4,1.1,7.5,4.8,10.3,6.9
			c0.7,0.3,1.4,0.2,2,0.4c3.6,1.8,8.3,5.1,10.8,6.6c0.6,0.3,1.5,0,1.5,0.8c9.1,2.7,14.9,8,25.6,8.5c0.8,0.5,0.8,1.3,2.2,1.3
			c5.8-0.3,12.7,2.5,18.9,2.5c3.3,1.2,8.6,3.3,11.8,0.7c2.8,2.3,5.2-0.2,7.2,2.4c0.2-0.6,0.5-0.9,1.5-0.9c2.2,2.6,6.3,1.1,9.2,2.3
			c1.1,0.2,1.9,1,3,1.1c0.7,0.2,2.3-0.1,3,0c2.9,0.6,5.6,1.8,8.4,2.2c7.6,1.9,12.8,2.8,17.2,1.7c0.8,0.6,0.5,1.8,2.1,1.6
			c2.8-0.5,3.3,0,5.7,0.5c7.3-2.3,15.3,1,22.2,0c0.8,0,0.2,1.6,1.5,1.4c2.3-1.7,5.4,1.8,7.6,0c0,1.9,0.9,2.4,2,2.7
			c2-5.8,10.5,1.6,11.8-4.1c-5,0.6-10.3-0.5-15.3-0.9c-6.4-0.3-11.9,0.1-15.5-2.8c19.5,0.7,37.7,2.7,52.8,2.8c1-1,3.6-0.8,5.2-0.4
			c-0.7,0.1-1.4,0-1.7,0.4c3.3,0.4,1.7-0.6,3.2-1.2c2.2,0.5,8.6-2,10.2,0.4c-0.3,0-0.6,0.3,0,0.4c3.3-3.1,8.1-0.6,9.8-1.9
			c5.3-1.4,12.1-2.1,18-2.7c0.6-1.2,2,0.2,2.6-1.9c1.6,1.8,3.9,0.5,5.6,0c-1,0,0-2.6,0.6-3c6.4-0.6,10-2.2,17.3-2.2
			c3.6-3.4,8.1,0.6,10.9-1.7c-1.1-0.3-1.1-0.8-0.6-1.5c1.3,0.4,4.1-0.5,4.6,0.5c-0.3,1.1-3.9-0.3-3.6,1.4c8.6,0.3,19.1-2.7,25.6-2.3
			c-2.5,1.5-5.1,0.8-8.1,1.3c-3.7,1-7.1,3.7-10.9,3.9c-0.5,0.3-1.7-0.2-2.5-0.2c-2,0-4.4,0.7-6.7,1.2c-5.2,1-12.2,1.3-16.4,1.9
			c-1,0.1-1.7,1.5-2.6,1.4c-0.9-0.1,0.3-1.5-0.4-1.4c-0.6,0-0.6,1.6-2.2,1.7c-1.8,0.4-6.1,0.6-6.6,0c-4.8,2.1-11,2.7-16.4,3.5
			c-5.1,1.4-10.3,1.3-13.9,4.2c2,0.8,3-0.5,5,1c0.5-0.9,1-1.7,2.2-1.6c8.9-0.2,14.4-4.2,23-3.6c1.6-0.8,3.2-1.4,5.2-1.7
			c2.4-0.4,5.5,0,8.1-0.4c1.9-0.4,3.2-1.4,5.2-1.8c0.7-0.1,1.3,0.4,2,0.3c2-0.2,3.7-1.6,5.6-1.7c1.4-0.1,2.6,0.1,4.2,0
			c5.5-0.6,12.8-2.4,16.9-2.4c1,0,0.3-1.1,1.5-1.1c9.8-2.1,14.8-4.9,25.8-5.8c2-2.4,4.5-1.7,7.5-1.9c6.1-1.1,12.1-4.4,18.5-5
			c2.8-3,16.1-1.6,11.8-6.6c-2.5,1.5-5.9,2.6-9.8,2.2c8.9-2.6,17.2-6,25.6-9.5c11.5-4.3,21.8-10.2,32.7-13.9
			c-9.1,7.7-23.5,10.6-33.8,17.5c-0.8,0-1.6,0-2.4,0c-2,2.5-7.2,1.9-8.7,4.8c5.5-0.6,9.1-2.9,14.7-3.6c-0.2-0.8,0.2-1.3,1.1-1.8
			c2-0.2,3.3-1.6,4.6-2.6c11-3.6,19.3-9.8,29.6-13.8c0.9-1.8,3.1-2.6,4-4.3c0.3,0.7,1.6,0.6,2.2,0.6c1.8-3.1,8.3-3.8,8.9-6.4
			c-0.1,0.6-1,0-1.3-0.5c11.5-0.9,18.3-10.5,29.7-13c-0.3-3.8,5-2.5,6.9-4.3c-1.7-2.7,0.3-3.1,1.8-4.3c0,0.9,1.1,1.2,2.2,1.2
			c5.5-2.5,9.2-7,15.4-9.2c1.7-3.8,6.6-4.5,8.2-8.7c3.3-0.6,5.2-3.6,7.8-5.7c5.1-4.1,10.2-6.5,14.9-10.1c5.5-4.4,10.9-8.4,16.4-12.2
			c7.9-6.4,17.4-12.8,24.9-18.5c0.9-0.6,2.3-0.9,3.2-1.5c5.2-4.3,8.3-10.3,14.2-13.5c-0.9,1.8-2.6,3.4-1.4,4.5
			c0.2-1.5,0.2-1.5,1.9-1.7c1.5-6.7,8.2-10.1,11.9-15.1c0.4-0.4,0.4-1.8,0.8-2.4c1.3-1.1,3.2-2.1,4.2-3c1-1.4,1.5-3.1,2.6-4.5
			c0.7-0.8,1.8-0.6,2.5-1.4c0.7-0.8,1.2-2.5,2.1-3.5c0.7-1.1,2-1.7,2.9-3c3.3-3.3,5.2-6.7,7.3-10.3c1.9-3,4.6-6,6.2-8.8
			c0.5-1,0.7-2.5,1.4-3.5c0.5-0.4,1.6-0.6,2-1.4c0.8-1.2,0.5-2.5,1-3.7c0.1-0.1,1.4-0.4,1.7-0.6c2.9-5,4.2-11,7-16
			c1-1.7,3.3-2.9,3-5.4c3.2-2.7,5.5-6,6.2-10.9c1.1,0.3,1.1-0.6,1.6-0.9c3.4-9.2,7-18.4,11.7-26.1c0.7-6.7,4.9-10.1,5.6-16.9
			c8.5-11.9,9.5-31.4,17.5-43.8c-0.1-3.4,1.3-5.1,2-7.5c0.6,0,0.6,1.1,1.1,1.1c2.2-3.2-0.2-9,3.6-11.5c-1.3-5.3,1.6-10.8,4.5-14.2
			c-1.1-10.5,2.6-20.1,4.6-28.8c0.4-2-0.5-4,1.5-5.3c1.1,3.8-1.3,5.3,0,7.9c2.3-7.4,3.7-18.4,3.7-25.6c-0.2-5.2,1.1-10.7,1.1-15.6
			c-0.1-1.3-0.6-2.4-0.5-3.6c0-2.6,1.4-4.8,1.8-7.3c0.7-2.9-0.4-6.8,0.7-9.9c0.2-0.6,0.9-1.5,1-2c0.1-1-0.5-2.8-0.5-4
			C1025.9,542.9,1027.8,528,1027.8,514.8z M759.1,58.5c1-2.4,4.3,0.2,5.6,0.5C763.1,60.6,761.5,58.7,759.1,58.5z M628.9,42.5
			c3-0.2,4.6,0.9,6.3,2.3c-4.1,1.2-8.1-3.5-13-4.2C624.1,40.1,628.4,40.7,628.9,42.5z M598.2,135.4c7.6-0.8,16.8,4.1,24.1,6.8
			c0,0.6,0,1.5,0,2.1C613.9,140.7,606.8,138.7,598.2,135.4z M607.9,159c5.7-1.5,9.9,2.7,15,3.6C617.8,163.4,613.6,159.3,607.9,159z
			 M623.2,145.3c0.8-1.5,2.9,0.2,3.8,0.5C626,147.3,624.6,145.1,623.2,145.3z M633.5,148.1c2.3,0.6,4.1,2.1,6.3,2.2
			C637.9,151.7,634.6,149.9,633.5,148.1z M691.1,51.3c-1.2,0-0.5,2-1.6,1.9c-4.7-1.2-10.2-0.9-15.4-2.8c-0.1,0-1.5-0.1-2-0.4
			c-0.2,0,0.1-1.4,0-1.6c-0.1,0-2.3-0.2-2,0c-0.5-0.4-1.7-3.5-3.1-4.9c6.7-1.1,12.4,2.8,18.4,2.5c2.8,2.8,6.4,4.6,10.2,6.1
			C695.1,53.4,692.2,51.8,691.1,51.3z M696.1,51.8c1.8-1.3,3.6,1.8,5.3,2.4C698.8,55.7,697.8,52,696.1,51.8z M707.4,241.4
			c0.5-1.8,1.1-0.5,2,0C709.3,242.8,708.7,240.6,707.4,241.4z M173.3,516.5c1-0.5,0.4,4.1,0.5,5.2
			C172.9,523.3,173.4,519.1,173.3,516.5z M492.8,91.4c0.7,1.7-3.1,1.4-3.1,0.4C488.7,90.3,492.7,90.4,492.8,91.4z M478.8,53.2
			c-0.4,0.3-0.6,0.8,0,1c-0.2,0.4-0.5,0.2-0.5,0.2c-1.7,0.2-3.7,0.4-4.7,1.9c-0.8,0-1-0.8-0.9-1.8C475.1,54.4,475.4,52,478.8,53.2z
			 M465,40.6c-0.1,1.1-0.9,1.2-2,1.1C463.1,40.7,463.8,40.5,465,40.6z M456.3,34.3c-2.2,0.2-3.7,2.8-5.7,1.3
			C451.3,33.9,454.2,33,456.3,34.3z M435.7,26.3c-0.6-0.9-0.5-0.9,0.5-0.5c-0.2,0.6-0.8,0.8-1,1.6C434.6,27.2,435.1,26.3,435.7,26.3
			z M424.6,26.3c-0.2,2-1,0.9-2.7,1.1C422.4,26.7,423.2,26.3,424.6,26.3z M414.8,18.6c1.7,0.2,3.2,0.7,3.6,2.4
			c-1.9-0.3-2.7,0.5-4.2,0.4C414.1,20.4,414.3,19.5,414.8,18.6z M405,18.6c2,0.5,5.4,0,7.7,1.4c-0.3,0.5-0.6,0.9,0,1
			c-1.4,0-3.9,1-6.7-1.6c-1,0.8-1.8,1.9-2.7,2.8c-1.4,0.5-0.9-1.2-2.5-0.8c0.9,0.9-1.1,1.1-3.1,0.8C398.4,19.7,404.2,21.5,405,18.6z
			 M395.2,21.4c1.2,0.1,1.2,1.6,0.6,2.2C394.5,23.6,394.6,22.1,395.2,21.4z M278.4,287.2c2-1.9,2.9-2.6,5.7-3.8
			c-1.1,3.6-7.8,5.8-9.2,10.7c-4.8,1.3-6.1,5.4-9.3,8.1c-0.8-1.4,1-3.5,2.1-4.3C270.4,294.2,274.9,290.9,278.4,287.2z M268.7,66.1
			c-1.3,2.5-5.2,2.5-7.3,4.1C261.3,68.3,266.1,67.2,268.7,66.1z M263.5,302.1c0.9,3.5-4,5-5.5,7.2
			C256.2,307.2,261.9,304.4,263.5,302.1z M254.8,312.7c-1.4,1.8-2.9,3.1-3.6,5.2C248.8,316.6,253.3,312.1,254.8,312.7z M247.2,320.7
			c0.9,0.5,0.1,1.1,0,1.8C246,321.9,247,321.6,247.2,320.7z M202.6,104.7c6.4-4.7,12.9-8.9,19.5-13.4c-0.3,3-4.4,4.3-7.3,6.1
			c-4.3,2.3-7.9,5.5-12.2,8.8C201.9,106.1,202.8,105.9,202.6,104.7z M174.4,486.7c2.4,1.7-0.5,6.7,1.6,8.1c-1.1-0.7-1.8,0-1.6,1.8
			c-0.8-0.3-1.1-1.4-1.1-2.2C175.3,493.2,173.3,488.5,174.4,486.7z M52.4,260.1c-1.6-0.2,0.8-2.7,1.6-1.4
			C54,259.9,52.3,259.3,52.4,260.1z M21.3,490c0.4,3,1.3,7.8,0.3,10.6C20.1,498.3,20.8,493.4,21.3,490z M21.3,516.2
			c-1.6-1.7,0.4-5.5,0-8.8C23.1,509.3,22.2,514.8,21.3,516.2z M44.7,701.1c0.9-0.5,2.6,2.9,2.6,5C45.7,704.9,46.1,702.2,44.7,701.1z
			 M223.1,711.5c-0.5,0.1-0.9,0-1-0.4c-1.2-3.6-4.5-6.6-6.1-10c-0.8-0.9-0.6-2.7-1.2-3.9c-0.3-0.7-1.7-1.7-1.9-2.5
			c-0.6-0.9-0.2-2.5-0.7-3.6c-1.5-3.8-5.7-8.1-4-12.7c2.6,2.2,3.8,4.6,5.2,8.3C216.1,694.3,219.7,704.2,223.1,711.5z M209.7,676.5
			c-0.6,0.6-2.8,0.6-3.6,0c0.4-2.3-1-5-0.9-8.5C208,669.7,208.3,673.7,209.7,676.5z M192.3,644.5c0.1,0.6,1.3,1.4,1.5,1.8
			c0.4,1.1-0.2,2,0,3.1c0.2,0.6,0.9,0.1,0.9,0.5c0.4,0.4,0,1.4,0,1.9c1.4,2.7,3.4,6.6,4.8,10.3c0.7,2.8,0.7,5.2,1.4,8
			c1.1,4.3,4.9,7.8,4.2,12.3c-4.1-6.1-8-12.4-9.8-20.6c-0.2-2,0.3-0.3,1.4-0.6c-1.2-2.2-1.2-6.2-3.5-6c-0.9-5.7-2.9-10.6-4.1-16
			C190.8,640.4,191.6,641.7,192.3,644.5z M189.2,638.4c-0.8-0.5-0.7-1.5-1-2.5C187.1,634.7,190.1,636.9,189.2,638.4z M187.7,612.9
			c-2.1-0.1,0.5-2.1-0.9-2.7C187.8,608.5,187.9,611.9,187.7,612.9z M183.7,618.8c1.3-0.1-0.8-1,0-2.2c1.2,1.1,2.3,3.4,0,4.1
			c3.3,2.4,4.4,8,3.5,12.1c-1.7-0.9-1.3-5.2-1.5-5.5c-0.1-0.7,0.3-0.4-0.4-1.1c-2.8-3.1-2.9-10.2-4.7-15.9
			C184.3,611.1,182.8,616.2,183.7,618.8z M176.5,582.7c-0.3,1-0.6-0.4-0.4-1.2C176.1,580.8,176.7,582,176.5,582.7z M176,580.3
			c-0.4,1.2-0.7-1.2-0.6-1.6C175.6,577.9,176.2,578.3,176,580.3z M173.8,567.3c-0.2,0.5,2,5.3,1.6,9.1
			C175.3,573.8,172.7,570.9,173.8,567.3z M171.3,538.1c-0.6,3.8,1.9,5.8-0.4,7.2C172.2,543,168.6,539.6,171.3,538.1z M168.2,131.8
			c0.5-0.2-3.5,3.7-5.1,5C162.2,134.7,167,133.8,168.2,131.8z M138.1,247.2c0.1,1.1-1,1.5,0,1.7C137,250.1,134.6,247.6,138.1,247.2z
			 M134.8,249.8c1.3-2-1.6,2.9,0,1.4c1.3,1-0.4,2.7-1.5,2.6C132,252.6,133.9,250.2,134.8,249.8z M118.7,269c0.9,0.9-2,1.9-2.4,1.9
			C114.7,269.9,118.3,269.9,118.7,269z M74.5,233.1c-0.6,0.5-0.4,2.3-2,1.9C73,234.1,72.8,232.9,74.5,233.1z M64.2,244.6
			c-1.8-2.3,4-1.3,2.5-3.2c3.2,1.7-3.2,5.4-3.9,8c-1.5,0.2-1.1-0.9-2.1-0.9c1.2-2.1,4.9-2,5.5-4.6C66.1,243.1,64.2,244.1,64.2,244.6
			z M54.5,256.8c2.2-2,2.8-5.2,4.1-7.9c1.6,0.6,1,0.6,2.5,0.9c-0.4,3.2-3.6,4.5-4.6,7.1C55.8,256.8,55,256.8,54.5,256.8z M56,262.1
			c-1.2-0.1-0.2-1.8,0-2.1C57.1,260.1,56.2,261.7,56,262.1z M44,504.3c0.5-3.7-0.6-7.7,1.7-10.3c-1.8-3.7,0.1-9.7,0.5-14.8
			c0.2-2.9,0.2-5.9,0.5-9.4c1.2-0.9,1.4-0.9,2.6-2.4c0.8-10.3,4.1-18.1,5.2-28.2c1.6-0.6,0.8,1.3,1,2c1.6-0.5,1.3-2.2,1.9-3.5
			c-0.5,0-1.5-0.1-1.9,0.2c-0.1,0.4-0.1,0.4-0.1,0.7c0-0.3,0-0.3,0.1-0.7c0.3-8.6,2.7-16.3,4.4-25.2c1.7,0.7,1.2,3.2,1.2,5.5
			c1.1,1,2.4,0.6,3.6,0c-2.2-4.7,1.5-11.8-1-16c0.5-0.5,0.8,0.4,1.8-0.7c-0.9-4.1,1.8-6.9,2.8-10.6c0-1.6-0.4-2.7-0.8-4
			c4-18.4,9.9-33,14.5-51.3c0.6,0.1,1.2,0.5,1.8,0.5c6.6-19.8,16.8-40.9,28.1-58.6c2,0-0.1,0.8,0.9,1.4c1.9-0.4,0.2-1.4,1.1-3
			c-0.6-1.6-0.5,1.7-2,1.1c2-2.7-0.2-4.3,3-6.6c2.8,0.2,0.5,5.3,3.1,5.5c1.1-2.4,2.9-4.9,4.1-7.3c2.1-0.2,4.1-0.8,4.1-3.9
			c-1.2-0.9-1.9,0.5-2.5,1.6c0.2-1.6,3.9-5.9,2.9-6.8c4-2.2,4.1-3.2,7.8-4.4c-0.2,2.1-1.2,2.7-2.1,4.4c-1-0.3-0.3-2.1-1.9-1.7
			c-2,0.1,0.4,2.2-2,1.7c0.1,0.8,2,2.6,2.4,0.7c1,0.9-0.9,3.3-2.4,3.7c-3.2,6.1-6.5,12.1-11.3,16.6c-0.4,1.7,0.2,2.1,0.5,3.6
			c-2.9,2.2-3.7,6.7-6.2,9.2c0,0.9,0,1.8,0,2.6c-1.5,2.4-5.4,5.4-4.3,9.2c1.6-0.1,1.6-1.3,2.3-2.4c1.3,1.7,0,4.2-0.7,5.9
			c-2.2,5.7-7.1,12.1-10.1,18c-0.9,2-1.4,5.5-4.2,5.5c0.9-7.7,5.5-15.7,7.8-23.6c-2.1,0.7-3.3,3.9-4.1,6.3
			c-2.6,7.4-4.4,16.6-8.2,24.4c-0.6,5.5-2.4,10-4.1,14.6c2.9,1,2.7,7.6-0.5,8c-2.2-0.7,2.2-2.7,2.1-4.7c-0.2-0.3-1.2-0.4-1.3-1.3
			c-2.2,2.5-3,6.2-4.5,9.2c1.8,0,2.3-1.5,3.1-2.8c0.8,0.7,1.3,1.6,2.7,1.9c0.7-0.5,0.9-1.6,0.8-2.6c3.2,1.8,0.7,6.9,0,9.7
			c-0.8-1-0.6-2.7-2.5-2.7c-1.1,0.8-1.1,3.1-1,5.1c-0.9,2.3-3.4,3.6-2.8,7.9c1.2-1.8,2.4-3.7,4.8-4.5c-3.2,12.7-7.7,26.3-10.6,39.9
			c-1.5,6.7-1.2,14-5.2,19.3c0.4,2.9-0.6,4.2-0.6,6.7c-2.5-1.4,0.9-5.5-1.6-6.7c1.3-1.1,1.2-3.1,1.1-6c-0.5-0.5-1.7-0.5-2.4-0.8
			c-1.1,4.2,1.1,7.9,0,12.2c-2,0.1-1.6,0.7-3.3,0c0.5,3.5,3.4,12.2-1,10.4c-0.2,0.9,0.5,0.9,0.5,1.6c0.8-1,2.6,0.7,4.3,2
			c-2.1,2.7-4.3,2.3-4.8,6.3c2.4,0.9,0.8-2.2,3-1.4c-0.4,3,0.3,4.8-1.5,7c0.6,0.5,1.1,0.7,1.5,0.9c-1.5,1.7-1.3,1.8-0.4,4.5
			c-0.7-0.8-0.7-2.1-2.1-2.1c1.9-2.4-0.7-4.2-0.5-6.3c-1.5,3.9-0.8,7.6,1.5,10.9c-0.6,3.2-3.6,6.8-4.8,10.8
			c-0.2,1.2,0.5,7.6-1.3,6.3c0.7,0.6,0.6,2.1,2.1,1.9c1.2-0.7-0.6-4.6,2.1-4.3c-0.8-1.1-2.5-4.9,0.4-4.9c-0.8,4.6,3,5.1,2.3,9.7
			c-1.3,0.4-2.3,0.9-2.7,1.8c0.8,5.2-0.5,10.1,2.7,13.1c0,1.1,0,3.7,0,4.8c4.8,23.4-3.4,44.6,4.9,65.2c0,0.9-0.4,1.1-0.4,1.8
			c0.1,1.8,1,2.5,1.5,3.5c0.5,1.9-0.7,2.5-0.5,4.1c1.3,2.7,2.3,4.6,1.6,8.5c0.7,2.4,2.8,7.4,0.7,9.7c0.7,1.1,1.2,2.4,1.8,2.9
			c-1.3,3.4,1.4,6.3,2,10.9c0.3,1.9-0.2,4.1,0,5.4c0.1,1,0.7,1.7,0.9,2.4c0.4,1.1-0.6,1.2-0.5,2.1c1.2,4.5,2.7,8.7,4.5,11.9
			c-0.7,2.8,1.2,7.1,2.3,9.8c1.8,1.2,1.8,1.8,3.2,2.4c0.3,2.2-2.7,1.1-2.7,2.4c2.1,6.8,3.9,10.8,5.1,17.8c-1.9-1.3-1.9-4.2-2.4-6.5
			c-2.7-7.5-6.1-16.1-8.3-22.6c1.6-2.7-0.3-5.9-1.7-7.1c-1.7,0.4-0.1,4.6,0,6.7c-1.7-0.5-1.2-5.4-2.1-5c-1.4-0.6,1-1.6,1.6-1.7
			c-0.8-1.9,0-2.3-0.4-4.6c-0.2-0.6-1-0.4-1.6-0.4c-1.8-11.1-6.1-23.9-6.8-36.6c-0.1-3.9,0.6-7.2,0-10.9c-0.1-1.7-0.3-3.4-2-4.5
			c1.1-1.7-0.1-2.5,0-4.8c-3.9,1.3,1.7,6.5-0.4,8.8c0.1,1.1,1.5,0.9,1.7,2c-0.2,2.5,0.5,5.4-1.3,6.3c0.3,1.1,1.4,1.6,1.3,3.1
			c-1.3,3.4-1.8,5.5-1.3,9.7c-1.5-0.9-1.7-3.2-4.1-3.3c1.4,1.5-0.4,5,0,7.3c0.1,0.5,1.6,1.8,1.6,2.2c0,0.8-2.4,1.5-0.9,2.4
			c2.2,0-0.5-1.3,0.9-2.1c2.2,1.8,2.1-2.9,2.5-5.7c3.3,5.5,2.6,7.8,3.1,15.5c-0.3,1.9,2.1,1.4,2,2.9c-1.5-0.3-1.5,0.9-2,1.5
			c-2.4-1.9-1.3-3.8-3.1-6.1c0.5-1.1,0.5-2,1.8-1.3c-0.5-1.6-1.8-0.7-2.5,0c0.2,7.3,4.3,13.5,3.9,22.7c0.4,0.9,0.7-0.1,1.6,0
			c1.6,5.6,2.7,11.5,3.6,17.8c-3.1-5.3-6-13.5-6.3-20.3c-1.7-1.6-2.8-3.6-2.8-6.7c-0.7-0.7-2.5-0.3-3.4,0c-0.8-0.8,1.5-2.8-0.4-3.5
			c-4.3,1.3,1.3,4.8-1.7,8.4c-2.8-5-1.5-17-6.6-21.4c-0.9-11.7-5.4-22.3-6.1-36.9c0.1-2.5,1.1,1,2.1-0.5c-0.5-0.4-0.7-3.1-1.4-1.6
			c-1.6,0.4,0.1-2.3-1.2-1.7c-0.5-15.4-3.5-33.1-4.5-47.5C41.3,520.3,43.3,513.8,44,504.3z M116,727.8c2.4-1.7-1.6-3.7,0.4-3.9
			c-0.9-1.2-0.9-0.9-2.9-1.6c0.3,1.1,0.7,1.3,1,1.6l0,0l0,0c0.3,0.2,0.4,0.2,0.4,1.4c1.5,1-2.2-1-0.4-1.4l0,0
			c-2.5,0.2-2.4-2.1-2.6-4.1c-0.8-2.4-3.1-3.7-3.5-6.4c-1-1.9-3.7-2.1-3.7-4.8c1.1,0.5,1.6,1.7,2.1,2.9c1.9-0.7-0.5-2.4,1.2-3.7
			c-0.9-0.4-1.6-0.8-2.2-1.1c1-5.1-1.1-7.9-1.9-12c1.7,4.1,5.8,8.5,5.5,13.1c0,1,1.6,0.6,1.4,1.8c0.2,1.3-0.1,2.2-1.4,1.9
			c0.8,1.1,2.9,1.1,2,3.8c3.2,1.5,3.3,3.8,5.7,5.1c-0.8,4.9,3.5,7.1,2.5,10.3C117.8,730.3,118,727.9,116,727.8z M116.3,732.4
			c0,0-0.4,0.2-0.4,0.6c-0.6,0-0.6-0.4-1.1-0.4c0.1-0.1,0.5-0.2,0.5-0.7C115.9,731.9,116,732.4,116.3,732.4z M103.1,704.9
			c-2.2-1-3.2-2.8-2-5.2c2.4,0.4,2.8,2.5,3.5,4.5C103.9,704.2,103.2,704.4,103.1,704.9z M123,737.5c-2.9-0.5-4.4-2.5-5.1-5.1
			C120.4,733.5,122.3,734.9,123,737.5z M119,731.8c0.5-1.6,1.2,0.6,1.5,0.6C120.4,733.7,119.8,731.4,119,731.8z M117,719.8
			c1.7-0.8,3.2,2.6,3.5,4.3C117.5,724.2,118.7,721,117,719.8z M90.5,666.7c3.4,6.2,5.4,13.3,7,21.2c-1.6-2.9-3.2-6.1-4.1-9.4
			c0.4,0.2,0.8,0.6,1.4,0.6C92.8,675.4,92,670.9,90.5,666.7z M73.2,449.6c-0.5,0-0.2,1-0.3,1.4c-0.4,1.1-0.9,4.1-1,6.9
			c-0.1,1.3,0.5,2.6,0.5,3.9c-0.3,6.3-2.8,12.2-3.8,18.4c-1.2,8.7-0.7,17.7-2,26.6c-0.5-0.5-0.8-0.6-1-1.1
			c-1.1-4.4,1.2-8.1,1.7-12.8c0.1-4-1.4-8.5-1.3-12.7c0.1-1.8,1.4-3.4,1.8-4.9c0.1-1.6-0.7-3.5-0.5-5.2c0-1.9,1.1-3.6,1.3-5.7
			c1.7-9.5,1.5-18.3,5.8-27.1C76.1,441.8,72.5,444.4,73.2,449.6z M76.1,511.2c-0.4,8.6,0,14.7-1.1,24.2c-0.5,0-0.9-0.2-1-0.6
			c-0.1-5.2,0.5-10.6,1-15.6C75.1,516.2,74,513.8,76.1,511.2z M74.5,436.1c0.1-1.4-0.7-4.1,1.6-3.8
			C75.8,434.1,76.4,436.3,74.5,436.1z M74,542.7c1.2,0,1,1.8,1,2.9C73.5,545.6,74,544,74,542.7z M78.6,553.7
			c0.5,9.5,0,14.6-1.2,23.7c-1.8-7.6-2.8-18.7-2.4-26.6C75.1,552.6,76.6,553.4,78.6,553.7z M76.6,502.1c0.2-1.4,0.5,0.2,0.4,0.8
			C76.8,503.9,76.4,502.7,76.6,502.1z M79.1,588.4c-1.4-3-1.8-6.6-2.1-10.5C79.3,579.8,79.1,584.6,79.1,588.4z M78.6,530.2
			c-1.9-4.3-0.9-14.5-0.7-19c0.5-3.1,0.6-12.9,1.2-19.2c1.7,8.6,0,18.4,0.4,27.9c0,1,0.9,2.7,1,4.3c0.2,1.1-0.5,2.1-0.5,3.2
			c0.3,1.6,1.4,3.4,1.5,4.6c1,7.1-0.7,14.5-1.1,21.6C78.6,548.7,77,535.7,78.6,530.2z M78.6,418.4c0,2.9-0.2,6.4-1.2,9
			c-0.3,1.2-0.6,3.4-2.1,3.9c1.6-6.8,1-12,3.7-16.5c-2-3.3,3.9-7.7,1.4-8.4c0-1.2,0.5-0.6,1.1-0.5c0.3-8.7,3.9-18.6,6.6-26.5
			C86.5,392,83.4,407.4,78.6,418.4z M84.7,616.6c1.8,2.5,0.6-2.3,0.6-3.7c1.9,2,0.9,4.9,1.4,7.1c0.8,5.2,3.1,10,3.1,16.7
			c-0.5,0-1-0.3-1.1-0.9c-0.3-5.9-2.7-12.8-3-17C85.5,617.9,84,618.3,84.7,616.6z M88.2,379.1c1.1-3.6,1.6-7.7,3.2-10.7
			C91,369.3,90.4,376.9,88.2,379.1z M91.9,358.3c-1.5-2.7,0.2-5.5,1-8.4c2-7.5,3.8-14.1,7.3-21.7C99.7,338.6,93.4,347.3,91.9,358.3z
			 M92.4,337.5c0.2-0.9,0.6,0.3,0.5,1.2C92.7,339.3,92.1,338.4,92.4,337.5z M100.2,717.8C97.8,717.7,100.5,714.9,100.2,717.8
			L100.2,717.8z M98.5,707c0.3-1.5,0.7,0.8,1.6,0.5C99.7,709.2,98.8,707,98.5,707z M98.8,697.2c2.1,0.2-0.2,1.4,1.7,1.9
			C100.3,700.2,97.8,697.9,98.8,697.2z M70.9,635.5c-0.7-0.5-0.9-1.1-1-2.1C71.3,633,70.6,634.6,70.9,635.5z M54.5,678.4
			c1.5,0.8-1.3,0.4-0.5-0.9C54.4,676.6,54.6,677.8,54.5,678.4z M52.4,671.1c1.5,0.6,1.5,2.8,1.6,4.8
			C52.6,675.1,53.2,673.3,52.4,671.1z M41.2,674.7c3.2,1.7,2.7,6.6,3.6,10.1C42.3,681.7,41.3,677.9,41.2,674.7z M44.7,650.4
			c-0.2-1.4-0.8-2.9,0.5-4.1c-3.7-6.3-4.6-15.3-5.8-24.1c1.7,1,1.8,4.2,2.1,5.9c2.4,11.5,5.7,21.8,8.3,33.7c0.3,1.2,1.6,1.8,2.1,2.9
			c0,2.1,0,3.9,0,6c-0.9,0.2-1.1-0.4-1.5-0.5C49.5,663.5,45.8,656.7,44.7,650.4z M47.9,671.9c0.9-1,2.1,1.9,1.9,3.5
			c1.6,2.2,2.7,4.4,3,7.5c4.3,8.2,8.6,15.6,10.8,25.6c-1.3-4.1-5.3-7.5-5-11.4C52.1,690.7,50.6,681.4,47.9,671.9z M56,717.8
			c-2.9-3.6-5.3-7.9-5.6-14.1c3.5,3,4.6,8.1,6.9,12.2C57.3,717,56.2,716.8,56,717.8z M74.5,741.5c-5.8-11.7-12.2-23.1-17.1-35.4
			c0.1,0.8,3.5,2,2.2,0.9c7.3,6.7,10.7,24.9,15.8,35.6C74.9,742.4,75.1,741.5,74.5,741.5z M116,788.9c-1.1,0.2-1.1-0.8-1.1-1.4
			c0.5,0,0.5,0.5,1.1,0.5C116,788.3,116,788.7,116,788.9z M143.6,818.6c-1.8,0.4-1.7,1.3-1.9,2.4c-3-2.6-4.6-3.9-6.3-7.9
			c-2.8-0.8-4.6-4.5-7.1-7.4c-1.9-2.1-4.4-3.7-5.7-5.4c-1.5-2-1.4-5.3-4-5.8c0.2-1.3,0.2-1.8,0.8-3.4c-2.7-5.2-5.9-9.8-7.7-15.8
			c-4-2.7-6.6-9.1-10.3-13.9c-1.6-2.3-3.1-4.5-5.1-8c-2-2.9-4.7-7.6-6.6-11.7c-0.5-1.1,0.5-2.9-1.6-3.5c-0.6-7.8-7-12-6.6-19.8
			c-0.4-0.5-0.7,0.2-1.5-0.9c1.5-7.1,1.2-8.8-1-15.3c-1.6-0.8-2,0.2-3-1c-4.4-20.3-13-39.2-14.4-60.7c2.6,2.1,2,6.6,3,10
			c0.8,2.2,1.7,4.4,3.2,5.9c0.1,5.5,4.2,6.6,6.1,10.4c-0.1,3.9,1,4.6,2.1,6.9c0.4,9.4,5.5,17.6,5.1,25.6c0.4,1.3,1.8,2.5,2.6,3.4
			c1,4,1.4,8.7,3.9,10.8c-0.5,4.5,4,4.4,2.9,8.9c2.3,3.8,4,7.4,5.4,11.9c-1.1,0.3-1.4-0.2-2-0.4c0.6,1.3,0.8,3.3,3.1,2.6
			c-0.3,0.6,0,1.1,1,1.1c0,4.1,3.3,5.3,4.1,8.5c8,4.3,10.9,15.1,15.3,23.2c5,9,10.6,17.5,17,24.8c0,0.8-2.3,0.2-3.1,0.4
			c1.4,1.8,1,2.9,2,4.2c2.2-0.6-1.4-1.8,1.1-3.6c3.2,2.2,3.6,7.2,7.3,8.5c-0.8,2.8,0.8,3.7,0.9,5.6c-5.9-3.7-10.6-8.9-15.4-14.1
			c0.3,4.1,4.9,8,8.3,11c2.7,2.6,6.7,6.3,10.3,8.1c0,0.5,0,0.9,0,1.6c2.6-0.5,4.2,4.5,7.2,3.8c2.5,5.7,6.2,9.8,10.3,13.9
			c0.2,0.9-0.9,0.7-1.1,1.2c1.2,2.9,4.1,3.5,4.7,6.5C158.3,834.3,150,827.3,143.6,818.6z M124.3,768.2c2.4,0.5,2.5,5.3,3.5,6.5
			C126.7,774.4,124.1,769.8,124.3,768.2z M129.4,776.5c1.1,0.4,1.2,2.2,1.3,3.6C129.6,779.3,128.4,777.6,129.4,776.5z M171.3,871.2
			C173.7,872.1,171.9,873.7,171.3,871.2L171.3,871.2z M189.2,857.5c-2.4,0-3.3-1.7-5.6-1.9c0.2-1.8-3-1.2-1.6-2.6
			c-0.6,0-1.4,0-1.5,0.5c-3.8-3.2-7.3-6.7-10.8-10.3c-0.2-0.9,0.5-0.9,0.5-1.5c7.1,4.3,11.3,11.1,19.5,14.2c1.4-3-1.5-3.8-3.7-5.3
			c-4.1-3.4-8.7-8.4-12.7-11.5c1.5-1.4,4.4,1.7,6.2,3c2.2,1.6,4.4,3.4,5.7,4.8c2.3-0.2,3.2,1.3,5.1,1.7c0.1,3.1,4.9,5.1,2,8.4
			c2.2,3,6.9,3.9,8.2,7.6C195.4,865.7,192.4,860.2,189.2,857.5z M220.1,853.5c-1.6-0.1-1.8,0.9-3.1,0.9
			c-9.5-7.4-16.8-16.6-25.8-24.6c0.2,1.8,3.8,4.5,5.6,6.3c-3.3,0.9-4.5-4.5-8.1-5.2c-2.8-4.7-7.8-7.2-11.3-11.5
			c-3.7-4.4-5.8-10.9-9.7-16c-2.1-2.3-4-4.2-5.8-6.7c-2.5-3.4-5-6.2-7-10.3c-1.4-0.8-2.7-3.9-4.2-3c0.6,1.1,2.8,2.3,3.6,4.5
			c-1.6-0.5-1.8-2.3-3.6-2.5c1.5,6.4,5.6,10.8,9.7,15.2c3.7,4.1,6.9,10.8,10.4,15.9c0.7,1.1,1.7,1.3,1.9,3.5
			c4.3,2.2,4.2,6.5,5.6,9.7c0.9,2.2,3.6,4.3,4.4,5.9c0.8,0.8,0.5,1.1,0,1.1l0,0c1,0.2,1.6,2.1,1.7,2.4c2.3,2.7,5.6,4.4,7.7,7.5
			c-5.3,0.1-7.5-7-12.8-8.6c-1.2-1.3-2.6-2.7-4-3.8c-3.9,0-4.8,3.3-8.3,3.8c-1-1.3,1.1-2.6,0-3.8c-2.7-0.2-0.2,1.9-1.5,2.5
			c-2.9-0.2-0.4-4.2,1.1-3.4c-1.8-1.9-4.5-2.7-5.7-5c0.5,0,2.5-0.9,3.5,0c0.6-0.4,0.2-1,0.6-2.6c-1.4-0.6-2.6-1.8-5.2-1.4
			c-11-13.2-20.1-28.1-28.7-43.9c3.4,3.9,7.1,7.2,11.2,10.4c0,3.4,2.9,5.8,4.7,8.5c0,0.3-0.3,0.9,0,1.3c0.1,0.5,1.3,0.6,1.5,1.3
			c0.9,1.5,0.9,4,2,5.7c2,3.2,7.5,7.1,9.2,11.3c1.8,1.8,3.4,4.1,5.6,5.4c1.5,0.2-1.2-1.3,0.5-1.3c-4.9-8.5-12.6-14.4-16.4-23.6
			c-2.9-3.2-5.1-7.5-7.7-10.9c1-2.2,1.4,0.6,3.1,0.5c1.4,4.5,5.7,5.8,7.7,9.7c0.8,0,1.5,0,2.2,0c0.1,0.5,0.3,0.9,0.4,1
			c0.5-0.5,0.3-0.6,0-1.5c0-1.1-1.7-0.6-2.5-1.4c-0.5-1-1.1-2.1-1.5-2.9c-5.2-5.1-9.6-10.5-14.9-14.9c-2.3-5.9-8.6-7.5-9.4-14.8
			c-0.5-1.2-0.8-1.8-2-2.6c0.9-1.5,1.3-3.6-0.6-5c-2.1,1,0.9,1.5-0.3,3.3c-1.9-0.8-1.3-1.1-1.6-2c-1.8,1.5,1.8,3.5-0.6,4.9
			c-1.7-1-1.3-4-3.1-4.6c0.5-0.7,0.9-2.6,2-1.6c0.4-1.4-1.8-0.6-1.6-1.6c-1.6-0.2,1.4,1-0.5,1c-1.9,0.9-2-2.9-1-3.1
			c-6.1-4.7-7.3-14.3-11-21.9c3.3,1.4,3.7,5.7,4.3,8.8c2.5,2.7,3.4,6.8,6.2,9.1c-1.5-7.5-5-12.2-7.7-19.7c-0.5-1.7,0-5.1-2.8-5.5
			c-1.6,1.4,1.3,2.5,0.9,4.2c-4-2-5.7-8.4-6.4-12.2c1.6,0.2,4.7,3.5,4.8,7c0.6,0.1,0.7-0.5,0.7-1.2c1.7,1.8,3.8,2.3,4.8,4.2
			c0,0-0.7,1.7-0.5,2.2c0.5,2.2,1.9,2.1,3.2,3.7c-1.2,0.7-0.6,0.7-1,2.4c1.1,2.7,5.1,4.5,4.6,7c3.6,2.1,5.3,5,8.3,9.3
			c0.5-0.3-0.1-0.7,0.4-2c0.8,0.9,2.6,0.8,3.7,1.7c-0.1,0.7-0.8,1.5-2,1.6c1.5,1.7,4.1,2.5,6.1,3.9c-1.2,1.8-1.5-1.8-3.7-0.6
			c-0.3,2.6,3,3.1,4.1,4.1c0.2,0.3,0.2,1.4,0.6,2c1.3,1.9,1.7,2.7,4.1,3.7c0.5-4.2-4.4-6.3-5.1-10.5c-0.6-1.3-1.5-1.5-3.1-1.6
			c0.3-1.7,0.7-4.4-0.6-3.3c-1.2-0.1,0.6-1.1,1.1-1.4c-0.1-1.8-1.5-2.1-2-2.9c1.2-1.3,2.8,1.6,4,1.8c-1-2.1-4.7-8.6-8.3-8.2
			c-0.6-1.2-1.7-4.6-3.5-6.2c0.1-0.2,0.6-0.1,0.9-0.2c-1.2-2.1-4-5.3-2.9-7.6c4.1,1.8,4.7,7.2,8.1,9.8c5.3,11.1,12.2,20.7,17.4,31.6
			c1.2,0.3,1.1,1.9,3.1,1.6c0.2,3.7,3.3,4.7,4.1,7.8c-2.1,0-3-3.5-6.7-3.3c-0.6-0.7-0.2-0.7,0-1.6c-2.3,0.3-2.1-0.1-3.6,1.1
			c0.6,1.5,2.9,3.5,2.1,4.8c2.4,1.3,4.1,3.5,5.7,5.5c1.6-0.9-1.8-1.7,0-2.9c5,0.1,4.8,5.4,9.2,6.4c-2.2,3,3.6,5.3,1.5,6.7
			c0.6,1.7,2.3,2.2,3.5,2.8c1.1,5.9,7.9,12.3,12.3,16.7c3.2,2.9,5.9,5.6,8.3,7.8c2.4,2.5,6.3,4.4,9.1,7c0.8,0.7,1.3,2.8,3.4,2.8
			c6.3,8.7,12.8,17.4,22.3,23.3c0.9,3.8,5.1,4.7,6.6,8.4C223.9,858.9,220.2,857.9,220.1,853.5z M125.1,742.6
			c1.8,0.4,2.1,2.2,2.7,3.7c-1.2,1.2-2.7-0.1-3.5-0.4c0.2-1.6,0.8,0.4,2,0C126.6,744,125.1,744,125.1,742.6z M127.8,741.5
			c0.5,0,0.4,1,0.8,1.1C128.3,743.8,126.6,742.1,127.8,741.5z M229.2,889.6c2,0.7,3.4,2,4.3,3.8
			C231.8,892.4,229.6,891.7,229.2,889.6z M235.4,895c1.8-0.1,1.5,2,3,2C237.7,897.7,235.4,896.2,235.4,895z M247.7,751.3
			c3.1,1.1,3.4,4.3,6.1,5.4C251.7,756.8,248.8,753.6,247.7,751.3z M970.4,267.8c0.8,1.6,0.3,2.4,0.5,4.5c0.7,2,1.7,1.5,3.5,1.2
			c0.6,2.1,1.5,4,2.8,5.3c-1.4,2-3.1,2.5-2.2,5.6c2.1-0.1,1.3-2.7,3.6-2.6c3.4,5.5-0.7,11.3,1.9,15.3c1.3-0.5,1.5-0.9,2-2.5
			c5.8,13.4,9.2,28.8,13.4,43.4c-2.4-2.4-2.1-5.4-3.6-8.3c-0.8-1.9-2.6-3.7-3.4-5.5c-3-5.9-4.2-13.5-6.7-20
			c-0.2-1.9,2.5-1.4,0.9-2.7c-0.5-1.6-0.7-0.2-2.6-0.4c-1.9-5-4-10.6-7.2-16.1c-1.3-2-2.3-4.8-3.6-8.7c-0.6-2.2-3.3-5.6-0.9-6.9
			c-2-1.9-3.6-4.2-3.8-7.4C968.3,262.5,967,269.5,970.4,267.8z M994.9,627.3c1.9,0.4-0.8,3.8-0.5,6.2
			C993.1,632,994,628.5,994.9,627.3z M974.4,683.4c1.4,0.3,0.6,2.1,0,2.4C973.2,685.7,974.1,683.7,974.4,683.4z M974.4,679.9
			C973.1,677.9,976.1,676.8,974.4,679.9L974.4,679.9z M968.8,709.6c-2-2-3.8-8.6,1.6-10.4c0.5,1,0.6,3.7-1,5.4
			C970.4,706.7,970.4,707.8,968.8,709.6z M969.4,696.7c1.6-0.7,0.2,1.5,1.9,1C971,699.4,968.6,698.5,969.4,696.7z M970.9,694.7
			c-1-1.7,0.4-5.6,1.6-7.2C973.1,689,971.2,692.6,970.9,694.7z M967.7,261c-0.7,2-3,0-3-1.2C965.9,260.1,966.9,260.3,967.7,261z
			 M966.8,717.8c0,1.7-0.5,2.5-0.9,3.5c-1.5,0,1.1-1.4-1.1-0.9C965,719.3,965.2,717.9,966.8,717.8z M963.2,255
			c0.8,0.7,1.2,2.2,0.5,2.6C962.4,257.6,962.4,255.7,963.2,255z M964.3,266.2c-0.7-0.3-1.2-1-1.2-1.6
			C963.8,264.7,964.3,265.1,964.3,266.2z M961.4,252.6c0.2-0.7,0.5,0.4,0.3,1.1C961.6,254.7,960.8,253.3,961.4,252.6z M956.4,712.4
			c0.7,1.5-0.5,1.9-0.5,2.9C954.1,715.9,955.4,712.2,956.4,712.4z M900.1,179.3c0.1,1-0.1,1.9-0.4,2.4c9.8,6.4,14.2,17.9,19.9,28.2
			c-1.3,0.2-1-0.9-2.5-0.6c0.3-0.7-0.4-0.7-1-0.9c-0.4-1.5-1-2.5-1.7-3.9c-11.5-14.3-22.5-29.1-34.7-43.1
			C887.7,166.1,892.7,174.1,900.1,179.3z M814.4,372.5c-1.4,1.4-1.5-2.6-2-4C813.8,369.3,814.4,371.9,814.4,372.5z M807,356.1
			c-2.4-1.3-3-4.2-4.7-6.2C804.7,351.1,805.6,353.7,807,356.1z M811.4,366.6c-2.8-1.2-1.7-6.2-5-6.8c0.2-0.4,0.5-0.8,0.5-1.5
			C809,360.3,810.2,363.5,811.4,366.6z M801.2,361.8c-0.9-0.2-1.2-0.9-1.1-2C801.1,359.9,801.3,360.5,801.2,361.8z M797,338.1
			c1.4,0.2,1.3,1.2,1.2,2.4c-0.4,0-1.2,0-1.6,0C796.3,339.3,796.6,338.8,797,338.1z M798.2,348.5c-0.2,1.6-2.1,0.7-1.6-1.1
			C797,347.7,797,348.7,798.2,348.5z M794.4,337.5c-1-1.3-1.7-2.7-2.4-4.4C793.3,333.8,795,335.2,794.4,337.5z M787.4,326.5
			c-1.4-0.1-1.3-1.8-2.2-2.2C785.8,323.4,787.2,325.8,787.4,326.5z M711.1,42.5c-0.7-1.2,2.2-1.6,0.4-2.3c1-0.5,1.7,2.6,2.5,4
			C712,44.7,712.2,42.7,711.1,42.5z M741.1,280.8c-0.1-1-0.6-1.1-2-1c-0.9-4-4.8-5.1-6-9c-5.2-5.7-10.5-13.6-15.8-20.1
			c-1.4-1.4-4.1-3.2-3.7-5.3c2.7-0.9,1.5,1.4,2.1,2.2c4,5.8,12.9,7.7,14.7,15.4c2.2,3.2,5.8,4.7,7.9,7.8c2-0.5,0.5-2.3,0.5-3.6
			c8.1,4.5,12,14.8,19.5,18.7c0.5,1-1.2,0.8-1.2,1.8c1.7-1.2,0.9-0.6,2.7,0c-1.4,2.4,0.8,3.5,1.6,5.4c1.8-1.4-1.2-2.1-0.4-4
			c1,2.1,3.6,2.2,3.4,5.5c-0.7-0.4-1.2-0.9-2.1-1.1c0.6,2.3,1.4,3.9,3.2,4.6c1.9-0.6-0.2-1,0-2.3c3.1,2.4,6.3,4.7,7.7,8.6
			c4.9,4.8,8.3,11.4,12.1,16.9c-0.8,1.2-3.3-1-3.1-2.6c-3.4-1.3-4-5.6-7.2-7.2c0-1.8-1.1-2.6-1.3-3.9c-1.2-1.1-0.9,0.2-2.1,0
			c0.2-2-0.6-3.2-2.1-3.3c0.4,2.1,2.3,3.9,3.6,5.6c1.3,2.1,2,4.2,3.6,6.1c2.9,3.9,6.5,9.6,10.4,14.7c2.1,3.2,5.8,5.1,5.4,11
			c-7.9-10-13.3-22.3-23.1-30.7c-0.4-2.3-1-4.3-3.2-4.8c0.2-4-4-4-4.5-7c-5.2-2.7-8.6-7.8-12.1-12c-3.5-0.5-3.7-4.1-6.9-5
			c-1.1,0,0.1,1.7,0.5,1.8C742.4,285.1,741.6,281.8,741.1,280.8z M774.1,342.8c0.2-0.8,1.7,0.7,1.4,1.7
			C773.8,345.1,775.1,342.7,774.1,342.8z M777.6,350.9c-0.6-0.1-0.6-0.8-1.5-1c0-0.5,0.2-0.5,0.6-0.5c0.3,0,0.5,0,0.9,0
			C777.6,349.9,777.6,350.4,777.6,350.9z M778.1,348c-1-0.8-1.2-2.1-2.6-2.4c0-1.1,2,0.3,2.6,0.4C778.1,346.5,778.1,347.2,778.1,348
			z M780.2,355.8c0.6-2,2.8,0.6,3,1.8C781.7,357.8,781.7,356,780.2,355.8z M782.1,340c-1.8-4.8-4.9-9.2-7.6-13.5
			c-1.3-2-2.7-3.1-4.6-5.9c-1.2-2-3.7-4.1-5.6-6.2c-2-2.8-3.1-6.1-5.2-8.8c-2.2-3.4-4.5-6.2-7.1-9.7c-1.4-1.4-2.6-2.5-3.6-4.7
			c-0.9-2.4-5-4.2-4.7-6.4c8.4,4.9,12.7,14.2,19.1,21.3c1.6,1.9,3.8,2.5,5,4.4c2.2,2.6,3.3,6.7,6.7,8.9c1.2,3.5,4.3,5.3,5.1,9.1
			c0.8,1.2,2.1,2.5,3.2,3c-2.4,0.6,1.6,5.6,4.3,6c-2.6,3.2,2.8,5.2,3.3,8.5c0.7,0,2.1,0.1,2.1-0.4c1.2,1.5-2.4,2.1,0,4.3
			c0.4-0.4,0.7-0.9,0.9-1.4c2.3,2.6,5.4,7.1,5.8,10.4c-1.3-1.2-1.5-3.7-4-2c1.2,2.8,3.6,4.7,4.3,8.1c-6-6.1-10.2-14.3-14.9-22.5
			C784.4,341.6,783.6,340.4,782.1,340z M796.6,376.9c-1-0.5-2.3-1.1-2.1-2.9C795.5,374.9,796.7,375.2,796.6,376.9z M793.9,372.1
			c-0.6,0.8-2.4-1.4-2.5-2.9C793.2,369.2,792.6,371.7,793.9,372.1z M792.1,361.8c0.7,0.2,0.8,1,0.8,1.8
			C792.3,363.3,791,362.5,792.1,361.8z M785.8,363.6c1.3,0,0.2,2.4,1.6,2.1C787.1,366.5,784.6,364.4,785.8,363.6z M798.2,389.3
			c-2-4.2-5.3-8.9-6.1-13.8c-0.5-0.4-1.1-0.6-1.7-1c0.3-0.8,0.7-1.1,1-2c-1.6-0.5-0.5-1.2-1.9-1.8c3.7,2.2,6.5,9.8,10,14.2
			c0,1.1-0.2,1.6-1.4,1.5c1.8,3.5,3.6,7,5.2,10.9C799.8,396.3,799.6,392.9,798.2,389.3z M798.6,378.1c3.7,3.2,5.6,7.9,9.3,10.7
			c0,4.1,1.3,6.9,4,8.1c-0.7-3.6-4.2-6.7-3.6-10c-0.1-0.9-1.7-0.5-1.9-0.9c3.2-8.2-7.6-12.9-6.3-20.9c4.6,9.8,11.5,17.1,12.9,29.8
			c3.1,2.8,3.3,8.7,4,13.6c-1.8-0.3-1.6-3.2-4-3.3c0.7-1.9-0.1-2.5,1.4-3.8c-0.6-1.9-3.4-0.1-3.5-3.1c-1.3,0.7-1.4,0.9-3,0.3
			c-0.5-2.4-1.3-4.1-3.6-4.8C804.4,386.6,797.1,382.9,798.6,378.1z M810.3,404.1c-0.4-1.2-1.8-3.8,0.6-3.3
			C810.9,402.8,811.7,402.9,810.3,404.1z M823.8,456.9c1.4,1.8,2.7,3.7,2.6,6.9C824.4,462.7,824.6,459.2,823.8,456.9z M826.8,455.6
			c-2.3,0.7-1.1-2.4-3.6-1.6c0.3,0.4,0.6,1.1,0.5,2.1c-1.9-1.1-0.2-6.4-3-8.6c-3.7-17.7-10.3-30.3-15.5-46.1
			c1.7,0.9,3.3,1.8,3.1,4.6c5.3,7.3,7.1,17.8,11.9,25.7c2.4-3.5-1.2-7.7-2.1-9.9c-1.3-2.8-2-5.5-3.7-8.5c0.8,0,2,0.3,2.1-0.5
			c2,0.4,1.6,2.4,2,3.5c1.3,2.8,3.3,5.8,3.7,8.9c0.5,3.6-1,7-0.6,10.4c0.5,2.3,2.2,4.4,2.8,6.3c0.1,1-0.4,2.2,0,2.9
			C825.2,448.1,827.8,450,826.8,455.6z M826.8,410.3c-1.5-0.8-2.2-1.9-2.4-3c0.3,0.1,1.7,1,1.5-0.8
			C827.4,407.3,826.1,408.3,826.8,410.3z M824.4,418.1c-1.7-1.5-1.7-4.3-2.2-6.7C824.2,412.7,824.6,416.4,824.4,418.1z M822.9,402.9
			C822.9,404.9,821.4,398.4,822.9,402.9L822.9,402.9z M836,510.6c1.5-0.2,0.6,2.8,1.6,2.9C836.9,514.5,835.4,511.5,836,510.6z
			 M833.5,500.7c2.4,1.8,1.8,5.9,3.1,9C834.2,508,833.8,504.2,833.5,500.7z M837,515.6c2.1,3.3,2.1,6.8,2.1,11.4
			C837.1,523.6,837,519.1,837,515.6z M838.6,493.4c-1.6-5-1.1-10.4-1.9-15.3c-0.2-0.7-1.1-1.8-1.2-2.6c0-0.7,0.6-1.6,0.6-2.4
			c-1.2-8.1-4.7-16.3-4.5-26.1c-2-3.5-3.4-10.4-3.6-14.4c2.9,2.6,3.3,7.1,4.6,11c1.6,4.9,3.3,10.2,5.2,14.2
			c1.3,8.9,4.6,15.7,6.2,24.3c0.5-3.7-0.1-10.9-1.4-16.7c-2.8-11-6.1-21.3-8.8-32.8c-0.7-2.6-1.7-6-2.7-9.2c-0.9-3.3-3-6.6-3.5-10
			c-0.3-1.9,0.5-3.7,0-5.2c-0.9-3.9-4.6-7.9-5.2-13c-1.7-0.4-2.9,0.4-3.7-1.9c-0.1-2,0.8,0.1,2.2-0.4c-1.5-4.5-5.5-8.4-7.7-12.9
			c-1-1.9-1.2-4.1-2.1-5.9c-0.7-1.5-2.8-2.6-1.9-4.6c2.5,1.7,3.1,5,4.9,7.2c1.3-0.1,0.4-2.2,0.5-3c2.2,1.4,1.9,5.3,3.7,6.7
			c-1.3,1.4-1.8-2.3-3.1-2.9c-1.7,3.5,2.3,5.8,4.1,7.4c-0.3,2.6,2.4,3.5,3.7,5.1c3.5,5,5.2,11.8,8,17.6c0.2,1-0.5,1.7-1.4,1.7
			c1.3,2.6,2.8,5.7,5.5,7.3c0.4,8.4,5.3,15,6.8,22.1c0.1,1.2-0.4,2.6,0,3.5c0.7,2.9,2.8,5.2,4.1,7.9c0.2,0.7-0.3,1.6,0,2.6
			c0.1,0.9,1.4,1.8,1.5,2.5c1.4,6,2,12.7,4.4,18.8c0.3,1.8-0.8,2.4-0.8,3.9c0.1,0.7,1.4,0.3,1.4,1c0.4,2.2-0.8,2.9-0.9,3.4
			c4.1,3.5,2.9,11,4.5,18.5c1,4.8,1.6,10.1,1.7,15.9c0,3.7,1.4,7.6,1.4,10.8c0.4,7.1-1.4,13.3-0.3,21c-3.2-1.7,0.3-7.4-2.7-9.5
			c2.8-2.3,1.9-13-2.5-9.9c-0.1,1.1,0.4,1.4,0.4,0.6c-1.7,4.8,2.2,11,1.6,19.3c0.3,0.8,1.4,0.9,2.5,1c-2.5,1.7-1,6.9-2.5,9.2
			c-0.7-3.8-1.8-6.2-1-9.5c-1.9-5.7-2.7-15-2.1-21.9c-0.4-1.5,1.9-0.6,1.6-1.8c-0.3-1.1,0-2.8-2.2-2.3c0.6-6.7-2-12.2-0.8-18.2
			c0.1-1.5-1.6-1.4-2.1-2.5c0.3-7.1-3.3-12.3-4-19.8c-0.3,11.1,4.9,23.4,5.1,37.2c-2-0.8-1.4-4.4-2.1-5.8c-1-4.4-2.4-8.4-3-11.1
			c-1.7,0-0.3,2.4-2.2,2C842.5,500.6,839.8,497.6,838.6,493.4z M856.6,579.7c-0.8,6.7-2.1,16.5-3.6,24.8c-2.7-2.4,0.7-8.3-1.3-10.9
			c0.3-0.9,1.3-1.5,1.7-2.2c-0.9-3.1,0.1-5-1.2-7.1c1.2,0.9,1.9,0,2.7-0.5c1.1-9.5-0.5-16.1,0-23.8c4.5,3.1,2,6.9,1.6,13
			C856.4,575.2,856.8,577.9,856.6,579.7z M851.4,563.5c2.2,0.1,0.2,4.1,1.6,5.5c-0.7,0-1.3,0-1.6,0
			C851.6,566.4,851.6,566.4,851.4,563.5z M852.4,607.3c-1.2,0,0-1.7,0-1.8C853.8,605.5,852.6,607.1,852.4,607.3z M848.8,874.8
			c0,1.7-1.2-1.4,0-1.1C849.7,872.7,848.8,873.9,848.8,874.8z M845.3,606.2c-0.9-2.5,0.6-6.5,0.6-8.6
			C846.9,599.9,846,604.5,845.3,606.2z M842.3,616.2c0.3-2.7,1.8-6,2-8.9c2.2,0.8,0.2,4.7-0.6,5.6c1.2,3.3-0.9,7.8-1.4,11.2
			C841.3,622.4,841.8,619.1,842.3,616.2z M828.8,655.1c0.5,0,0.8,0,1.2,0c0,0.3,0,1,0,1c-0.4,0.2-0.7,0.2-1.2,0.2
			C828.8,656.3,828.8,655.4,828.8,655.1z M768.6,770c0.9-2.3,3.9-4.6,5.9-7.1c1.1-1.5,1.7-2.7,2.6-4.1c3.9-5.1,8.1-11.8,11.8-17.6
			c2-3.2,2.9-6.2,5.7-8.2c7.3-15.9,16.5-30.4,22.6-47.6c2.4-1.6,3.2-4.6,5.2-6.3c-0.2-4,2.2-7.7,4.2-11.6c1.1-2.1,2.2-4.6,4-5.7
			c3-7.1,5.1-15.4,7.2-23.8c0.5-2.4,0.2-5.8,2.6-7.2c-2.7,11.8-4.7,22.7-9.8,33c-2.3,4.7-4.4,9.6-7.2,14.2c-1.3,2.4-3,4.7-4,7
			c-2.2,4.2-3.1,8.8-5.3,13c-0.2,0.5-1,0.9-1.5,1.9c-1.7,4.3-3.4,8.1-5.4,12.2c-3.3,6.3-6,13.4-10,19.2c-3.5,5.9-7.9,11.8-11.8,17.5
			c-3.6,6.1-6.3,12.5-10.7,17.6c-1.7,2.1-4.5,3.1-5.6,5.6C767.3,770.9,767.9,770.9,768.6,770z M831.9,725.3c-0.4,0.9-1.1,2-1.5,2.8
			C829.9,728.1,830.4,725.1,831.9,725.3z M818.1,710.3c-1.6-0.5,0.3-1.7,0.4-2.5C820.2,708.7,818.3,709.9,818.1,710.3z M804.7,906
			c-2-0.6-2.3,1.1-3,1.9c0.6-3,5.1-6.6,8.2-8.5C810.2,899.8,805.5,903.3,804.7,906z M803.8,915.6c-2.6,0-2.9,1.6-5.2,1.6
			c2.9-3.2,8.1-4.9,10.9-8.7C810.2,911.8,804.2,912.1,803.8,915.6z M806.5,742.6c0.7,1.3-2.7,3.1-2.7,5.4
			C802.1,745.7,805.5,744,806.5,742.6z M793.5,792.7c-1-0.1,0.5-1.2,0.4-1.7C795.6,791.4,793.4,792,793.5,792.7z M794.4,910.5
			C791.8,911,795.9,910.2,794.4,910.5L794.4,910.5z M797.8,918.4c0.8-0.5-2.6,2-3.4,4c-1.2,0-2.1,0-3.4,0
			C792.4,919.7,795.9,919.9,797.8,918.4z M797,911.7C795.5,913.9,795.5,910.5,797,911.7L797,911.7z M790,767.3
			c-0.1,0.4-1.6,0.4-1.6,1.4C787.1,768.6,791.5,763.8,790,767.3z M786.1,924.6c0,2-4.5,3.5-6.9,4.6
			C779.2,927.2,784.6,926.7,786.1,924.6z M778.1,922.4c1.2-2.5,3.9-2.9,5.7-4C784,919.5,780.2,921.4,778.1,922.4z M750.3,938.6
			c4.4-2.4,8.8-5.5,12.5-7c3.4-1.7,6.9-1.2,8.3-5.1c0.5,0.4-0.1,1.5,1.4,1.9c-7.1,4.2-16.8,6.5-21.5,12.7c-1.5,0.6-1.4,0.1-2.7-0.5
			c-1.6,0.7,1.6,1.8,0,2.5c-3.9-1-5.9,5-10.6,2.9C740.7,942.9,745.5,940.7,750.3,938.6z M737.7,790.9c0.8-0.5,2.1-1.5,3-0.5
			c-0.5,0.9-1.7,1.4-3,1.4c-1.3,2.3-4.5,6.1-8.2,7.5C731.8,796.8,734.5,792.6,737.7,790.9z M730.3,804.8c-2.4,0.6,2.5-3.5,0-0.5
			C730.3,804.3,730.3,804.8,730.3,804.8z M737.1,947.1c-0.4,0.2-0.6,0.9-0.6,1.5c-4.6,1.3-7.5,4.8-13.2,5.4
			C727.8,951.6,731.9,948.7,737.1,947.1z M720.3,955.4c0.7,0,1.3,0,2,0c-0.3,0.5-0.9,0.6-1,1.6c-0.2-0.3-0.3-0.7-0.9-0.7
			C720.3,955.9,720.3,955.7,720.3,955.4z M715.6,958c1.4,0.9-2.3,2-2.1,3.7c-1.3,0.1-0.7-1.1-2.4-0.5C711.7,959,714.2,959,715.6,958
			z M697.7,822.5C695.9,821.2,700.3,821.3,697.7,822.5L697.7,822.5z M693,823.9c-0.1,1.3-1.3,1.2-2.5,1.2
			C690.6,823.8,691.7,823.9,693,823.9z M687.9,826.5c-1.3,3.7-7.1,3-10.2,5.3C678.7,829.5,684.4,827.8,687.9,826.5z M683.7,837.8
			c2.1,0.2,2.1-1.3,4.2-1c0.3-0.5,0.8-1.4,0-1.5c1.4-0.9,3.2-1.1,5.1-1.5c1-0.8,1.3-2.2,2.1-2.9c6.9-2.6,10.9-7.7,18.4-9.4
			c-0.3,2-2.6,2.1-4.1,3.6c-0.7,0.7-1.1,2.1-2,2.9c-2.5,2-5.8,2.3-8.8,3.8c-2.4,1.2-3.9,3.6-6.1,5c-1.3,0.8-3.1,0.8-4.6,1.3
			c-1.3,0.7-2.5,2.2-3.6,2.7c-2.6,1-6.4,1-8.3,2.9c-0.8,0.1-0.8-0.5-1.5-0.5C676.7,840.4,682.3,841,683.7,837.8z M710,950.2
			c-5.7,4.5-14.8,6-20.5,10.4c-1.3,0.6-3.1-0.7-3.1,0c-1.2-1.2,2.2-2.3,3.5-2.6c1.2-1.1,3-0.9,4.7-1.8
			C699.8,953.6,704.5,949.6,710,950.2z M670,846.7c-2.8,3.3-8.7,3.6-13.5,5C659.3,848.4,665.3,848,670,846.7z M658.9,875.3
			c-0.3,1.8-3.2,1.6-5.1,1.7C654.4,876.1,656.7,875.6,658.9,875.3z M625.1,859.3c1.8-0.5,2.7-0.6,3.4-0.7c2.2-0.6-1.3,1-4.1,1.4
			C624.3,859.4,624.5,859.4,625.1,859.3z M588.5,868.8c0.5-0.5,0.7-0.5,0.6-0.4c1.7-0.7,4.4-0.5,7.1-1c2.4-0.6,2.7-1.1,6.3-1.6
			c7-0.9,14.1-5.4,19.8-5.4c-2.4,3.2-8.2,3-10.3,6.3c3.6-1.1,8.7-1.2,10.9-3.8c8.7,0.5,11.9-5.7,21.5-6.4c2.2-1.7,5.3-2.2,7.8-3.9
			c0.5,0.5,1.8,0.4,3.1,0.3c-7.4,4.9-19.7,7.3-29.9,11.1c-6.4,2.1-11.2,4.7-18.4,4.7c-1.9,0-3.2-1-4.5-1c-0.6,0-0.3,2.3-1.1,0
			c-0.8,0.2-0.5,1.4-0.5,2.1c-5.3-0.5-8.2,0.6-12.7,0.9c-0.6,0.1,1-1.7,1.1-2.4C589,868.6,588.7,868.6,588.5,868.8z M621.3,976.7
			c-7.5,4.4-19.3,4.9-29.8,6.6C600.2,979.8,611.7,979.1,621.3,976.7z M530,962.3c-0.2,1.4-2.5,0-3.5,0.5
			C526.5,962.1,529,962.8,530,962.3z M512.7,962.8c-0.2,1.6-2.3,1.5-4,1.4C508.4,962.2,511.4,963.2,512.7,962.8z M452.1,967.4
			c6.9-2.4,14.3,1.8,22.2,1.7c1.7,0.3-1.5,0.3-2.2,0.3c-7.4,0.5-18.9-0.2-28.7-1.4C446.3,967.1,450.3,966.1,452.1,967.4z M458.7,992
			c-4.5,1.2-14-1.9-21-1.6C443.7,988.7,451.9,991.5,458.7,992z M438.9,940c2.6,0.3,6.5-0.5,7.6,1.7c-2.7-0.5-6.2-1-9.7-1.4
			c-1.8-0.2-5.1,0.6-5.7-1.4C433.5,937.4,436,939.6,438.9,940z M437.8,962.8c-0.1,1.7-4.3-1.4-3.6,1.8c-4.3-0.1-12-0.7-14.3-4.4
			C425.8,958.9,432.5,961.7,437.8,962.8z M391.3,952.3c3.7,0.8,7.3,0.5,11.1,1.3c0.5,0,1.2,0.5,2.6,0.9c3.5,1.4,6.9,3.4,12.3,3.6
			c-7.6,2.3-17.4-0.8-24.1-4.7c-3.1,0.1-5.1-0.6-6.8-2c-4,0.5-6.2-0.9-8.5-2.3C382.6,948.5,386.8,951.3,391.3,952.3z M434.8,1009.7
			c-8.5,0.8-18-1.8-26.2-2.9C417.7,1005.3,426.1,1008.9,434.8,1009.7z M405,961.7c-1.6,0.6-5.5,0-6.1-1.4
			C401,960.3,402.9,961.4,405,961.7z M381.5,924.6c-1.6,1.6-3.9-1-5.7-1C377.2,922.5,379.7,924.3,381.5,924.6z M286.6,791.4
			c-2.3,0.1-5.2-4-7.2-5.9C282.4,785.2,284.5,789.4,286.6,791.4z M280.9,925.6c-2.5,0.7-4.1-3.8-7.5-3.8c0.4-2.2-0.7-2.3-2.5-2.3
			C273.2,917.9,278,924.6,280.9,925.6z M261.8,912.1c-0.6-0.1-0.7-0.5-1.2-0.7C260.7,910.2,262.5,911.3,261.8,912.1z M283,936.4
			c1.8-1.4,4.1,0.7,4.6,2.2C285.4,938.5,284.8,936.9,283,936.4z M324.5,957.5c-2.3-2.5-5.9-4-10.2-4.2c-0.2-0.6-0.9-1.4-1.1-2
			c-7.2-2.8-14.3-5.8-18.9-10.9c-1.1,0.4-2.2-1.5-2.5-0.3c-3.5-3.1-9-8.5-11.7-6.7c-8.8-5.8-16.9-12.4-24.2-19.2
			c1.5-1.9,2.9,0.9,4.2,2c11.7,6.8,23.6,14.1,35.3,21c1.4-0.2,2.4,0.5,3.4,0.8c1.1,1,1.7,1.8,2.6,2.5c2.3-0.2,3,0.7,5.3,0.4
			c-0.6,0.7-2.2,0.5-3.3,1c3.7,3.7,8.6,6.4,12.1,9.9c1.7,0.5,1.7-0.6,3.4-0.4c2.2,2.8,5.7,4.6,10.1,5.7c3.1,2.6,7.5,4.1,10.8,6.7
			C334.5,964,330.8,958.1,324.5,957.5z M345,966.5c0.5-1.7,2.2-0.4,3.1,0C347.5,968.1,346.5,965.7,345,966.5z M365,1000.3
			c-1.7-1.3-3.5-2.1-5.5-3.1c0.7-0.5,3.5,1.1,5.5,1.1C365,998.8,365,999.7,365,1000.3z M352.3,943.2c-0.7-0.4-0.7-1.9-1.2-2.5
			c-3.2-0.6-6.6-1.6-8.7-4c3.3,0.6,9.5,3.2,12.5,5.7c5.2,1.8,9.7,1.4,12.7,5.4c0.9,0,1.6,0,1.6-0.5c4.3,2.3,9,4.7,14.8,5.9
			c-2.1,1.4-7.5-1.1-11.2-1.1c-0.3-0.9,0.2-0.9,1.1-1c-0.9-2.3-2.8,0-4.2,0c0-0.5,0.2-0.5,0.4-0.5
			C363.9,950.4,358.5,945,352.3,943.2z M381,1003.5c-3.7-0.9-11.6-0.3-10.8-4.1C372.7,1001.3,378,999.9,381,1003.5z M367.6,1004.9
			c1.6-2.5,5.8-0.3,8.9,0c2.6,0.4,6.3,0.7,8.6,2.5C379.7,1008.2,373.3,1005.6,367.6,1004.9z M433.2,1014.6
			c-5.6,2.2-13.7,1.9-19.5-2.3c-12.9-0.1-21.3-5.2-32.3-8.3c3.5-0.6,6.4,1.3,9.8,2.7c8.8,2.7,20.1,3.7,29.1,6.1
			c7.2-0.8,13.4,2.3,19.5,1.5C438.3,1017.5,436,1015.2,433.2,1014.6z M442.4,1015.2c-1,0.2-1.3-0.6-2-0.6
			C440.3,1013.9,443.3,1013.9,442.4,1015.2z M465,1021.6C466,1019.5,468.3,1022.1,465,1021.6L465,1021.6z M486.4,1013.3
			C487.8,1012.1,488.5,1015.1,486.4,1013.3L486.4,1013.3z M509,1019.5c11.6-1.9,20.8-1.9,33.4-3.7C532.7,1020.6,522,1019,509,1019.5
			z M569.1,1014.6c0.7-1.3,2.9-1.3,5.1-1.3C572.6,1014,570.9,1014.4,569.1,1014.6z M575.2,1014.3c-1.6-0.7,0.9-2.1,1.4-1
			C576.6,1013.9,575.2,1013.4,575.2,1014.3z M620.8,1004.2c1.1-1.7,4.7-1.4,7.7-1.6C626.8,1004,624.3,1004.6,620.8,1004.2z
			 M628.9,1002.6c0.1-1,2.2-0.3,3.1-0.4C632,1003.2,629.8,1002.4,628.9,1002.6z M657.2,1000.9c0.9-0.8,3.2-1.7,4-1.1
			C661.1,1001.8,658.9,1000.9,657.2,1000.9z M733,957.5c-4.5,1.2-8.8,4.6-12.1,7.1c-5.6,1.2-11.9,3.6-17.7,5.9
			c-1.2,0.4-2.4,1.4-3.6,1.7c-3.2,1.4-8,0-8.6,4.5c-0.2,1.5,1.7,0.3,2.4,0.4c-11.8,7.5-26.1,9.8-39.7,14.1c-1.5,0-2.8,0-3.1-0.8
			c-1.3,0.2,0.5,1.9-0.6,2.2c-8,0-15.5,3.5-23.8,5.1c-8.1,1.1-16.7,2-24.9,4.1c-7.6,1.5-15.7,1.8-22.6,3.9c-2.4,0.6-9.5,2.7-12.3,0
			c-1,0-0.9,1.3-1.4,1.8c-10.9,1.9-20.3,2.2-31.4,3.2c1.3-0.6,2.1-1.3,2.1-2.3c-1.4-0.9-2.7,0.4-3.6,2c-3,0-5,0-6.7,0.2
			c-8.2,2.2-23.2,1.7-33.7,3c-1.8-0.5-2.7-1.7-4.3-3c-1.3,1.2-3,1.5-5,1.7c0.3,0.5,0.6,0.9,1.1,1c-0.1,1.1-1.5-0.5-1.6-1
			c-1.9,2.8-5.5,1-10.3,1.4c1.7-1.1,4.4-0.3,5.8-0.9c-0.9-3.1-6-0.9-10.3-1.1c-4.4,0-10.8-1.3-15.5-2.4c0.2-1,2.3,0,2.1-1.4
			c-5.1-1.1-10,0.8-17.5-0.9c-1.6-0.4-3.2-1.8-5.1-2.2c-1.7-0.3-3,0.7-4.7,0c-2.6-0.8-7.6-1.5-11.7-2.3c7.7,0,16.5,0.9,26.7,2.3
			c5.3,0.7,11.7-0.1,14.3,3.1c0.5-1.3,4-0.3,5,0.4c6-1.8,12.3,1,18.7,1c4.1,0,10.2-0.4,14.9,0c0.9,0,0.6,1,0.9,1.1
			c3.2,1,8.6-1.5,12.2,0c0.5-0.3,1.1-0.8,1.6-0.8c-0.2-0.8,1.5-1.4-0.3-1.3c4.4-1,8.8-1.4,13.7-0.9c0-0.3-0.7-0.2-1.1-0.3
			c0.6-1.5,2.4,0.1,3,0.3c1.4,0,1.4-0.9,2.1-1.5c0.4,0.6,1.3,0.3,1.5,1.2c2.8-2.9,7.6-1.4,11.4-1.5c3.9-0.4,8.1-2.4,13.4-1.6
			c3,0.9,3.4,2.2,6.6,0.9c0.1-1.4-1.7-1-2.6-1.4c3.2-0.3,8.9-2.7,13.8-3.7c1.9-0.2,4.4,0.3,6.6,0c1.6-0.2,3.2-1.2,4.6-1.3
			c2-0.2,3.5,0.2,5.1,0c1.9-0.3,3.3-1.2,5.2-1.4c2.5-0.1,5.1,1.2,7.8,0.5c1.7-0.1-0.1-1.6,1-1.7c4.1,0.3,8.2-1.1,15.8-1.7
			c3.2-0.5,6.3-2.6,9.7-3c0.9-0.5,1,0.8,1.7,0.8c5,0,8.9-3.3,14.8-3.9c1.7,0.5,2.1,1.7,3,1.5c1.5-0.4-0.5-1.1,0.5-1.8
			c5.2,0,7.8-2.4,12.5-2.8c-1.8,2.6,0.8-0.2,1.9-0.7c2-1.1,5.6-1.6,8.7-3.2c5.3-2.3,9.2-5.2,16.4-5.7c2-0.2,0.2,0.3,0.5,1.2
			c1.6-0.8,2.2-1.7,3.1-2.7c4.6-1.1,8.5-4,11.9-4.8c1.2-1.7-1.7-1.6-1.7-3.3c3.7-0.4,5-3.1,8.7-3.5c-1.4,2.4-4.7,2.7-6.6,4.6
			c5.9,0,10.4-4.8,15.4-7.2c2.3-1.5,5.3-1.4,6.4-3.5c2.2,0.2,4.2,1,6.6-0.4c1.5-0.2,0.9,1.4,1.7,1.4c0.6-0.6,0.7-1.9,1.8-2.9
			c4.3-1,7.4-3.4,12.5-5.8c1.8-2.6,5.3-2.9,7.9-4.3c1-0.5,1.6-3.1,3.5-1.9c-0.3-2.4,1.3-3.2,1.5-5.4c3-0.2,5-2.3,7.7-2.6
			c0.7-0.1,1,0.6,1.8,0.5c2.9-0.7,4.9-3.7,8.1-3.4c-0.6,0.8-2.8,0.3-2.2,2.5c-6.7,2.9-13.5,6.4-17.8,12c-4.4,1.1-7.1,4.8-11.1,6.2
			c-0.4,0.4-1.2-0.4-2,0C739.9,954,738,956.2,733,957.5z M739.1,971c-1.2-1.1,1.8-1.9,3.4-2.6C743.4,968.1,739.6,970.1,739.1,971z
			 M743.2,967.4c0.7-1.3,2.6-1.3,4.2-2.1C746.4,966.5,745.5,967.6,743.2,967.4z M794.4,939C796,936.1,797.5,937.4,794.4,939
			L794.4,939z M794.4,930.2c-3.2,1.6-6.2,2.3-9.2,4.3c-2.6,1.7-4.4,4.3-7.1,5.9c-2.3,1.4-5.1,2.6-7.7,4c-2.5,1.1-4.8,2.8-7,3.8
			c-2.3,1.1-4.5,3.2-6.7,4.7c-2.9,1.3-6.6,1.8-8.9,4.4c-0.4,0-0.8-0.1-0.9-0.4c0.5-1.9,1.1-3.2,3.4-2.9c6.4-4.7,13.3-8.5,20.8-11.6
			c1-2,3.5-2.4,4.5-4.6c5.3-0.5,7.7-4.8,11.5-7.3c2.1-1.8,5.3-2.7,7.4-4.1c2.2-1.5,4.1-3.6,6.4-4.7c1.8-1.8,4.5-3.6,7.5-3.4
			c-0.8,3.4-4.1,3.8-6.6,5.1C799.2,925.1,797.4,928.5,794.4,930.2z M797,936.8c1.2-0.6,1.9-1.8,3.9-1.8
			C800.3,936.2,798.7,936.6,797,936.8z M801.7,934.4c1.1-2.5,6-5.7,10.2-6.9C809,930.4,805.6,932.5,801.7,934.4z M817,903.8
			c-0.7-0.2,0.2-0.6-0.5-1.9c-1.3,0.6-2.9,0.3-2.6,3c-2.5-0.3-1.5,2.8-4,2.6c-0.9-0.9,0.3-1.9,0-3.7c2.9-0.7,3.1-3.6,6.6-4.7
			c1.6-0.7,0.6-3.6,3.1-3.5c0-0.6-0.4-0.5-1-0.6c0.8-1.6,2.7-1.8,2.7-3.9c5.6-0.2,6.2-5.4,12.7-5.2c0.3-0.7-1-0.8-1-0.2
			c-1.2-0.6,2.4-2.5,3.1-1.5C829.6,890.7,823.3,897.1,817,903.8z M825.9,905.3c-0.2-2.3,4.3-4.9,7-6.2
			C831.4,901.5,827.8,903.1,825.9,905.3z M832.4,897.3c-0.2-3.6,3.6-5.4,6.2-3.6C837.4,895.8,835,898.6,832.4,897.3z M871.9,871.8
			c-1.5-1.3,1.7-3.6,3.2-5c1.7-1.5,3.6-3.6,5.6-3.8C877.9,865.9,874.8,868.8,871.9,871.8z M885.8,861.3c-0.8-0.3-0.4-1.3,0.5-2.5
			C887,859.4,886.6,860.5,885.8,861.3z M893,854.4c-1.9-1,0.9-1.8,1.4-2.3C895.8,852.7,893,853.5,893,854.4z M892.5,846.2
			c0.9,0.3,0.1,0.8,0,1.3C891.5,847.2,892.4,846.8,892.5,846.2z M896.5,851c-1.5-0.8,0-3.1,1.5-2.9C897.6,849,897.3,850.3,896.5,851
			z M897.1,843.7c-1.4-0.5-0.9-1.5-0.6-2.7C897.6,841,896.7,842.9,897.1,843.7z M910.9,835.3c-3.3,1.3-3.4,5.7-7.1,6.9
			c-1.4-2,2.4-3,3.7-4.4c1-1.6,1.1-4.2,2.4-6c1-1.1,3.7-0.8,3.7-3C915.5,830.3,910.9,832.7,910.9,835.3z M923.7,821.5
			c-0.8,0.1-0.8-0.5-1.6-0.5c0.8-0.8,0.8-2.4,2.6-2.4C924.2,819.2,923.9,820.3,923.7,821.5z M983.6,692.8c0.4-0.9,0.8-1.6,1.1-2
			C985.3,690.5,985,693.3,983.6,692.8z M992.7,657.5c0.8,13.6-4.8,23.3-9.7,32.8c2.2,4.2-2.6,9.7-5.1,14.6c-0.2,2,1.9,1.3,1.7,2.9
			c-1.2,2.5-4.7,5.4-5.3,9.2c-0.1,0.4,0.9,0.8,0.6,1.3c-0.8,3-3.9,7.8-4.5,11.1c-1,3.7-1.3,7-2.7,10.1c-0.9,2.1-1.3,5.2-3,6.2
			c-4.2,13.2-9.2,25.9-17.4,35.3c0,1.2,0,2.5,0,3.6c-5.5,10.3-11.8,20.2-18.5,29.6c-0.7-0.5,0.2-0.8-0.5-2
			c-3.1,5.3-10.6,6.3-12.8,12.3c-5.5,2.4-9.6,7.1-11.7,10.9c-2.3-0.9,0.5-1.1,0-3.1c3.4-1.3,4.6-3.4,5.5-7.9
			c1.3,0.2,2.1-0.1,2.1-0.9c-1.8-0.1-1.6-1.2-0.6-3c-0.8-2.1-1.2,0.8-3.4,0c-1.1-0.9,0.3-1.4,0-3c-8.9,3.3-5.5,14.5-10.3,19.8
			c0.5,1.6,0.8,0.7,1.9,1.5c0.3,0.9-2.5,1.8-1.9,0c-1.3,0.4-3.3,1.9-4.7,0.9c-1.8,0.7,0,1.3-1,2.9c-1.7,0.8-1.8-0.3-3.2,0.6
			c0.2,0.6,1.3,0.4,2.1,0.5c0.5,2-1.2,1.5-1,3c-4.8-0.2-7.9,3.8-8.8,8.9c-7.1,3.1-8.7,11.3-15.8,14.3c-2,2.8-4,5.4-7.8,6.4
			c-0.8-0.4-1-1.7-2-2.1c-4.5,1.9-5.7,6.4-9.2,9c1.5,2.6-1.6,3.8-2.1,5.9c-1.7-2.7-3.4,1-5.7,1c1-1.5,2.7-2.6,3.7-4.2
			c-0.2-5.3,5.8-5.2,6.6-10c3.7,2.2,2.6-4,5.5-4c0.5-1-1.3-2.2-1.6-1c-0.8-0.7,1.7-2.5,3.1-2.6c-0.4,0.6-0.8,1.5,0,1.7
			c1.5-0.6-0.4-1.7,0-2.5c1.6-0.6,2.3-2.3,3.5-0.6c0.5-1.2-0.5-1.1-0.3-2.5c2-0.1,2.4-1.7,3.5-3c0.8,0.7-0.6,0.9,1.5,0.6
			c7.8-8,13.9-17.7,23.1-24.2c1.3-3.5,3.5-6.1,7.2-7.3c-0.3-1.2,0.5-3.3-0.7-3.6c3.5-3.1,4.6-8.5,9.8-10.1c0.5-2.1,2.7-2.5,2.6-5.1
			c1.1,0.1,0.7,1.6,2.5,1.3c0.4,1.6-1.4,1.1-0.9,2.7c3.2-1.7,6.7-3,5.5-8.1c4.1-2.1,5.2-6.7,9.1-9c-1.2-1.5-3.1-1.1-4.5-1.8
			c-1.6,2.7-2.3,6.1-6.2,6.3c-0.4,2.9-2.9,4.2-4,6.5c0-3,2.9-6.3,5-9.4c2.4-3.4,5.6-8.2,8.2-11.8c0.5-0.5,1.2-0.5,2.1-0.5
			c3.6-5.1,6.5-10.9,10.2-15.7c0-6.4,4.3-8.8,5.1-14.3c2.6,0.9,1.1,5.8,1.6,9.3c-3.6,3.8-5.3,9.6-8.8,13.7c1,6.2-5.8,10.4-5.5,15.8
			c0.9,0.7,2.5-2.3,2.5-4.1c2.6-2.8,4.5-6.3,5.6-10.7c1-0.4,1.6-1.5,3.1-1.5c0.2-4.4,2.8-8.6,5.7-11.8c-2.1-4.1,3.4-5.4,4.4-8.4
			c-0.2-0.5-2.3,1.4-3.6,1.4c-1.9-0.6-0.3-4.3-3.5-3.7c3.4-4.1,2.1-12.2,7.1-14.4c-0.9-1.9,1.2-2.7,1.7-4.5c0.1-1.4-0.5-2.7,0-4.1
			c0.2-1.1,1.9-2.6,2.5-4.3c0.2-0.5-0.5-1.8,0-2.6c1.9-3.9,4.8-6.6,6.6-10.3c0.9-1.8,0.9-4.1,2.5-5.9c2.6,1.3-0.1,4.3,1.6,5.1
			c0.1,0.8,2-0.8,1.5-2.1c1.2,0.2,0.2,2.5,0.5,3.4c-3.5,1.5-1.3,7-1.1,7.8c0.1,2.1-0.8,0-1.2,0c0.2,2.6-1.5,9-5,8.1
			c1.6-3.1-0.2-3-0.5-6.1c-1.6,0.1-0.7,2.6-0.9,4.3c-2.2,0.2-2.2,3.1-1.6,5.1c-0.6,1.6-3.1,1.6-2.1,4.6c2.2-0.5,0-1.8,2.5-2.1
			c1.4,3.6-2.3,7.4,2,9.1c0,2.8,0.3,5.6,1.3,7.6c2.9-3.5,1.6-10.8,3.4-15.5c1,0,1.3,0,2,0c1.8-4.2,2.7-6,3.2-10.5
			c0.5-0.4,0.6-0.4,1.3-0.4c1.7-6.7,3.6-16.1,7.2-22.5c-0.7-2.9,2-9,3.2-13.1c0.6-2.6,2.2-6.2,2.9-9.3c0.5-1.5,0-3.2,0.6-4.5
			c0.6-1.2,0.9-1.5,1.1-2.4c0.3-2.5,2.5-4.9,3-7c0.8-3.1,0.6-6.6,1.7-9.7c2-7.8,3.9-15.9,7.1-23.8c1.6,1.1,3.5,1.6,3.5,3.9
			C995.1,645.6,996.5,653.9,992.7,657.5z M902.2,825.8c-0.3-0.7,1.6-3.9,3.7-4.3C905.2,823.5,903.8,825,902.2,825.8z M995.9,626.5
			c-1.1-3.2-0.9-10.3,1.5-12.3C996.3,619,996.8,623.8,995.9,626.5z"/>
	</g>
</g>
</svg>
