<?xml version="1.0" encoding="utf-8"?>
<!-- Generator: Adobe Illustrator 22.0.1, SVG Export Plug-In . SVG Version: 6.00 Build 0)  -->
<svg version="1.1" id="Layer_1" xmlns="http://www.w3.org/2000/svg" xmlns:xlink="http://www.w3.org/1999/xlink" x="0px" y="0px"
	 viewBox="0 0 779.4 91.7" style="enable-background:new 0 0 779.4 91.7;" xml:space="preserve">
<style type="text/css">
	.st0{fill:#B0966D;}
	.st1{fill:#FFFFFF;}
</style>
<g>
	<g>
		<g>
			<g>
				<g>
					<path class="st0" d="M421,45.8c0-1-0.2-2-0.2-2.9c-0.3-0.4-0.4-1.6-0.5-2.4c0-0.4,0.1-0.7,0.1-1c0.1-1.4-0.5-2.4-0.6-3.6
						c-0.1-0.8-0.3-1.8-0.4-2.7c-0.1-0.1-0.2-0.1-0.2-0.3c0-0.4-0.2-0.9-0.3-1.3c0-0.1,0-0.2,0-0.3c-0.1-0.4-0.3-0.7-0.4-1.1
						c-0.4-1.2-0.7-2.6-1.1-3.7c-0.9-2.4-2.2-4.6-3.5-6.5c0.1-0.1-0.1-0.2-0.1-0.3c-0.2,0-0.6-0.7-0.6-0.8c0,0,0.3,0,0.2-0.1
						c0.2,0.2,0.3,0.5,0.5,0.7c0.4,1,1.1,1.7,1.5,2.6c0.1,0,0.2,0,0.2,0.1c-0.1,0-0.1,0-0.1,0.1c0.3,0.4,0.5,1,0.8,1.4
						c0.2-0.2,0-0.3-0.1-0.6c-0.1-0.1-0.1-0.3-0.2-0.4c-0.1-0.2-0.4-0.5-0.1-0.3c-0.2-0.5-0.5-0.9-0.7-1.3c-0.1-0.1,0.1-0.2-0.1-0.3
						c0,0.1,0,0.1-0.1,0.1c-0.4-0.7-0.8-1.5-1.4-2.1c0-0.1,0-0.1,0-0.2c-0.9-1.4-1.9-2.6-2.7-4c-0.2-0.1-0.3-0.3-0.5-0.5
						c0-0.3-0.2-0.5-0.4-0.5c0.1,0.1,0.2,0.3,0.2,0.4c-0.3-0.3-0.5-0.7-0.9-0.9c-0.7-1.1-1.8-1.8-2.6-2.9c-0.1,0,0,0.1-0.2,0.1
						c-0.9-0.9-1.8-1.8-2.8-2.6c-0.2,0-0.2-0.1-0.4-0.1c0-0.3-0.3-0.4-0.5-0.4c0-0.1-0.2-0.1-0.2-0.4c-0.1,0-0.3-0.1-0.4-0.2
						c-0.1,0-0.3-0.2-0.3-0.3c-0.1,0-0.1,0-0.2,0c0,0-0.1-0.1-0.1-0.1c-0.1,0-0.2-0.1-0.3-0.1c-0.2-0.1-0.3-0.3-0.5-0.2
						c0.5,0.6,1.5,0.8,2,1.5c0.5,0.2,0.7,0.6,1.1,0.8c0,0.1,0,0.2,0,0.2c0.3,0,0.2,0.3,0.5,0.3c0.1,0.3,0.5,0.5,0.7,0.7
						c0.3,0.3,0.6,0.6,0.9,0.8c0.3,0.3,0.6,0.6,0.9,0.8c0.2,0.2,0.4,0.2,0.5,0.4c0.2,0.2,0.4,0.6,0.6,0.7c0,0,0,0.1,0,0.2
						c0.6,0.3,0.9,1,1.4,1.3c0.1,0.2,0.3,0.2,0.4,0.4c0.7,0.9,1.4,1.7,2,2.6c0.1,0.4,0.6,0.7,0.5,1.1c0.3,0.3,0.5,0.7,0.6,1.2
						c-0.1,0-0.1-0.2-0.2-0.1c-0.5-0.9-1.1-1.6-1.7-2.4c0.1,0.1-0.1,0.1-0.1,0.2c0.3,0.5,0.7,1,1,1.5c0,0.1,0.1,0.1,0.1,0.2
						c0.6,0.7,0.9,1.6,1.6,2.2c-0.1,0.2,0.3,0.3,0.2,0.4c-0.2-0.2-0.4-0.4-0.6-0.5c-0.5,0-0.6-0.4-0.8-0.8c-0.7-1.2-1.4-2.3-2.2-3.4
						c-0.3-0.4-0.7-0.8-1-1.1c-0.2-0.3-0.4-0.6-0.5-0.8c-0.2-0.7-1-0.8-1.3-1.4c0.1-0.2-0.1-0.2,0-0.3c-0.2-0.3-0.5-0.4-0.6-0.8
						c-0.2,0-0.2-0.1-0.4,0c-0.1-0.1-0.3-0.1-0.3-0.4c-0.3-0.1-0.6-0.4-0.8-0.7c-0.6-0.3-0.9-0.9-1.4-1.2c-0.2-0.2-0.5-0.2-0.5-0.5
						c-0.5-0.2-1.1-0.6-1.3-1c0,0,0,0.1-0.1,0.1c-0.1-0.1-0.4-0.1-0.5-0.3c-0.7-0.2-1.1-0.7-1.8-1c0-0.1-0.1-0.1,0-0.1
						c-0.6-0.1-1.1-0.5-1.6-0.6c-0.2,0-0.5,0-0.5-0.2c0.2,0,0.4,0.2,0.5,0c-0.4-0.2-1-0.5-1.3-0.4c-0.1-0.1-0.3-0.1-0.6-0.1
						c-0.3-0.2-0.7-0.3-1-0.5c0.5,0.1,0.9,0.4,1.3,0.2c-0.6-0.2-1.3-0.9-1.9-0.6c-0.1-0.1-0.2-0.3-0.3-0.3c0,0.4-0.4,0.1-0.6,0.1
						c0.3,0.3,0.9,0.2,1.2,0.5c-0.1,0.1-0.3,0-0.3,0.1c0.6,0.5,1.7,0.3,2.2,0.7c-0.2,0-0.3,0-0.4,0.1c0.1,0.5,0.7,0.5,1,0.7
						c1.2,0.5,2.3,1.2,3.4,1.7c0,0.1,0.1,0.1,0.1,0.2c0.5,0.2,1,0.6,1.3,0.8c0.1,0,0.2,0,0.2,0.1c0.3,0.3,0.5,0.6,0.8,0.8
						c0.1,0.1,0.3,0.1,0.4,0.2c0.2,0.2,0.3,0.4,0.5,0.6c0.1,0.1,0.2,0.1,0.2,0.1c0.5,0.4,0.9,1,1.4,1.4c0,0,0,0.1,0,0.1
						c0.2,0.1,0.4,0.4,0.6,0.5c0.7,0.7,1.3,1.5,1.9,2.1c0.1,0.1,0.3,0.2,0.3,0.4c-0.4-0.2-0.5-0.6-0.9-0.9c-0.1,0-0.1,0.1-0.1,0.1
						c-0.4-0.4-1-0.7-1.3-1.2c0.1,0,0.2,0.2,0.2,0c-0.2,0-0.1-0.1-0.1-0.2c-0.3-0.3-1-0.5-0.9-1c-0.9-0.3-1.4-0.9-2.1-1.5
						c0-0.1,0.1-0.1,0-0.2c-0.6-0.2-0.9-0.8-1.5-1c-0.3-0.4-1-0.5-1.3-1c-0.1,0-0.2-0.1-0.3-0.1c-0.2-0.2-0.5-0.4-0.8-0.5
						c-0.5-0.4-1.1-0.8-1.7-1.1c0,0,0-0.1-0.1-0.1c-0.2,0-0.4-0.1-0.5-0.3c-1-0.2-1.4-0.9-2.2-1.1c0-0.1-0.2-0.2-0.2-0.2
						c-0.3,0-0.5-0.1-0.6-0.3c-0.4-0.1-0.9-0.3-1.4-0.5c0-0.3-0.1-0.5-0.4-0.5c-0.1-0.1-0.1,0.1-0.2,0.1c-0.4-0.3-0.9-0.5-1.5-0.4
						c0,0-0.1-0.1-0.1-0.2c-0.7-0.1-1.3-0.2-1.7-0.7c-0.4,0.1-0.9,0-1.2,0.2c-0.3,0-0.6-0.3-0.6-0.2c-0.7-0.4-2.1-0.4-2.9-0.8
						c-0.6,0-1.3-0.2-1.8-0.6c-0.1,0.1-0.4,0-0.4,0.2c0.2,0,0.2-0.1,0.3-0.1c0.1,0.1,0.1,0.2,0.2,0.3c0-0.2,0.3,0,0.4-0.1
						c0,0.1-0.1,0.1,0,0.2c0.5,0.1,1.2,0.4,1.7,0.6c0,0-0.2,0-0.1,0.2c0.6,0,0.9,0.1,1.3,0.4c-0.1,0-0.1,0.1,0,0.1
						c0-0.2,0.5,0,0.7,0.1c0,0.1-0.3,0-0.3,0.2c0.3,0.1,0.5,0,0.8-0.1c0,0.1-0.2,0.2-0.1,0.3c0-0.1,0.3,0.1,0.3-0.1
						c-0.1,0-0.3,0-0.2-0.2c0.2-0.1,0.5,0.1,0.7,0.2c0.4,0,0.8,0.1,0.8,0.3c-0.2-0.2-0.2,0.1-0.1,0.1c-0.1,0.1-0.3-0.2-0.5,0
						c0.1,0,0.2,0.1,0.1,0.1c-0.3,0-0.6-0.2-0.6-0.4c0,0.1,0.2,0.3,0.3,0.2c-0.2-0.1-0.4-0.6-0.6-0.2c0.1,0.2,0.3,0.3,0.5,0.4
						c0.1,0.2,0.4,0.3,0.4,0.5c-0.1,0.1-0.3,0-0.4-0.1c0.1,0,0.3,0.2,0.2,0c-0.1-0.2-0.5-0.3-0.7-0.1c0.2,0,0.4,0.1,0.3,0.3
						c-0.5-0.1-0.9-0.3-1.3-0.5c-0.1,0,0,0.1-0.1,0.1c-0.3-0.2-0.7-0.3-1.1-0.4c-0.1,0.1-0.1,0.1-0.1,0.1c-0.6-0.3-0.6-0.7-1-1.1
						c0.1,0,0.1-0.2,0-0.1c0,0,0,0.1,0,0c-0.3-0.2-0.5-1-0.9-0.8c0,0,0.2,0.3,0.2,0.4c0.1,0.2,0.3,0.3,0.3,0.5
						c0,0.2-0.1,0.2-0.1,0.3c0.2,0,0.2,0.1,0.6,0.1c0,0.2,0.2,0.2,0.3,0.3c0,0,0,0.1,0,0.2c0.1,0.1,0.2,0.1,0.2,0.3
						c-0.1-0.2-0.3-0.3-0.5-0.4c0.1-0.2-0.1-0.2-0.2-0.3c0,0.2-0.2,0.3-0.3,0.3c0.1,0.1,0.2,0,0.3,0.2c-0.4,0.2-0.7-0.2-1.2-0.2
						c0,0-0.1,0,0-0.1c-0.7-0.2-1.4-0.3-2-0.5c-0.3,0.1-0.6-0.1-0.7,0.3c0.3,0,0.4,0.1,0.7,0.1c0.3,0.3,1,0.3,1.3,0.5
						c0.5,0,0.8,0.2,1,0.3c0.2,0,0.4-0.1,0.4,0.2c-0.2-0.2-0.7,0.1-0.7-0.3c-0.2,0,0,0.2-0.2,0.1c-0.1,0,0-0.1,0-0.1
						c-0.2,0-0.6,0.1-0.9,0c-0.1-0.1,0.1-0.1,0.1-0.2c-0.2,0-0.2,0-0.4,0c0.1,0.3,0,0,0,0.2c-0.1,0-0.2-0.2-0.3,0
						c0.2,0.1-0.2-0.1-0.2,0.1c0.1,0.1,0.4,0,0.5,0.2c-0.5,0-0.7,0-1.1-0.1c0.2-0.1-0.1-0.1-0.1-0.3c0.1,0,0.1,0.1,0.3,0.1
						c-0.1-0.3-0.7-0.2-1-0.2c0.1,0.1,0.3,0.1,0.5,0.1c-0.2,0.2,0.2,0.1,0.1,0.2c-0.9-0.1-1.5-0.5-2.3-0.4c0,0.1,0.2,0.1,0.2,0.3
						c0-0.1,0.2,0,0.2-0.1c0.1,0.1,0.2,0.1,0.4,0.1c0.1,0,0.1,0.1,0.2,0.1c1.3,0.2,2.8,0.6,3.9,1.1c0,0.3,0.3,0.8,0.1,0.8
						c0.1,0.1,0.1-0.1,0.1,0c0.1,0.1-0.1,0.4-0.1,0.6c-0.4,0.2-1,0.6-1.6,0.5c-0.3,0-0.6-0.3-1-0.2c-0.1,0-0.1-0.1-0.2-0.2
						c-0.2,0.1-0.7,0.1-1,0.2c0.3,0.3,0.9,0.3,0.9,0.9c-0.1,0.1-0.6-0.1-0.6,0.2c0.1,0.1,0.4,0.1,0.4,0.3c-0.2,0.4-0.4,0.8-1,0.8
						c0,0.2-0.3,0.2-0.5,0.2c-0.2,0.3-0.6,0.6-0.9,0.9c-1,0-1.7-0.3-2.4-0.5c0.2,0.3,0.6,0.3,0.9,0.5c-0.1,0.1,0,0.1-0.1,0.2
						c0.2,0,0.4,0.1,0.3,0.3c0.4,0,0.9,0.1,1.5,0.1c0.8,0.6,2.3,0.7,3.4,0.8c0,0.3,0.4,0.2,0.6,0.4c-0.7,0.1-1.6-0.1-2.2-0.4
						c-0.1,0-0.1,0.1-0.3,0c0-0.1-0.3,0-0.3-0.2c-0.2,0.1-0.4-0.2-0.6,0c0.2,0.2,1.2,0.1,1.1,0.6c-0.4-0.1-0.8-0.3-1.3-0.4
						c-0.2,0-0.3,0-0.5,0c-0.1,0-0.2-0.1-0.3-0.1c-0.1,0-0.2,0-0.3,0c-0.3,0-0.6-0.2-0.9-0.1c0.5,0.2,1.1,0.2,1.4,0.4
						c0.9,0.1,1.7,0.3,2.4,0.6c-0.1,0.1-0.5,0.1-0.6,0.3c0.2,0.1,0.3,0,0.6,0c0,0.1,0.1,0.1,0,0.1c1.1,0,2.3,0.2,3.1,0.7
						c0.3,0,0.4,0.1,0.6,0.2c0.1,0.1,0.3,0,0.3,0.2c-0.2,0-0.2-0.1-0.5-0.1c-0.1,0,0,0.2-0.1,0.2c-0.2-0.1-0.4-0.2-0.7-0.2
						c0,0.2,0.3,0.1,0.3,0.3c0,0.2,0.3,0.3,0.4,0.4c-0.3,0-0.6-0.2-0.9-0.1c0,0,0.2,0,0.2,0.1c-0.6-0.2-1.6-0.1-2.2-0.5
						c0,0.2-0.2,0.2-0.2,0.4c0.4-0.1,0.6,0.2,0.5,0.3c-0.3,0-0.5-0.1-0.8-0.1c0.1,0.1,0.4,0.2,0.6,0.3c0.4,0.1,0.9,0.1,1.2,0.5
						c0.5,0.2,1,0.3,1.5,0.5c0.2,0,0.2,0.2,0.3,0.3c0.1,0,0.1,0.1,0.3,0.1c0,0,0,0.1,0.1,0.1c1.2,0.7,2.6,1.1,3.7,1.9
						c0.5,0,0.6,0.4,1.1,0.5c0.9,0.8,2,1.3,2.9,2c0,0.1,0.1,0.1,0.1,0.2c0,0.1-0.1,0-0.1,0c0.4,0.2,0.6,0.6,0.9,0.8
						c-0.1,0,0,0.2,0,0.3c0.1,0.2,0.4,0.3,0.5,0.5c0,0-0.1,0.1,0,0.2c0.1,0.1,0.2,0.1,0.3,0.2c0.4,0.4,0.7,0.9,1,1.4
						c0.2,0.2,0.4,0.3,0.3,0.7c0.2,0.2,0.4,0.4,0.6,0.6c0.1,0.1,0.2,0.3,0.2,0.4c0.1,0.1,0.2,0.1,0.3,0.2c-0.1,0.2,0.1,0.3,0.1,0.5
						c0.1,0,0.1,0.1,0.2,0.1c0,0.4,0.7,0.6,0.6,1.1c0-0.1-0.1-0.1-0.2-0.1c-0.1-0.1-0.2-0.4-0.4-0.3c0.1,0,0,0.2,0,0.3
						c0.3,0.2,0.5,0.7,0.8,0.7c-0.2-0.1-0.2-0.4-0.1-0.5c0.4,0.4,0.7,0.8,0.9,1.4c0.2,0.1,0.5,0.4,0.5,0.6c-0.2-0.1-0.3-0.2-0.4-0.4
						c-0.1,0.3,0.3,0.7,0.6,0.5c0.1,0.3,0.4,0.6,0.1,0.8c-0.5,0-0.5-0.4-0.8-0.6c0.3,0.7,0.9,1.2,1.3,1.9c-0.1,0.1-0.1,0.1-0.1,0.2
						c0.2,0.4,0.6,0.8,0.8,1.2c0.1,0.3,0.1,0.6,0.4,0.9c0.5,1.2,1.2,2.3,1.7,3.6c0.2,0.6,0.3,1.3,0.6,1.9c-0.1,0.1-0.1,0.4,0.1,0.5
						c0,0,0-0.1,0.1-0.1c0,0.2,0,0.3,0.2,0.5c0.1,0.6,0.3,1.2,0.4,1.8c0.2,0.9,0.5,1.7,0.2,2.7c-0.3,0-0.2-0.3-0.2-0.5
						c-0.1-0.4-0.2-0.9-0.2-1.4c-0.1-0.1-0.1-0.3-0.1-0.4c0.1,0,0.2,0,0.1-0.1c0.1-0.1-0.1-0.3-0.1-0.4c0-0.1,0-0.5-0.1-0.4
						c0.1,0.2,0.1,0.6,0.1,0.7c-0.1-0.3-0.2-0.7-0.3-0.9c-0.1-0.5-0.1-1.2-0.3-1.6c-0.1,0.2,0.2,0.4-0.1,0.4
						c-0.2-0.3-0.2-0.7-0.3-1.1c0-0.1-0.1-0.2-0.2-0.3c-0.4-1-0.6-2.2-1.1-3c-0.2-0.9-0.7-1.2-0.8-2.2c-0.2-0.2-0.4-0.5-0.5-0.7
						c-0.6-1.3-1.4-2.6-2.3-3.7c-0.1-0.2-0.2-0.3-0.4-0.4c0-0.1-0.1-0.1,0-0.2c-0.4-0.4-0.7-0.9-1.2-1.3c-0.5-0.8-1.3-1.5-1.9-2.1
						c-0.1-0.1-0.2-0.3-0.3-0.4c-0.1-0.1-0.3-0.1-0.4-0.2c-0.2-0.1-0.3-0.3-0.5-0.5c-0.1,0-0.2-0.1-0.3-0.2
						c-0.2-0.1-0.3-0.3-0.4-0.4c-0.1-0.1-0.3-0.1-0.5-0.2c-0.2-0.2-0.3-0.4-0.6-0.4c-0.4-0.4-1-0.7-1.5-1c-0.1-0.1-0.3-0.4-0.5-0.2
						c0.1,0.2,0.4,0.2,0.5,0.5c0.1,0,0.1,0.1,0.3,0.1c0.2,0.2,0.4,0.4,0.6,0.4c0.5,0.4,1,0.8,1.6,1.1c0.3,0.4,0.7,0.6,1.1,1
						c0.4,0.4,0.9,0.8,1.2,1.2c0,0.1,0.1,0.1,0.1,0.2c0.3,0.2,0.5,0.5,0.7,0.6c0,0.1,0.1,0.1,0.1,0.2c0.3,0.2,0.5,0.5,0.7,0.8
						c0.3,0.1,0.4,0.4,0.6,0.5c0.3,0.4,0.7,0.8,0.9,1.1c0,0,0,0.1,0,0.1c0.2,0.2,0.4,0.4,0.4,0.6c0.3,0.1,0.3,0.5,0.5,0.8
						c0.1,0.1,0.2,0.2,0.3,0.4c0.1,0.2,0.2,0.4,0.2,0.6c-0.3-0.3-0.6-0.8-0.8-1.1c-0.2-0.2-0.2-0.5-0.3-0.6
						c-0.1-0.1-0.4-0.4-0.5-0.3c0.7,1.1,1.5,2.2,2.3,3.5c0.3,0.5,0.6,1.1,0.9,1.7c0.4,0.8,0.8,1.7,1,2.5c0,0.2,0,0.2-0.1,0.2
						c0.2,0.2,0.4,0.6,0.3,1c0.1,0.2,0.2,0.4,0.2,0.7c0.2,0.2,0.2,0.6,0.2,0.8c0.1,0.3,0.2,0.6,0.2,0.9c0.1,0.4,0.2,0.6,0.2,0.9
						c0.1,0.3,0,0.5,0,0.6c0,0.2,0.1,0.4,0.1,0.6c0.3,1.9,0.4,4.1,0.3,6c0,0.4-0.1,0.9-0.1,1.3c0,0.3,0,0.5-0.1,0.8
						c0,0.1,0.1,0.2,0.1,0.3c0,0.1-0.1,0.2-0.1,0.3c0,0.1,0,0.3,0,0.4c0,0.3-0.1,0.5-0.2,0.8c0,0.2,0,0.5,0,0.7
						c-0.1,0.7-0.3,1.4-0.5,2.1c-0.5-0.1-0.5,0.6-0.6,1.1c0.2-0.1,0.1-0.4,0.3-0.6c0.1,0.9-0.7,1.5-0.2,2.2c0.1,0,0.1,0,0.2,0.1
						c0.1-0.1,0.2-0.2,0.3-0.2c0.3-1.4,0.7-2.7,1.1-4.1c0.1,0,0.1-0.1,0.2-0.1c0.2-2.1,0.6-4.2,0.6-6.2c0-0.4,0.1-0.7,0-1
						c0-0.3-0.2-0.6-0.1-0.9c0.3,0,0.4-0.4,0.6-0.5c0,0.4,0.2,0.6,0.2,0.9c0,0.2,0,0.5,0,0.8c0,0.1,0.1,0.2,0.1,0.3
						c0,0.1-0.1,0.3,0,0.4c0,0.2,0.2,0.3,0.2,0.6c0,0.3-0.1,0.6,0,0.8c0,0.2,0.1,0.3,0.2,0.5c0.2,0.9,0.1,2,0,3.2
						c-0.1,0-0.1,0-0.1-0.1c0,0.4,0,0.7-0.1,1c-0.1,0.4,0,0.7-0.1,1c0,0.1-0.1,0.2-0.1,0.3c-0.1,0.3-0.1,0.5-0.1,0.8
						c-0.1,0.4-0.2,0.7-0.4,1c-0.1,0.2-0.2,0.4-0.2,0.7c-0.1,0.2-0.2,0.4-0.3,0.7c-0.1,0.2,0,0.4-0.1,0.6c-0.2,0.4-0.5,1-0.7,1.6
						c-0.2,0.1-0.2,0.3-0.2,0.5c-0.1,0-0.1,0.2-0.2,0.2c0,0.3-0.2,0.5-0.3,0.7c-0.3,0.5-0.4,1-0.7,1.5c-0.2,0.4-0.4,0.8-0.6,1.1
						c0,0-0.1,0.1-0.1,0.1c-0.2,0.2-0.5,1.1-0.7,0.8c-0.9,1.8-2.2,3.4-3.7,4.3c0.8-0.9,1.6-1.7,2.3-2.7c0.2-0.7,0.8-1.1,1-1.8
						c0.2-0.1,0.3-0.5,0.5-0.6c0.1-0.2,0.1-0.4,0.2-0.5c0.1-0.1,0.1-0.2,0.2-0.3c0.3-0.5,0.8-1.1,0.8-1.6c-0.2,0.2-0.3,0.6-0.5,0.7
						c0-0.1,0-0.2-0.1-0.2c-0.2,0.4-0.5,0.7-0.6,1.2c-0.8,1.1-1.5,2.3-2.3,3.4c-0.1,0-0.2,0-0.2,0.1c-0.7,1.2-1.8,2-2.7,3
						c-0.3,0.3-0.6,0.6-0.9,0.8c-0.6,0.5-1.3,0.9-2.1,1.2c-0.1,0.1-0.2,0.2-0.3,0.2c-0.1,0-0.1,0-0.2,0c-0.1,0.1-0.2,0.2-0.3,0.3
						c-0.1,0.1-0.3,0.1-0.5,0.1c-0.2,0.1-0.3,0.4-0.6,0.3c-0.2,0.2-0.4,0.3-0.6,0.4c-0.3,0.2-0.5,0.2-0.8,0.3
						c-0.3,0.2-0.8,0.2-1.2,0.3c-0.4,0.1-0.6,0.4-1,0.5c-0.2,0.3-1.1,0.5-1.5,0.5c-0.1,0-0.3,0.3-0.4,0.2c0.1,0,0.1-0.1,0.1-0.1
						c-0.2,0-0.3,0.2-0.5,0.2c-0.4-0.1-0.6,0.1-0.9,0.2c-0.7,0.2-1.3,0.3-1.9,0.4c-1.5,0.3-3.4,0.5-4.9,0.7c-0.2,0-0.2-0.2-0.4-0.2
						c-1.4,0.1-2.7,0.2-4.2,0.1c-0.3,0-0.5-0.1-0.8-0.1c-1.1-0.1-2.1-0.3-3.1-0.5c-0.2,0-0.5-0.2-0.7-0.3c-0.3,0-0.6,0-0.9-0.1
						c0,0-0.1-0.1-0.1-0.1c-0.5-0.2-1.1-0.3-1.6-0.5c-0.1,0-0.1-0.1-0.2-0.2c-0.4-0.2-1-0.3-1.4-0.6c-0.4-0.3-0.7-0.7-1.4-0.7
						c-0.6-0.4-1.3-0.6-1.7-1c-0.1-0.2-0.3-0.3-0.4-0.4c0,0-0.1,0-0.2,0c-0.4-0.3-0.6-0.7-1.1-0.9c0-0.1-0.2-0.2-0.2-0.3
						c-0.3-0.1-0.5-0.3-0.7-0.5c-0.4-0.1-0.5-0.4-1-0.5c-0.3-0.4-0.8-0.6-1.1-1c0.4,0,0.6,0.6,1,0.4c-0.4-0.2-0.6-0.4-0.9-0.6
						c-0.2-0.1-0.4-0.2-0.5-0.4c-0.2-0.2-0.3-0.5-0.5-0.7c-0.3-0.3-0.8-0.4-0.9-0.9c-0.2-0.1-0.2-0.3-0.4-0.5
						c-0.2-0.2-0.4-0.4-0.6-0.6c-0.5-0.6-0.9-1.4-1.3-2c-0.2-0.3-0.3-0.7-0.5-1.1c0,0-0.1,0-0.1-0.1c-0.1-0.6-0.6-1.1-0.6-1.7
						c0.2,0.1,0.1,0.3,0.4,0.4c-0.4-1.2-1.1-2.2-1.4-3.5c0.2-0.3,0-0.6-0.1-0.9c-0.1-0.1-0.2,0-0.2,0c-0.2-0.8-0.5-1.5-0.7-2.2
						c-0.1-0.5-0.2-1-0.4-1.4c0-0.1,0-0.3-0.2-0.3c0,0,0.1,0.1,0,0.1c-0.1,0-0.1-0.3,0-0.3c-0.1-0.1-0.1-0.1-0.2-0.2
						c0.2-0.2-0.2-0.4,0-0.7c-0.2-0.5-0.5-1.3-0.6-1.9c0-0.2,0-0.4,0-0.6c-0.1-0.2-0.3-0.6-0.4-0.6c0.1,0.3-0.1,0.6,0,0.9
						c0,0.3,0.1,0.5,0.2,0.8c0,0.1,0,0.1,0,0.2c0,0.3,0.2,0.6,0.3,0.9c0,0-0.1,0.1,0,0.1c0,0.1,0.1,0.1,0.1,0.1c0,0.1,0,0.1,0,0.2
						c0,0.1,0.1,0.3,0.1,0.4c0,0.1-0.1,0.2-0.1,0.3c0,0.1,0.1,0.2,0.1,0.3c0.1,0.3,0.2,0.5,0.1,0.7c-0.2-0.2-0.1-0.6-0.5-0.7
						c-0.1,0.3,0.2,0.9,0.2,1.1c-0.1,0-0.1,0-0.1,0c-0.1-0.5-0.4-1-0.4-1.3c0,0,0.1,0,0.1-0.1c0.1-0.3,0.1-0.3,0.2-0.5
						c-0.2-0.7-0.3-1.2-0.2-1.9c-0.1-0.1-0.2-0.2-0.3-0.2c-0.1-0.3-0.1-0.8,0-1.1c0-0.1-0.2-0.2-0.2-0.4c0.1,0,0.1,0.2,0.2,0.3
						c0-0.5,0-0.9,0.1-1.3c0,0.1,0.2,0.2,0.2,0.3c0.1,0.2-0.1,0.5,0,0.7c0.1,0.1,0.2,0.3,0.4,0.3c-0.1-0.2-0.1-0.2,0-0.4
						c-0.1-0.3-0.1-0.6-0.2-1c-0.1,0-0.1,0-0.1,0c0.1,0,0-0.2,0.1-0.2c-0.2,0.1-0.2-0.2-0.1-0.2c0.1,0,0,0.2,0.2,0.1
						c0.1-0.2-0.2-0.2-0.2-0.4c0.2,0,0-0.3,0.2-0.3c-0.2-0.1,0-0.4-0.2-0.4c0-0.1,0.2-0.1,0.2-0.2c-0.1-0.3,0.2-1.2-0.2-1.2
						c0.1,0.2,0,0.1,0,0.1c-0.1,0.3,0.1,0.3-0.1,0.4c0-0.3,0.1-0.5,0-0.7c0.2,0,0.2,0,0.3,0c-0.1-0.2,0.1-0.2,0-0.4
						c-0.1,0.2-0.1-0.6,0.1-0.4c0-0.1-0.2,0-0.1-0.2c-0.1-0.2,0.2-0.5-0.1-0.5c0,0.2-0.2,0.4-0.3,0.4c0-0.2,0.1-0.3,0.1-0.5
						c0.1,0.1,0.1,0.1,0.2,0c0-0.5-0.1-1,0.1-1.3c0.2,0.6,0,1.2,0,1.8c0,0.1,0.1,0,0.1,0.1c0.1,0.6,0,1.1,0.1,1.6
						c0.2-0.1,0.3-0.3,0.5-0.3c-0.3-0.6,0.1-1.4-0.2-1.8c0.2-0.4,0.4-1,0.1-1.5c-0.1-0.6,0.3-0.9,0.1-1.6c0.2-0.4,0.1-1,0.3-1.5
						c0.1-0.1,0.2,0,0.3-0.1c0-0.3,0-0.4-0.1-0.7c0.2-0.2,0.3-0.4,0.5-0.6c-0.1-0.7,0.3-1.4,0.4-2.1c0,0,0.1,0,0.1,0
						c0.1-0.4,0.2-0.9,0.3-1.3c0.1-0.3,0.2-0.5,0.3-0.6c0.1-0.1,0-0.2,0.1-0.2c0.2-0.3,0.4-0.7,0.6-0.9c0.1-0.3,0.3-0.5,0.5-0.6
						c0,0.3-0.3,0.4-0.3,0.6c-0.1,0.2-0.1,0.5-0.3,0.7c0,0,0,0.1,0,0.1c-0.1,0.1-0.2,0.3-0.2,0.5c-0.1,0.2-0.3,0.5-0.3,0.6
						c0,0.1,0,0.2,0,0.2c-0.1,0.2-0.2,0.4-0.3,0.6c0,0.1,0,0.2,0,0.3c0,0.2-0.1,0.3-0.2,0.5c-0.2,0.8-0.4,1.6-0.6,2.4
						c-0.2,0.8-0.3,1.7-0.4,2.6c0.4-1.7,0.7-3.4,1.2-5.1c0.5-0.3,0.4-1.4,0.8-1.8c0.1-0.5,0.3-0.9,0.6-1.3c0.1-0.4,0.3-0.6,0.5-1
						c0.2,0,0.2-0.1,0.3-0.1c-0.1-0.5,0.2-0.6,0.3-0.9c0.1,0,0.1,0,0.2,0c0.2-0.4,0.5-0.7,0.7-1.1c0.1,0,0,0.1,0.2,0.1
						c0.1-0.1,0.1-0.2,0.1-0.4c0,0,0.2,0,0.2,0c0,0,0-0.1,0-0.1c0.1-0.1,0.2-0.2,0.3-0.2c0.1,0,0.1,0.1,0.3,0.1
						c0.1-0.3,0.4-0.4,0.5-0.7c0.1,0,0.1,0,0.2,0c0.7-0.9,1.6-1.5,2.4-2.2c0.8-0.6,1.6-1.4,2.5-2c0.1,0,0.1-0.1,0.2-0.1
						c0,0.2,0,0,0.1,0c0,0,0,0-0.1-0.1c1.3-0.7,2.4-1.6,3.9-2.1c-0.1,0.1-0.3,0.2-0.1,0.3c0.1-0.1,0.2-0.3,0.3-0.3
						c0.1-0.1-0.2,0-0.1-0.1c0-0.1,0.2-0.2,0.3-0.1c0.2-0.4,0.8-0.4,1.2-0.6c0.1,0.1,0.3,0,0.4,0.1c0.1-0.2,0.6-0.2,0.8-0.1
						c0.1,0,0.1-0.1,0.3-0.2c0.1,0,0.1,0,0.2,0c0.5-0.5,1.4-0.7,2.3-0.8c0.7-0.1,1.5-0.2,2.1-0.1c0.1-0.1,0.1-0.2,0.2-0.2
						c0.4,0,0.5-0.4,0.7-0.6c0.2-0.1,0.6,0,0.7-0.2c-0.5,0.1-0.6-0.3-1.1-0.3c0.1-0.1,0.3-0.1,0.2-0.4c-0.1,0-0.3,0.1-0.4,0
						c0.2-0.2,0.4-0.3,0.5-0.6c0.5-0.2,1.3-0.1,1.3-0.6c-0.5-0.1-1,0.2-1.2,0c0-0.1,0.1-0.2,0.1-0.2c0.3,0.1,0.5,0.1,0.9,0.1
						c0-0.3-0.3-0.3-0.3-0.6c-0.3,0-0.6,0.2-0.6,0c0.2-0.1,0.6-0.2,0.6-0.3c-0.3,0-0.6,0.3-0.9,0.2c0.3-0.4,0.9-0.5,1.2-0.9
						c0.2,0.1-0.2,0.4,0,0.3c0-0.1,0.2-0.1,0.1-0.2c0.3,0.1,0.2-0.1,0.4,0c0.1-0.1,0-0.1-0.1-0.2c0.3,0,0.5-0.2,0.4-0.5
						c0.1-0.1-0.2,0.3-0.3,0c0.2-0.3,0.3-0.6,0.9-0.4c0-0.1,0-0.2,0.1-0.2c1.3-0.5,3-0.2,4.2-0.7c-0.7,0-1.5,0-2.1-0.2
						c-0.1-0.1-0.1-0.3-0.2-0.3c-0.1,0-0.2,0.1-0.4,0c-0.2-0.2-0.8,0-1.1-0.2c0.2-0.1,0.4,0,0.6,0c-0.1-0.3-0.4-0.3-0.5-0.4
						c0.3-0.7,0.5-1.4,0.4-2.4c0.1-0.1,0.2-0.1,0.3-0.3c-0.3,0.2-0.3-0.1-0.5-0.1c-0.2,0.1-0.6,0.2-0.7,0c0.1-0.2,0.6,0,0.6-0.3
						c-0.2,0-0.3,0-0.4,0c0-0.2,0.4-0.2,0.6-0.2c-0.1-0.1,0-0.3-0.1-0.5c-0.1-0.1-0.2,0.2-0.3,0c0.2-0.1-0.1-0.5-0.3-0.5
						c-0.1,0,0,0.2-0.1,0.2c-0.4,0-0.4-0.4-0.5-0.6c-0.1-0.3-0.4-0.6-0.4-0.8c0-0.1,0.2-0.1,0.2-0.2C372.4,5.9,372,6,372,5.7
						c0.2-0.2,0.3-0.4,0.3-0.8c0.1,0,0.1,0,0.2,0c-0.1-0.2,0.1-0.3,0.2-0.4c0.1-0.1,0.1-0.2,0-0.4c-0.2-0.1-0.2,0.2-0.5,0.1
						c0,0.1,0,0.2,0,0.3c-0.3,0-0.3,0.1-0.6,0.1c0-0.2-0.3-0.3-0.3-0.6c0.3,0,0.3-0.2,0.7-0.2c0.1-0.1,0.3-0.2,0.5-0.2
						c0-0.1,0.2-0.2,0.1-0.3c0,0.3-0.2,0.1-0.5,0.2c-0.2-0.1-0.1-0.3-0.2-0.3c-0.1,0,0,0.2-0.2,0.1c-0.2-0.2-0.5,0.1-0.7,0
						c0.1-0.1,0.2-0.1,0.5-0.2c-0.1-0.1,0.1-0.3,0.1-0.3c-0.2,0-0.1,0.2-0.3,0.2c-0.2-0.1-0.4-0.1-0.4-0.3c0.2-0.1,0.6-0.1,0.9-0.2
						c0-0.3-0.4-0.3-0.6-0.2c-0.1-0.1,0-0.2,0-0.3c-0.2,0-0.2-0.1-0.3,0c0.1,0.1-0.2,0.1-0.2,0.2c0,0.1,0,0.3-0.1,0.3
						c-0.3,0.1-0.1-0.3-0.3-0.2c0,0.3-0.8,0-0.8,0c0.1-0.2,0.4-0.1,0.6-0.3c-0.3,0-0.4,0-0.7,0c-0.1,0.1,0,0.1,0,0.2
						c-0.4-0.1-0.8,0-1.2,0.1c0.2,0,0.4-0.2,0.6-0.3c0.1,0,0.2,0,0.3,0c0.3,0,0.5-0.2,0.7-0.2c0.1,0,0.2,0.1,0.2-0.1
						c-0.2-0.1-0.5-0.1-0.7-0.1c-0.2-0.3-0.6,0.2-1.1,0c0-0.2,0.3,0,0.3-0.1c-0.1,0,0.2-0.1,0.3-0.1c0-0.2-0.2-0.2-0.1-0.4
						c-0.2,0,0,0.3-0.3,0.2c-0.1-0.1-0.2-0.2-0.5-0.2c0-0.3-0.3-0.3-0.3-0.4c-0.3,0.1-0.9,0.1-1.2,0.3c0-0.1-0.2,0-0.2-0.2
						c-0.1-0.1,0.1-0.1-0.1-0.3c-0.3-0.1-0.6-0.2-1-0.2c-0.1,0,0,0.2-0.2,0.2c-0.2-0.1-0.6,0.1-0.9-0.1c-0.2,0.2-0.5,0.2-0.8,0.3
						c-1,0.2-2,0.5-3,0.7c-0.3,0-0.6,0.2-0.8,0.3c-0.4,0.2-0.9,0.3-1.4,0.5c-0.2,0.1-0.5,0.2-0.7,0.2c-0.2,0-0.3,0.2-0.4,0.2
						c-0.3,0.1-0.7,0.2-1,0.3c-0.1,0.4-0.6,0.3-1,0.4c-0.4,0.1-0.8,0.4-1.1,0.5c0.1,0.1,0.1-0.1,0.2,0.1c-0.4,0.2-0.9,0.3-1.3,0.6
						c-0.1-0.1-0.2-0.1-0.3-0.1c-0.6,0.3-1.3,0.6-1.8,0.9c-0.1,0.1-0.1,0.2-0.1,0.3c-0.4,0.2-0.7,0.5-1.2,0.7
						c-0.2,0.3-0.5,0.5-0.8,0.6c-0.2,0.2-0.5,0.4-0.8,0.5c-0.2,0.3-0.6,0.5-0.9,0.7c-0.1,0.6-0.6,0.7-0.9,1
						c-0.2,0.1-0.4,0.3-0.6,0.4c-0.1,0.1-0.2,0.1-0.3,0.1c-0.2,0.2-0.4,0.5-0.7,0.6c0.1,0.3,0,0.3-0.1,0.6c-0.1,0-0.2,0.1-0.3,0.1
						c-0.1,0.2-0.4,0.3-0.5,0.4c-0.4,0.3-0.8,0.8-1.3,1.1c-0.3,0.5-0.8,0.9-1.1,1.3c-0.3,0.3-0.5,0.4-0.7,0.6
						c-0.2,0.2-0.2,0.4-0.4,0.5c-0.2,0.2-0.4,0.4-0.7,0.6c0.1,0.2-0.1,0.2-0.1,0.3c-1,0.8-1.6,1.9-2.4,2.8c0,0.1,0,0.2,0,0.3
						c-0.1,0-0.2,0-0.2,0c-0.2,0.3-0.6,0.7-0.8,1.1c-0.3,0.2-0.4,0.5-0.6,0.7c-0.2,0.3-0.5,0.8-0.8,1.1c-0.1,0.2-0.4,0.2-0.3,0.5
						c-0.2,0.2-0.4,0.4-0.3,0.7c-0.1,0.2-0.4,0.4-0.4,0.8c-0.3,0.1-0.3,0.5-0.5,0.5c0,0.2-0.2,0.6-0.4,0.8c0,0.5-0.3,0.8-0.2,1.2
						c0.2-0.6,0.6-1,0.8-1.6c0.1,0.1,0.1-0.1,0.2-0.1c0.1-0.5,0.3-0.9,0.6-1.2c-0.1,0.1,0.1,0.2,0.1,0.1c-0.1-0.1,0.1-0.2,0-0.3
						c0.1-0.1,0.2-0.1,0.3-0.1c-0.2,0,0-0.1-0.1-0.2c0.7-0.8,1.1-1.9,1.8-2.6c0-0.1,0.1-0.1,0-0.3c0.4-0.3,0.6-0.9,1-1.1
						c-0.1-0.2,0.3-0.3,0.4-0.6c0.2-0.1,0.3-0.2,0.4-0.4c0.4-0.4,0.8-1,1.2-1.4c0.4-0.4,0.8-0.8,1.1-1.1c0.1-0.1,0.2-0.2,0.2-0.3
						c0.4-0.3,0.7-0.6,0.9-1c0.1,0,0.1,0,0.2,0c0.2-0.4,0.7-0.6,1-1c0.1-0.1,0.1-0.1,0.3,0c0.2-0.3,0.6-0.3,0.6-0.8
						c0.4-0.3,0.9-0.7,1.3-1c0.4-0.1,0.4-0.4,0.9-0.4c0.1-0.1,0.2-0.2,0.4-0.3c0-0.2,0.1-0.1,0.2,0c-0.1-0.1-0.1,0-0.1,0.1
						c0,0-0.2,0.2-0.1,0.3c0.1,0.1,0.2,0.1,0.2,0.3c-0.1,0-0.2,0.1-0.3,0.1c-0.4,0.5-1.1,0.8-1.4,1.4c-0.6,0.4-1.1,0.8-1.5,1.4
						c0.1,0,0,0.1,0,0.2c0.4-0.1,0.4-0.5,0.9-0.4c0.2-0.2,0.4-0.5,0.7-0.7c0.1,0,0.2-0.2,0.3-0.1c-0.2,0.3-0.5,0.4-0.8,0.7
						c-0.3,0.2-0.5,0.5-0.7,0.8c-0.4,0.4-0.8,0.8-1.1,1.2c-0.1,0.1-0.3,0.3-0.4,0.4c0,0,0,0.2-0.1,0.2c-0.3,0.3-0.8,0.4-1.1,0.6
						c0.1,0.1,0.3,0,0.3,0.2c-0.2,0.2-0.4,0.3-0.5,0.6c-0.1,0-0.1,0.1-0.2,0.2c-0.2,0.2-0.5,0.7-0.7,0.7c0,0.3-0.1,0.6-0.5,0.6
						c-0.1,0.1,0.1,0.1,0,0.2c-0.2,0.2-0.4,0.3-0.6,0.5c-0.5,0.2-1,0.5-1.2,1c-0.1,0-0.1-0.1-0.1,0c0,0.1-0.5,0.5-0.5,0.6
						c0,0,0.1-0.1,0.1-0.1c-0.1,0.1-0.3,0.3-0.4,0.6c-0.2,0.1-0.4,0.3-0.5,0.5c-0.2,0.1-0.4,0.2-0.5,0.3c-0.1,0.1,0.1,0.3,0.1,0.4
						c0,0-0.1,0.1-0.1,0.1c0,0.1-0.2,0-0.1,0.2c-0.1,0.2-0.2,0.6-0.4,0.9c0,0.2,0,0.2,0,0.4c0,0-0.3,0.1-0.1,0.1
						c0.1,0.1-0.2,0.3,0,0.4c-0.2-0.1-0.3,0.1-0.4,0.1c0.1-0.2,0.3-0.4,0.2-0.6c-0.5,0.1-0.4,0.8-0.5,1.1c0.1-0.1,0.2-0.3,0.4-0.4
						c0.1,0,0.2,0.1,0.3,0.1c0-0.3,0.3-0.3,0.4-0.5c0.1,0-0.2-0.1-0.1-0.2c0.2,0,0.1-0.2,0.2,0c0.1-0.2,0-0.3,0.2-0.2
						c0,0,0-0.2-0.1-0.2c0,0.1,0,0.2-0.1,0.2c0.1-0.1-0.1,0-0.1-0.2c0.2-0.1,0.4-0.1,0.5-0.3c-0.1,0-0.1-0.1-0.1-0.1
						c0.3,0,0-0.3,0.3-0.3c0.1,0.3-0.1,0.1,0,0.3c0.1,0.2,0.1-0.3,0.2-0.1c-0.2,0.3-0.5,0.3-0.5,0.9c-0.7,1.1-0.9,2.5-1.6,3.7
						c0.1,0.3-0.1,0.5-0.2,0.7c-0.1,0.3-0.1,0.7-0.2,1.1c-0.2,0.7-0.6,1.6-0.6,2.3c-0.1,0.3-0.2,0.6-0.3,0.9c-0.1,0.3,0,1-0.2,1.1
						c-0.4,0.4-0.7,0.9-0.3,1.4c-0.1,1-0.5,1.9-0.5,2.7c0.1,0.2,0.2,0.2,0.1,0.4c-0.1,0.3-0.2,0.8-0.3,1.3c-0.1,1.2,0,2.7,0,3.9
						c0,0.3-0.1,0.6-0.1,0.8c0,0.2,0.1,0.4-0.1,0.4c0.3,0.1-0.1,0.5,0.1,0.6c0-0.2,0-0.4,0.1-0.5c0.1,0.6,0,1.3,0,1.9c0,0,0,0,0,0
						c-0.1,0.3-0.1,0.6-0.1,0.9c0,0,0,0,0,0c0.2,0.7,0.2,2.6,0.5,3c0-0.3-0.2-1.2-0.2-1.4c0.1-0.5-0.1-1.3,0.2-1.4c0-0.3,0-0.7,0-1
						c0,0,0-0.1,0-0.1c0-0.1-0.2-0.1-0.2-0.3c0.2-0.3,0-0.1,0-0.3c0,0,0-0.2,0.1-0.1c0-0.1,0,0.2,0,0.6v0c0,0.1,0,0.1,0,0.1
						c0,0.9,0.1,2.3,0.1,2.5c0-0.1,0.3-1.1,0.5-2c0-0.1,0-0.3,0-0.4c0,0.1,0,0.1,0,0.2c0.1-0.2,0.1-0.4,0.2-0.6c0-0.1,0-0.2,0-0.3
						c0.1,0,0.1-0.1,0.1-0.1c0,0,0-0.1,0,0c0,0,0,0,0,0c0,0.1-0.1,0.2-0.1,0.4c0,0.3,0,0.6,0.1,0.9c0,0.1,0.1,0.1,0.1,0.2
						c0,0.3-0.1,0.6,0,1c0,0.2,0.2,0.8-0.1,1.1c-0.1-0.1-0.3-0.1-0.3-0.3c-0.1,0-0.3-0.1-0.4-0.1h0l0,0c0-0.5-0.1-1-0.1-1.5
						c0,0,0,0,0,0c0,0.3,0,0.6,0,1c0,0.3-0.1,0.5,0,0.7c0,0.1,0.1,0.3,0.1,0.4c0.1,0.4-0.1,0.5-0.1,0.8c0,0.5,0,1,0,1.5
						c0.1,0.1,0.1-0.1,0.1,0c-0.2,1.7,0.6,2.5,0.6,4.5c-0.1,0.1,0.5,0.1,0.5,0.3c0.1,0.1,0.2,0.1,0.3,0.2c0.1-0.1,0.2-0.2,0.1-0.4
						c0.1,0.2,0.2,0.5,0.2,0.6v0c0.2,0.1,0.3,0.3,0.5,0.5c-0.1,0.6,0.3,1.2,0.2,1.8c0.1,0.1,0.2,0,0.2,0.1c0.2,0.7,0.5,1.1,0.6,1.8
						c0.1,0.1,0.3,0.2,0.2,0.3c-0.2-0.2-0.3-0.4-0.5-0.5c0,0,0.1-0.2,0-0.3c0,0.1-0.1,0.1-0.2,0.1c0-0.1,0-0.2-0.1-0.3
						c0.1,0,0.2,0,0.1-0.1c-0.1-0.1-0.1-0.3-0.1-0.4c-0.2-0.1-0.4-0.6-0.5-1c0,0,0.1-0.1,0.1-0.1c-0.1,0-0.1-0.1-0.2-0.2
						c0-0.5-0.3-1-0.4-1.3c0-0.2,0-0.3-0.1-0.4c-0.1-0.1-0.2-0.2-0.3-0.2c0,0.1-0.1,0.1-0.1,0.2c0,0.2,0.1,0.4,0.2,0.6
						c0,0-0.1,0.1,0,0.2c0,0.3,0.3,0.5,0.2,0.8c0.3,0.2,0.2,0.8,0.5,1c-0.2,0.1,0,0.3,0.1,0.4c-0.1,0.1,0,0.2,0,0.4
						c0.1,0.1,0.2,0.3,0.1,0.4c-0.2,0-0.2-0.3-0.4-0.4c-0.1-0.5-0.6-0.6-0.5-1.1c-0.1,0-0.2,0-0.2-0.1c0.1,0.1,0.3,0,0.3-0.1
						c-0.3-0.4-0.5-0.8-0.7-1.3c0.2,0-0.1-0.3-0.3-0.5c-0.1,0.5,0.2,0.9,0.2,1.7c0.1,0.2,0.2,0.4,0.2,0.5c0-0.1,0.2,0,0.2,0.1
						c-0.2,0.1,0,0.4,0,0.7c0.1,0,0.2,0.1,0.2,0.2c0,0.1,0,0.1,0,0.2c0.3,0.2,0.5,0.6,0.7,1c0.3,0.1,0.5,0.4,0.7,0.6
						c0,0,0-0.1,0.1-0.1c0.2,0.3,0.4,0.5,0.4,0.9c0.5,0.7,0.8,1.7,1.4,2.5c0,0-0.1,0-0.1,0.1c0.2,0.1,0.2,0.3,0.4,0.4
						c0.1,0.1,0.2,0.4,0.4,0.3c-0.1-0.2-0.3-0.3-0.4-0.6c0-0.1,0.1,0,0.1-0.1c-0.1-0.1-0.1-0.3-0.2-0.4c0.1,0,0.1,0.1,0.1,0
						c-0.2-0.4-0.4-0.7-0.6-1c-0.2-0.3-0.4-0.7-0.5-1.1c0.1,0.1,0.1,0.1,0.2,0c0.5,1.1,1.1,2,1.6,3.1c0.2,0.2,0.4,0.6,0.5,0.8
						c0.1,0,0.2,0,0.2,0c0,0.3,0.3,0.4,0.4,0.7c0.3,0.3,0.5,0.7,0.7,1.1c-0.1,0,0,0.2,0,0.2c0,0.2,0.2,0.2,0.2,0.4
						c-0.5-0.5-0.9-1.1-1.3-1.7c-0.2-0.2-0.3-0.6-0.6-0.5c0.2,0.1,0.2,0.4,0.4,0.6c0.3,0.1,0.7,0.3,0.5,0.7c0.2,0.2,0.4,0.5,0.6,0.7
						c0.3,0.5,0.8,0.8,1,1.3c0,0.2,0,0.3,0.1,0.4c0.1,0.1,0.2,0.1,0.3,0.3c0.2,0.3,0.2,0.8,0.7,0.8c-0.1-0.3-0.1-0.4-0.2-0.7
						c0.1,0.2,0.4,0.3,0.6,0.6c0,0,0,0.2,0.1,0.2c0.1,0.1,0.3,0.2,0.5,0.3c0.1,0.1,0.1,0.2,0.2,0.3c0.4,0.4,0.9,0.8,1.2,1.3
						c0.1,0.1,0.2,0.3,0.3,0.5c0.1,0.1,0.3,0.2,0.4,0.3c0,0,0,0.1,0.1,0.2c0,0.1,0.2,0.1,0.2,0.1c0.2,0.2,0,0.2,0.1,0.4
						c0.3,0.1,0.4,0.4,0.6,0.5c0.1,0,0.2,0,0.2,0.1c0.1,0.1,0.2,0.3,0.3,0.4c0.1,0.1,0.3,0.2,0.2,0.4c-0.2,0-0.1-0.3-0.3-0.3
						c-0.1,0.2,0.1,0.2,0,0.4c0.3,0.1,0.4,0.3,0.6,0.5c0.1,0.2,0.3,0.5,0.5,0.5c-0.2-0.4-0.5-0.7-0.8-1c0.2,0,0.1,0.2,0.3,0.2
						c0-0.1,0-0.1,0.1-0.1c0.2,0.3,0.7,0.5,0.8,0.8c0-0.1,0.1,0,0.2,0c0.4,0.4,0.8,0.7,1.2,1c0.2,0.1,0.3,0.3,0.4,0.4
						c0.2,0.1,0.3,0.2,0.5,0.4c0.2,0.1,0.3,0.4,0.5,0.5c0.2,0.1,0.3,0.2,0.5,0.3c0.1,0.1,0.2,0.1,0.3,0.3c0.4,0.1,0.7,0.4,1,0.7
						c-0.1,0-0.1,0.1-0.1,0.2c0.4,0.3,1.1,0.4,1.5,0.9c0.5,0.2,1,0.6,1.4,0.9c0.1,0,0.2,0,0.2,0c0,0.1,0.2,0.2,0.2,0.2
						c0.2,0,0.2,0.1,0.3,0c0.1,0.1,0.3,0.3,0.4,0.4c0.1,0.1,0.3,0.1,0.5,0.2c0.3,0.2,0.4,0.5,0.7,0.4c0.1,0.2,0.3,0.2,0.6,0.2
						c0.2,0.2,0.6,0.2,0.7,0.5c0.2,0,0.1,0,0.3,0c0.2,0.4,0.5,0.5,1,0.7c0.3,0.2,0.7,0.4,1.1,0.6c0.4,0.1,0.8,0.4,1.2,0.5
						c0.2,0.3,0.7,0.2,1,0.5c-1.1-0.3-2.1-0.7-3-1.1c-0.6,0-0.8-0.3-1.2-0.4c-0.9-0.4-1.7-0.7-2.3-1.2c-0.6-0.2-1-0.6-1.6-0.8
						c0.1,0,0.2-0.2,0.1-0.2c-0.1,0.2-0.2,0-0.3,0c0,0.3,0.6,0.3,0.7,0.7c0.1,0,0.2,0,0.4,0.1c0,0.2,0.2,0.2,0.2,0.3
						c0.4,0.1,0.6,0.4,1,0.5c0,0,0,0.1,0,0.1c0.3,0,0.4,0.2,0.6,0.3c0.2,0,0.1,0,0.2,0.1c0.1,0.1,0.3,0.1,0.4,0.2
						c0.1,0,0.3,0.2,0.3,0.2c0.1,0,0.2,0,0.3,0.1c0.1,0.1,0.2,0.2,0.2,0.2c0.2,0.1,0.3,0,0.5,0.1c0.3,0.1,0.7,0.4,0.9,0.6
						c0.1,0,0.1,0,0.2,0c0.3,0.2,0.7,0.5,1,0.6c0.1,0,0.1,0,0.1,0.1c0.8,0.2,1.3,0.7,2.3,0.8c0.1,0,0.1,0.1,0.2,0.1
						c0.5,0,1.1,0.2,1.7,0.2c0.3,0.1,0.8,0.3,1,0.1c0.2,0.2,0.5,0,0.6,0.2c0-0.1,0-0.1,0.1-0.1c0.2,0.2,0.6,0.1,0.8,0.2
						c0.1,0,0.2,0.1,0.3,0.1c0.1,0,0.2,0,0.3,0c0.3,0.1,0.5,0.2,0.7,0.2c0.7,0.2,1.1,0.2,1.5,0.1c0.1,0.1,0,0.2,0.2,0.1
						c0.3,0,0.3,0,0.5,0c0.6-0.2,1.4,0.1,2,0c0.1,0,0,0.1,0.1,0.1c0.2-0.1,0.5,0.2,0.7,0c0,0.2,0.1,0.2,0.2,0.2
						c0.2-0.5,0.9,0.1,1-0.4c-0.4,0.1-0.9,0-1.4-0.1c-0.6,0-1.1,0-1.4-0.3c1.7,0.1,3.4,0.2,4.7,0.3c0.1-0.1,0.3-0.1,0.5,0
						c-0.1,0-0.1,0-0.2,0c0.3,0,0.2-0.1,0.3-0.1c0.2,0,0.8-0.2,0.9,0c0,0-0.1,0,0,0c0.3-0.3,0.7-0.1,0.9-0.2
						c0.5-0.1,1.1-0.2,1.6-0.2c0.1-0.1,0.2,0,0.2-0.2c0.1,0.2,0.3,0,0.5,0c-0.1,0,0-0.2,0.1-0.3c0.6-0.1,0.9-0.2,1.5-0.2
						c0.3-0.3,0.7,0.1,1-0.2c-0.1,0-0.1-0.1,0-0.1c0.1,0,0.4,0,0.4,0c0,0.1-0.3,0-0.3,0.1c0.8,0,1.7-0.2,2.3-0.2
						c-0.2,0.1-0.5,0.1-0.7,0.1c-0.3,0.1-0.6,0.3-1,0.3c0,0-0.2,0-0.2,0c-0.2,0-0.4,0.1-0.6,0.1c-0.5,0.1-1.1,0.1-1.5,0.2
						c-0.1,0-0.2,0.1-0.2,0.1c-0.1,0,0-0.1,0-0.1c-0.1,0-0.1,0.1-0.2,0.2c-0.2,0-0.5,0.1-0.6,0c-0.4,0.2-1,0.2-1.5,0.3
						c-0.5,0.1-0.9,0.1-1.2,0.4c0.2,0.1,0.3,0,0.4,0.1c0-0.1,0.1-0.2,0.2-0.1c0.8,0,1.3-0.4,2-0.3c0.1-0.1,0.3-0.1,0.5-0.2
						c0.2,0,0.5,0,0.7,0c0.2,0,0.3-0.1,0.5-0.2c0.1,0,0.1,0,0.2,0c0.2,0,0.3-0.1,0.5-0.2c0.1,0,0.2,0,0.4,0c0.5-0.1,1.1-0.2,1.5-0.2
						c0.1,0,0-0.1,0.1-0.1c0.9-0.2,1.3-0.4,2.3-0.5c0.2-0.2,0.4-0.1,0.7-0.2c0.5-0.1,1.1-0.4,1.6-0.4c0.3-0.3,1.4-0.1,1.1-0.6
						c-0.2,0.1-0.5,0.2-0.9,0.2c0.8-0.2,1.5-0.5,2.3-0.8c1-0.4,1.9-0.9,2.9-1.2c-0.8,0.7-2.1,0.9-3,1.6c-0.1,0-0.1,0-0.2,0
						c-0.2,0.2-0.6,0.2-0.8,0.4c0.5,0,0.8-0.3,1.3-0.3c0-0.1,0-0.1,0.1-0.2c0.2,0,0.3-0.1,0.4-0.2c1-0.3,1.7-0.9,2.6-1.2
						c0.1-0.2,0.3-0.2,0.4-0.4c0,0.1,0.1,0.1,0.2,0.1c0.2-0.3,0.7-0.3,0.8-0.6c0,0-0.1,0-0.1,0c1-0.1,1.6-0.9,2.6-1.2
						c0-0.3,0.4-0.2,0.6-0.4c-0.2-0.2,0-0.3,0.2-0.4c0,0.1,0.1,0.1,0.2,0.1c0.5-0.2,0.8-0.6,1.4-0.8c0.1-0.3,0.6-0.4,0.7-0.8
						c0.3-0.1,0.5-0.3,0.7-0.5c0.4-0.4,0.9-0.6,1.3-0.9c0.5-0.4,1-0.7,1.5-1.1c0.7-0.6,1.5-1.1,2.2-1.6c0.1-0.1,0.2-0.1,0.3-0.1
						c0.5-0.4,0.7-0.9,1.3-1.2c-0.1,0.2-0.2,0.3-0.1,0.4c0-0.1,0-0.1,0.2-0.2c0.1-0.6,0.7-0.9,1.1-1.3c0,0,0-0.2,0.1-0.2
						c0.1-0.1,0.3-0.2,0.4-0.3c0.1-0.1,0.1-0.3,0.2-0.4c0.1-0.1,0.2-0.1,0.2-0.1c0.1-0.1,0.1-0.2,0.2-0.3c0.1-0.1,0.2-0.2,0.3-0.3
						c0.3-0.3,0.5-0.6,0.7-0.9c0.2-0.3,0.4-0.5,0.6-0.8c0-0.1,0.1-0.2,0.1-0.3c0,0,0.1-0.1,0.2-0.1c0.1-0.1,0-0.2,0.1-0.3
						c0,0,0.1,0,0.2-0.1c0.3-0.4,0.4-1,0.6-1.4c0.1-0.1,0.3-0.3,0.3-0.5c0.3-0.2,0.5-0.5,0.5-1c0.1,0,0.1-0.1,0.1-0.1
						c0.3-0.8,0.6-1.6,1-2.3c0.1-0.6,0.4-0.9,0.5-1.5c0.8-1.1,0.8-2.8,1.6-3.9c0-0.3,0.1-0.5,0.2-0.7c0.1,0,0.1,0.1,0.1,0.1
						c0.2-0.3,0-0.8,0.3-1c-0.1-0.5,0.1-1,0.4-1.3c-0.1-0.9,0.2-1.8,0.4-2.6c0-0.2,0-0.4,0.1-0.5c0.1,0.3-0.1,0.5,0,0.7
						c0.2-0.7,0.3-1.6,0.3-2.3c0-0.5,0.1-0.9,0.1-1.4c0-0.1-0.1-0.2,0-0.3c0-0.2,0.1-0.4,0.2-0.6c0.1-0.3,0-0.6,0.1-0.9
						c0-0.1,0.1-0.1,0.1-0.2c0-0.1,0-0.2,0-0.4C420.9,48.3,421,47,421,45.8z M397.1,5.2c0.1-0.2,0.4,0,0.5,0
						C397.5,5.4,397.3,5.2,397.1,5.2z M385.5,3.8c0.3,0,0.4,0.1,0.6,0.2c-0.4,0.1-0.7-0.3-1.2-0.4C385.1,3.6,385.5,3.6,385.5,3.8z
						 M382.8,12c0.7-0.1,1.5,0.4,2.1,0.6c0,0.1,0,0.1,0,0.2C384.2,12.5,383.6,12.3,382.8,12z M383.7,14.1c0.5-0.1,0.9,0.2,1.3,0.3
						C384.6,14.5,384.2,14.2,383.7,14.1z M385,12.9c0.1-0.1,0.3,0,0.3,0C385.3,13.1,385.2,12.9,385,12.9z M386,13.2
						c0.2,0.1,0.4,0.2,0.6,0.2C386.3,13.5,386.1,13.3,386,13.2z M391.1,4.6c-0.1,0,0,0.2-0.1,0.2c-0.4-0.1-0.9-0.1-1.4-0.2
						c0,0-0.1,0-0.2,0c0,0,0-0.1,0-0.1c0,0-0.2,0-0.2,0c0,0-0.2-0.3-0.3-0.4c0.6-0.1,1.1,0.2,1.6,0.2c0.2,0.2,0.6,0.4,0.9,0.5
						C391.4,4.7,391.2,4.6,391.1,4.6z M391.5,4.6c0.2-0.1,0.3,0.2,0.5,0.2C391.8,5,391.7,4.6,391.5,4.6z M392.5,21.5
						c0-0.2,0.1,0,0.2,0C392.7,21.6,392.6,21.4,392.5,21.5z M345,46c0.1,0,0,0.4,0,0.5C345,46.6,345,46.2,345,46z M373.4,8.1
						c0.1,0.2-0.3,0.1-0.3,0C373.1,8,373.4,8,373.4,8.1z M372.2,4.7C372.2,4.8,372.1,4.8,372.2,4.7c0,0.1,0,0.1,0,0.1
						c-0.1,0-0.3,0-0.4,0.2c-0.1,0-0.1-0.1-0.1-0.2C371.9,4.8,371.9,4.6,372.2,4.7z M371,3.6c0,0.1-0.1,0.1-0.2,0.1
						C370.8,3.6,370.9,3.6,371,3.6z M370.2,3.1c-0.2,0-0.3,0.3-0.5,0.1C369.7,3,370,2.9,370.2,3.1z M368.4,2.3
						C368.3,2.3,368.3,2.3,368.4,2.3C368.4,2.4,368.3,2.4,368.4,2.3C368.3,2.4,368.3,2.3,368.4,2.3z M367.4,2.3
						c0,0.2-0.1,0.1-0.2,0.1C367.2,2.4,367.3,2.3,367.4,2.3z M366.5,1.7c0.2,0,0.3,0.1,0.3,0.2c-0.2,0-0.2,0-0.4,0
						C366.4,1.8,366.5,1.7,366.5,1.7z M365.6,1.7c0.2,0,0.5,0,0.7,0.1c0,0-0.1,0.1,0,0.1C366.2,1.9,366,2,365.6,1.7
						c0,0.1-0.1,0.2-0.1,0.3c-0.1,0-0.1-0.1-0.2-0.1C365.3,2,365.2,2,365,2C365,1.8,365.6,1.9,365.6,1.7z M364.8,1.9
						c0.1,0,0.1,0.1,0.1,0.2C364.7,2.1,364.7,2,364.8,1.9z M354.4,25.5c0.2-0.2,0.3-0.2,0.5-0.3c-0.1,0.3-0.7,0.5-0.8,1
						c-0.4,0.1-0.5,0.5-0.8,0.7c-0.1-0.1,0.1-0.3,0.2-0.4C353.7,26.2,354.1,25.9,354.4,25.5z M353.5,5.9c-0.1,0.2-0.5,0.2-0.6,0.4
						C352.8,6.1,353.3,6,353.5,5.9z M353,26.9c0.1,0.3-0.4,0.4-0.5,0.6C352.4,27.3,352.9,27.1,353,26.9z M352.3,27.8
						c-0.1,0.2-0.3,0.3-0.3,0.5C351.7,28.2,352.1,27.8,352.3,27.8z M351.6,28.5c0.1,0,0,0.1,0,0.2C351.5,28.6,351.6,28.6,351.6,28.5
						z M347.6,9.3c0.6-0.4,1.1-0.8,1.7-1.2c0,0.3-0.4,0.4-0.7,0.5c-0.4,0.2-0.7,0.5-1.1,0.8C347.6,9.4,347.6,9.4,347.6,9.3z
						 M345.1,43.3c0.2,0.2,0,0.6,0.1,0.7c-0.1-0.1-0.2,0-0.1,0.2c-0.1,0-0.1-0.1-0.1-0.2C345.2,43.9,345,43.5,345.1,43.3z
						 M334.3,23.1c-0.1,0,0.1-0.2,0.1-0.1C334.4,23.1,334.3,23.1,334.3,23.1z M331.5,43.6c0,0.3,0.1,0.7,0,0.9
						C331.4,44.3,331.4,43.9,331.5,43.6z M331.5,45.9c-0.1-0.2,0-0.5,0-0.8C331.7,45.3,331.6,45.8,331.5,45.9z M333.6,62.4
						c0.1,0,0.2,0.3,0.2,0.4C333.7,62.7,333.7,62.5,333.6,62.4z M349.4,63.3C349.4,63.3,349.4,63.3,349.4,63.3
						c-0.2-0.4-0.5-0.6-0.6-0.9c-0.1-0.1,0-0.2-0.1-0.3c0-0.1-0.2-0.2-0.2-0.2c0-0.1,0-0.2-0.1-0.3c-0.1-0.3-0.5-0.7-0.4-1.1
						c0.2,0.2,0.3,0.4,0.5,0.7C348.8,61.8,349.1,62.6,349.4,63.3z M348.3,60.2c-0.1,0.1-0.2,0.1-0.3,0c0-0.2-0.1-0.4-0.1-0.8
						C348.1,59.6,348.1,59.9,348.3,60.2z M346.7,57.3c0,0.1,0.1,0.1,0.1,0.2c0,0.1,0,0.2,0,0.3c0,0.1,0.1,0,0.1,0c0,0,0,0.1,0,0.2
						c0.1,0.2,0.3,0.6,0.4,0.9c0.1,0.2,0.1,0.5,0.1,0.7c0.1,0.4,0.4,0.7,0.4,1.1c-0.4-0.5-0.7-1.1-0.9-1.8c0-0.2,0,0,0.1-0.1
						c-0.1-0.2-0.1-0.6-0.3-0.5c-0.1-0.5-0.3-0.9-0.4-1.4C346.6,57,346.6,57.1,346.7,57.3z M346.4,56.8c-0.1,0-0.1-0.1-0.1-0.2
						C346.2,56.5,346.5,56.7,346.4,56.8z M346.3,54.5c-0.2,0,0-0.2-0.1-0.2C346.3,54.1,346.3,54.4,346.3,54.5z M345.9,55.1
						c0.1,0-0.1-0.1,0-0.2c0.1,0.1,0.2,0.3,0,0.4c0.3,0.2,0.4,0.7,0.3,1.1c-0.2-0.1-0.1-0.5-0.1-0.5c0-0.1,0,0,0-0.1
						c-0.3-0.3-0.3-0.9-0.4-1.4C346,54.4,345.9,54.8,345.9,55.1z M345.3,51.8c0,0.1-0.1,0,0-0.1C345.3,51.7,345.3,51.8,345.3,51.8z
						 M345.3,51.6c0,0.1-0.1-0.1-0.1-0.1C345.2,51.4,345.3,51.4,345.3,51.6z M345.1,50.5c0,0,0.2,0.5,0.1,0.8
						C345.2,51,345,50.8,345.1,50.5z M344.8,47.9c-0.1,0.3,0.2,0.5,0,0.6C344.9,48.3,344.6,48,344.8,47.9z M344.6,11.7
						c0,0-0.3,0.3-0.4,0.4C344,12,344.5,11.9,344.6,11.7z M341.9,22c0,0.1-0.1,0.1,0,0.2C341.8,22.2,341.6,22,341.9,22z M341.6,22.2
						c0.1-0.2-0.1,0.3,0,0.1c0.1,0.1,0,0.2-0.1,0.2C341.3,22.5,341.5,22.3,341.6,22.2z M340.2,23.9c0.1,0.1-0.2,0.2-0.2,0.2
						C339.8,24,340.1,24,340.2,23.9z M336.2,20.7c-0.1,0,0,0.2-0.2,0.2C336.1,20.8,336.1,20.7,336.2,20.7z M335.3,21.8
						c-0.2-0.2,0.4-0.1,0.2-0.3c0.3,0.1-0.3,0.5-0.3,0.7c-0.1,0-0.1-0.1-0.2-0.1c0.1-0.2,0.4-0.2,0.5-0.4
						C335.5,21.6,335.3,21.7,335.3,21.8z M334.4,22.8c0.2-0.2,0.3-0.5,0.4-0.7c0.1,0.1,0.1,0.1,0.2,0.1c0,0.3-0.3,0.4-0.4,0.6
						C334.6,22.8,334.5,22.8,334.4,22.8z M334.6,23.3c-0.1,0,0-0.2,0-0.2C334.7,23.1,334.6,23.3,334.6,23.3z M333.5,44.9
						c0-0.3-0.1-0.7,0.1-0.9c-0.2-0.3,0-0.9,0-1.3c0-0.3,0-0.5,0-0.8c0.1-0.1,0.1-0.1,0.2-0.2c0.1-0.9,0.4-1.6,0.5-2.5
						c0.1-0.1,0.1,0.1,0.1,0.2c0.1,0,0.1-0.2,0.2-0.3c0,0-0.1,0-0.2,0c0,0,0,0,0,0.1c0,0,0,0,0-0.1c0-0.8,0.2-1.4,0.4-2.2
						c0.2,0.1,0.1,0.3,0.1,0.5c0.1,0.1,0.2,0,0.3,0c-0.2-0.4,0.1-1.1-0.1-1.4c0,0,0.1,0,0.2-0.1c-0.1-0.4,0.2-0.6,0.2-0.9
						c0-0.1,0-0.2-0.1-0.4c0.4-1.6,0.9-2.9,1.3-4.6c0.1,0,0.1,0,0.2,0c0.6-1.8,1.5-3.6,2.5-5.2c0.2,0,0,0.1,0.1,0.1
						c0.2,0,0-0.1,0.1-0.3c-0.1-0.1,0,0.1-0.2,0.1c0.2-0.2,0-0.4,0.3-0.6c0.2,0,0,0.5,0.3,0.5c0.1-0.2,0.3-0.4,0.4-0.7
						c0.2,0,0.4-0.1,0.4-0.3c-0.1-0.1-0.2,0-0.2,0.1c0-0.1,0.3-0.5,0.3-0.6c0.4-0.2,0.4-0.3,0.7-0.4c0,0.2-0.1,0.2-0.2,0.4
						c-0.1,0,0-0.2-0.2-0.2c-0.2,0,0,0.2-0.2,0.2c0,0.1,0.2,0.2,0.2,0.1c0.1,0.1-0.1,0.3-0.2,0.3c-0.3,0.5-0.6,1.1-1,1.5
						c0,0.1,0,0.2,0,0.3c-0.3,0.2-0.3,0.6-0.5,0.8c0,0.1,0,0.2,0,0.2c-0.1,0.2-0.5,0.5-0.4,0.8c0.1,0,0.1-0.1,0.2-0.2
						c0.1,0.1,0,0.4-0.1,0.5c-0.2,0.5-0.6,1.1-0.9,1.6c-0.1,0.2-0.1,0.5-0.4,0.5c0.1-0.7,0.5-1.4,0.7-2.1c-0.2,0.1-0.3,0.4-0.4,0.6
						c-0.2,0.7-0.4,1.5-0.7,2.2c-0.1,0.5-0.2,0.9-0.4,1.3c0.3,0.1,0.2,0.7,0,0.7c-0.2-0.1,0.2-0.2,0.2-0.4c0,0-0.1,0-0.1-0.1
						c-0.2,0.2-0.3,0.5-0.4,0.8c0.2,0,0.2-0.1,0.3-0.2c0.1,0.1,0.1,0.1,0.2,0.2c0.1,0,0.1-0.1,0.1-0.2c0.3,0.2,0.1,0.6,0,0.9
						c-0.1-0.1,0-0.2-0.2-0.2c-0.1,0.1-0.1,0.3-0.1,0.5c-0.1,0.2-0.3,0.3-0.2,0.7c0.1-0.2,0.2-0.3,0.4-0.4c-0.3,1.1-0.7,2.3-0.9,3.5
						c-0.1,0.6-0.1,1.2-0.5,1.7c0,0.3-0.1,0.4-0.1,0.6c-0.2-0.1,0.1-0.5-0.1-0.6c0.1-0.1,0.1-0.3,0.1-0.5c0,0-0.2,0-0.2-0.1
						c-0.1,0.4,0.1,0.7,0,1.1c-0.2,0-0.1,0.1-0.3,0c0,0.3,0.3,1.1-0.1,0.9c0,0.1,0,0.1,0,0.1c0.1-0.1,0.2,0.1,0.4,0.2
						c-0.2,0.2-0.4,0.2-0.4,0.6c0.2,0.1,0.1-0.2,0.3-0.1c0,0.3,0,0.4-0.1,0.6c0.1,0,0.1,0.1,0.1,0.1c-0.1,0.2-0.1,0.2,0,0.4
						c-0.1-0.1-0.1-0.2-0.2-0.2c0.2-0.2-0.1-0.4,0-0.6c-0.1,0.3-0.1,0.7,0.1,1c-0.1,0.3-0.3,0.6-0.4,1c0,0.1,0,0.7-0.1,0.6
						c0.1,0,0.1,0.2,0.2,0.2c0.1-0.1-0.1-0.4,0.2-0.4c-0.1-0.1-0.2-0.4,0-0.4c-0.1,0.4,0.3,0.4,0.2,0.9c-0.1,0-0.2,0.1-0.2,0.2
						c0.1,0.5,0,0.9,0.2,1.2c0,0.1,0,0.3,0,0.4c0.4,2.1-0.3,4,0.4,5.8c0,0.1,0,0.1,0,0.2c0,0.2,0.1,0.2,0.1,0.3c0,0.2-0.1,0.2,0,0.4
						c0.1,0.2,0.2,0.4,0.1,0.8c0.1,0.2,0.2,0.7,0.1,0.9c0.1,0.1,0.1,0.2,0.2,0.3c-0.1,0.3,0.1,0.6,0.2,1c0,0.2,0,0.4,0,0.5
						c0,0.1,0.1,0.2,0.1,0.2c0,0.1-0.1,0.1,0,0.2c0.1,0.4,0.2,0.8,0.4,1.1c-0.1,0.3,0.1,0.6,0.2,0.9c0.2,0.1,0.2,0.2,0.3,0.2
						c0,0.2-0.2,0.1-0.2,0.2c0.2,0.6,0.3,1,0.5,1.6c-0.2-0.1-0.2-0.4-0.2-0.6c-0.2-0.7-0.5-1.4-0.7-2c0.1-0.2,0-0.5-0.1-0.6
						c-0.1,0,0,0.4,0,0.6c-0.1,0-0.1-0.5-0.2-0.4c-0.1-0.1,0.1-0.1,0.1-0.2c-0.1-0.2,0-0.2,0-0.4c0-0.1-0.1,0-0.1,0
						c-0.2-1-0.5-2.1-0.6-3.3c0-0.3,0-0.6,0-1c0-0.1,0-0.3-0.2-0.4c0.1-0.2,0-0.2,0-0.4c-0.3,0.1,0.1,0.6,0,0.8
						c0,0.1,0.1,0.1,0.2,0.2c0,0.2,0,0.5-0.1,0.6c0,0.1,0.1,0.1,0.1,0.3c-0.1,0.3-0.2,0.5-0.1,0.9c-0.1-0.1-0.1-0.3-0.4-0.3
						c0.1,0.1,0,0.4,0,0.6c0,0,0.1,0.2,0.1,0.2c0,0.1-0.2,0.1-0.1,0.2c0.2,0,0-0.1,0.1-0.2c0.2,0.2,0.2-0.3,0.2-0.5
						c0.3,0.5,0.2,0.7,0.3,1.4c0,0.2,0.2,0.1,0.2,0.3c-0.1,0-0.1,0.1-0.2,0.1c-0.2-0.2-0.1-0.3-0.3-0.5c0-0.1,0-0.2,0.2-0.1
						c0-0.1-0.2-0.1-0.2,0c0,0.7,0.4,1.2,0.3,2c0,0.1,0.1,0,0.1,0c0.1,0.5,0.2,1,0.3,1.6c-0.3-0.5-0.5-1.2-0.6-1.8
						c-0.2-0.1-0.2-0.3-0.2-0.6c-0.1-0.1-0.2,0-0.3,0c-0.1-0.1,0.1-0.2,0-0.3c-0.4,0.1,0.1,0.4-0.2,0.8c-0.2-0.4-0.1-1.5-0.6-1.9
						c-0.1-1-0.5-2-0.5-3.3c0-0.2,0.1,0.1,0.2,0c0,0-0.1-0.3-0.1-0.1c-0.1,0,0-0.2-0.1-0.2c0-1.4-0.3-2.9-0.4-4.2
						C333.3,46.3,333.4,45.7,333.5,44.9z M339.9,64.7c0.2-0.2-0.1-0.3,0-0.3c-0.1-0.1-0.1-0.1-0.3-0.1c0,0.1,0.1,0.1,0.1,0.1l0,0
						l0,0c0,0,0,0,0,0.1c0.1,0.1-0.2-0.1,0-0.1l0,0c-0.2,0-0.2-0.2-0.2-0.4c-0.1-0.2-0.3-0.3-0.3-0.6c-0.1-0.2-0.3-0.2-0.3-0.4
						c0.1,0,0.1,0.2,0.2,0.3c0.2-0.1,0-0.2,0.1-0.3c-0.1,0-0.1-0.1-0.2-0.1c0.1-0.5-0.1-0.7-0.2-1.1c0.2,0.4,0.5,0.8,0.5,1.2
						c0,0.1,0.1,0.1,0.1,0.2c0,0.1,0,0.2-0.1,0.2c0.1,0.1,0.3,0.1,0.2,0.3c0.3,0.1,0.3,0.3,0.5,0.5c-0.1,0.4,0.3,0.6,0.2,0.9
						C340.1,65,340.1,64.8,339.9,64.7z M339.9,65.2C339.9,65.2,339.9,65.2,339.9,65.2c-0.1,0.1-0.1,0-0.1,0
						C339.8,65.2,339.9,65.2,339.9,65.2C339.9,65.1,339.9,65.2,339.9,65.2z M338.8,62.7c-0.2-0.1-0.3-0.2-0.2-0.5
						c0.2,0,0.3,0.2,0.3,0.4C338.8,62.6,338.8,62.7,338.8,62.7z M340.5,65.6c-0.3,0-0.4-0.2-0.4-0.5
						C340.3,65.3,340.5,65.4,340.5,65.6z M340.2,65.1c0-0.1,0.1,0.1,0.1,0.1C340.3,65.3,340.3,65.1,340.2,65.1z M340,64
						c0.2-0.1,0.3,0.2,0.3,0.4C340.1,64.4,340.2,64.1,340,64z M337.7,59.3c0.3,0.5,0.5,1.2,0.6,1.9c-0.1-0.3-0.3-0.5-0.4-0.8
						c0,0,0.1,0.1,0.1,0.1C337.9,60.1,337.8,59.7,337.7,59.3z M336.1,40c0,0,0,0.1,0,0.1c0,0.1-0.1,0.4-0.1,0.6c0,0.1,0,0.2,0,0.4
						c0,0.6-0.2,1.1-0.3,1.6c-0.1,0.8-0.1,1.6-0.2,2.4c0,0-0.1-0.1-0.1-0.1c-0.1-0.4,0.1-0.7,0.2-1.1c0-0.4-0.1-0.8-0.1-1.1
						c0-0.2,0.1-0.3,0.2-0.4c0-0.1-0.1-0.3,0-0.5c0-0.2,0.1-0.3,0.1-0.5c0.2-0.8,0.1-1.6,0.5-2.4C336.4,39.3,336,39.5,336.1,40z
						 M336.4,45.5c0,0.8,0,1.3-0.1,2.1c0,0-0.1,0-0.1-0.1c0-0.5,0-0.9,0.1-1.4C336.3,45.9,336.2,45.7,336.4,45.5z M336.2,38.8
						c0-0.1-0.1-0.4,0.1-0.3C336.3,38.6,336.4,38.8,336.2,38.8z M336.2,48.3c0.1,0,0.1,0.2,0.1,0.3
						C336.1,48.5,336.2,48.4,336.2,48.3z M336.6,49.3c0,0.8,0,1.3-0.1,2.1c-0.2-0.7-0.3-1.7-0.2-2.4
						C336.3,49.2,336.4,49.2,336.6,49.3z M336.4,44.7C336.4,44.5,336.5,44.7,336.4,44.7C336.4,44.8,336.4,44.7,336.4,44.7z
						 M336.6,52.3c-0.1-0.3-0.2-0.6-0.2-0.9C336.7,51.6,336.6,52,336.6,52.3z M336.6,47.2c-0.2-0.4-0.1-1.3-0.1-1.7
						c0-0.3,0.1-1.1,0.1-1.7c0.2,0.8,0,1.6,0,2.5c0,0.1,0.1,0.2,0.1,0.4c0,0.1,0,0.2,0,0.3c0,0.1,0.1,0.3,0.1,0.4
						c0.1,0.6-0.1,1.3-0.1,1.9C336.6,48.8,336.4,47.7,336.6,47.2z M336.6,37.2c0,0.3,0,0.6-0.1,0.8c0,0.1-0.1,0.3-0.2,0.3
						c0.1-0.6,0.1-1.1,0.3-1.5c-0.2-0.3,0.3-0.7,0.1-0.7c0-0.1,0,0,0.1,0c0-0.8,0.3-1.7,0.6-2.4C337.3,34.9,337,36.2,336.6,37.2z
						 M337.1,54.9c0.2,0.2,0-0.2,0-0.3c0.2,0.2,0.1,0.4,0.1,0.6c0.1,0.5,0.3,0.9,0.3,1.5c0,0-0.1,0-0.1-0.1c0-0.5-0.2-1.1-0.3-1.5
						C337.2,55,337.1,55,337.1,54.9z M337.4,33.7c0.1-0.3,0.1-0.7,0.3-1C337.7,32.9,337.6,33.5,337.4,33.7z M337.8,31.9
						c-0.1-0.2,0-0.5,0.1-0.7c0.2-0.7,0.3-1.3,0.7-1.9C338.5,30.1,337.9,30.9,337.8,31.9z M337.8,30c0-0.1,0.1,0,0,0.1
						C337.8,30.2,337.8,30.1,337.8,30z M338.5,63.9C338.3,63.8,338.5,63.6,338.5,63.9L338.5,63.9z M338.4,62.9c0-0.1,0.1,0.1,0.1,0
						C338.5,63.1,338.4,62.9,338.4,62.9z M338.4,62c0.2,0,0,0.1,0.2,0.2C338.5,62.3,338.3,62.1,338.4,62z M335.9,56.5
						c-0.1,0-0.1-0.1-0.1-0.2C335.9,56.3,335.9,56.5,335.9,56.5z M334.4,60.4C334.6,60.4,334.3,60.4,334.4,60.4
						C334.4,60.2,334.5,60.3,334.4,60.4z M334.3,59.7c0.1,0.1,0.1,0.2,0.1,0.4C334.3,60.1,334.3,59.9,334.3,59.7z M333.3,60
						c0.3,0.2,0.2,0.6,0.3,0.9C333.4,60.7,333.3,60.3,333.3,60z M333.6,57.9c0-0.1-0.1-0.3,0-0.4c-0.3-0.6-0.4-1.4-0.5-2.1
						c0.2,0.1,0.2,0.4,0.2,0.5c0.2,1,0.5,1.9,0.7,3c0,0.1,0.1,0.2,0.2,0.3c0,0.2,0,0.3,0,0.5c-0.1,0-0.1,0-0.1,0
						C334,59,333.7,58.4,333.6,57.9z M333.9,59.8c0.1-0.1,0.2,0.2,0.2,0.3c0.1,0.2,0.2,0.4,0.3,0.7c0.4,0.7,0.8,1.4,1,2.3
						c-0.1-0.4-0.5-0.7-0.4-1C334.2,61.4,334.1,60.6,333.9,59.8z M334.6,63.9c-0.3-0.3-0.5-0.7-0.5-1.3c0.3,0.3,0.4,0.7,0.6,1.1
						C334.7,63.8,334.6,63.8,334.6,63.9z M336.2,66c-0.5-1-1.1-2.1-1.5-3.1c0,0.1,0.3,0.2,0.2,0.1C335.5,63.5,335.9,65.1,336.2,66
						C336.3,66.1,336.3,66,336.2,66z M339.9,70.2c-0.1,0-0.1-0.1-0.1-0.1C339.9,70.1,339.9,70.1,339.9,70.2
						C339.9,70.1,339.9,70.2,339.9,70.2z M342.4,72.8c-0.2,0-0.2,0.1-0.2,0.2c-0.3-0.2-0.4-0.3-0.6-0.7c-0.3-0.1-0.4-0.4-0.6-0.7
						c-0.2-0.2-0.4-0.3-0.5-0.5c-0.1-0.2-0.1-0.5-0.4-0.5c0-0.1,0-0.2,0.1-0.3c-0.2-0.5-0.5-0.9-0.7-1.4c-0.4-0.2-0.6-0.8-0.9-1.2
						c-0.1-0.2-0.3-0.4-0.5-0.7c-0.2-0.3-0.4-0.7-0.6-1c0-0.1,0-0.3-0.1-0.3c0-0.7-0.6-1.1-0.6-1.8c0,0-0.1,0-0.1-0.1
						c0.1-0.6,0.1-0.8-0.1-1.4c-0.1-0.1-0.2,0-0.3-0.1c-0.4-1.8-1.2-3.5-1.3-5.4c0.2,0.2,0.2,0.6,0.3,0.9c0.1,0.2,0.2,0.4,0.3,0.5
						c0,0.5,0.4,0.6,0.5,0.9c0,0.3,0.1,0.4,0.2,0.6c0,0.8,0.5,1.6,0.5,2.3c0,0.1,0.2,0.2,0.2,0.3c0.1,0.4,0.1,0.8,0.3,1
						c0,0.4,0.4,0.4,0.3,0.8c0.2,0.3,0.4,0.7,0.5,1.1c-0.1,0-0.1,0-0.2,0c0.1,0.1,0.1,0.3,0.3,0.2c0,0.1,0,0.1,0.1,0.1
						c0,0.4,0.3,0.5,0.4,0.8c0.7,0.4,1,1.3,1.4,2.1c0.4,0.8,0.9,1.6,1.5,2.2c0,0.1-0.2,0-0.3,0c0.1,0.2,0.1,0.3,0.2,0.4
						c0.2-0.1-0.1-0.2,0.1-0.3c0.3,0.2,0.3,0.6,0.6,0.8c-0.1,0.2,0.1,0.3,0.1,0.5c-0.5-0.3-0.9-0.8-1.4-1.3c0,0.4,0.4,0.7,0.7,1
						c0.2,0.2,0.6,0.6,0.9,0.7c0,0,0,0.1,0,0.1c0.2,0,0.4,0.4,0.6,0.3c0.2,0.5,0.6,0.9,0.9,1.2c0,0.1-0.1,0.1-0.1,0.1
						c0.1,0.3,0.4,0.3,0.4,0.6C343.7,74.2,342.9,73.6,342.4,72.8z M340.7,68.3c0.2,0,0.2,0.5,0.3,0.6
						C340.9,68.9,340.6,68.5,340.7,68.3z M341.1,69.1c0.1,0,0.1,0.2,0.1,0.3C341.1,69.3,341,69.2,341.1,69.1z M344.8,77.5
						C345.1,77.6,344.9,77.7,344.8,77.5L344.8,77.5z M346.4,76.3c-0.2,0-0.3-0.2-0.5-0.2c0-0.2-0.3-0.1-0.1-0.2c-0.1,0-0.1,0-0.1,0
						c-0.3-0.3-0.7-0.6-1-0.9c0-0.1,0-0.1,0-0.1c0.6,0.4,1,1,1.7,1.3c0.1-0.3-0.1-0.3-0.3-0.5c-0.4-0.3-0.8-0.7-1.1-1
						c0.1-0.1,0.4,0.1,0.5,0.3c0.2,0.1,0.4,0.3,0.5,0.4c0.2,0,0.3,0.1,0.4,0.2c0,0.3,0.4,0.4,0.2,0.7c0.2,0.3,0.6,0.3,0.7,0.7
						C347,77,346.7,76.5,346.4,76.3z M349.2,75.9c-0.1,0-0.2,0.1-0.3,0.1c-0.8-0.7-1.5-1.5-2.3-2.2c0,0.2,0.3,0.4,0.5,0.6
						c-0.3,0.1-0.4-0.4-0.7-0.5c-0.2-0.4-0.7-0.6-1-1c-0.3-0.4-0.5-1-0.9-1.4c-0.2-0.2-0.4-0.4-0.5-0.6c-0.2-0.3-0.4-0.5-0.6-0.9
						c-0.1-0.1-0.2-0.3-0.4-0.3c0.1,0.1,0.2,0.2,0.3,0.4c-0.1,0-0.2-0.2-0.3-0.2c0.1,0.6,0.5,1,0.9,1.4c0.3,0.4,0.6,1,0.9,1.4
						c0.1,0.1,0.2,0.1,0.2,0.3c0.4,0.2,0.4,0.6,0.5,0.9c0.1,0.2,0.3,0.4,0.4,0.5c0.1,0.1,0,0.1,0,0.1l0,0c0.1,0,0.1,0.2,0.2,0.2
						c0.2,0.2,0.5,0.4,0.7,0.7c-0.5,0-0.7-0.6-1.1-0.8c-0.1-0.1-0.2-0.2-0.4-0.3c-0.3,0-0.4,0.3-0.7,0.3c-0.1-0.1,0.1-0.2,0-0.3
						c-0.2,0,0,0.2-0.1,0.2c-0.3,0,0-0.4,0.1-0.3c-0.2-0.2-0.4-0.2-0.5-0.4c0,0,0.2-0.1,0.3,0c0.1,0,0-0.1,0.1-0.2
						c-0.1-0.1-0.2-0.2-0.5-0.1c-1-1.2-1.8-2.5-2.6-3.9c0.3,0.3,0.6,0.6,1,0.9c0,0.3,0.3,0.5,0.4,0.8c0,0,0,0.1,0,0.1
						c0,0,0.1,0,0.1,0.1c0.1,0.1,0.1,0.4,0.2,0.5c0.2,0.3,0.7,0.6,0.8,1c0.2,0.2,0.3,0.4,0.5,0.5c0.1,0-0.1-0.1,0-0.1
						c-0.4-0.8-1.1-1.3-1.5-2.1c-0.3-0.3-0.5-0.7-0.7-1c0.1-0.2,0.1,0.1,0.3,0c0.1,0.4,0.5,0.5,0.7,0.9c0.1,0,0.1,0,0.2,0
						c0,0,0,0.1,0,0.1c0,0,0-0.1,0-0.1c0-0.1-0.2-0.1-0.2-0.1c0-0.1-0.1-0.2-0.1-0.3c-0.5-0.4-0.9-0.9-1.3-1.3
						c-0.2-0.5-0.8-0.7-0.8-1.3c0-0.1-0.1-0.2-0.2-0.2c0.1-0.1,0.1-0.3-0.1-0.4c-0.2,0.1,0.1,0.1,0,0.3c-0.2-0.1-0.1-0.1-0.1-0.2
						c-0.2,0.1,0.2,0.3,0,0.4c-0.2-0.1-0.1-0.4-0.3-0.4c0-0.1,0.1-0.2,0.2-0.1c0-0.1-0.2-0.1-0.1-0.1c-0.1,0,0.1,0.1,0,0.1
						c-0.2,0.1-0.2-0.3-0.1-0.3c-0.5-0.4-0.6-1.3-1-1.9c0.3,0.1,0.3,0.5,0.4,0.8c0.2,0.2,0.3,0.6,0.5,0.8c-0.1-0.7-0.4-1.1-0.7-1.8
						c0-0.2,0-0.5-0.2-0.5c-0.1,0.1,0.1,0.2,0.1,0.4c-0.4-0.2-0.5-0.7-0.6-1.1c0.1,0,0.4,0.3,0.4,0.6c0.1,0,0.1,0,0.1-0.1
						c0.2,0.2,0.3,0.2,0.4,0.4c0,0-0.1,0.2,0,0.2c0,0.2,0.2,0.2,0.3,0.3c-0.1,0.1-0.1,0.1-0.1,0.2c0.1,0.2,0.5,0.4,0.4,0.6
						c0.3,0.2,0.5,0.4,0.7,0.8c0,0,0-0.1,0-0.2c0.1,0.1,0.2,0.1,0.3,0.2c0,0.1-0.1,0.1-0.2,0.1c0.1,0.2,0.4,0.2,0.5,0.3
						c-0.1,0.2-0.1-0.2-0.3-0.1c0,0.2,0.3,0.3,0.4,0.4c0,0,0,0.1,0.1,0.2c0.1,0.2,0.1,0.2,0.4,0.3c0-0.4-0.4-0.6-0.5-0.9
						c-0.1-0.1-0.1-0.1-0.3-0.1c0-0.2,0.1-0.4-0.1-0.3c-0.1,0,0.1-0.1,0.1-0.1c0-0.2-0.1-0.2-0.2-0.3c0.1-0.1,0.2,0.1,0.4,0.2
						c-0.1-0.2-0.4-0.8-0.7-0.7c-0.1-0.1-0.1-0.4-0.3-0.6c0,0,0.1,0,0.1,0c-0.1-0.2-0.4-0.5-0.3-0.7c0.4,0.2,0.4,0.6,0.7,0.9
						c0.5,1,1.1,1.8,1.5,2.8c0.1,0,0.1,0.2,0.3,0.1c0,0.3,0.3,0.4,0.4,0.7c-0.2,0-0.3-0.3-0.6-0.3c-0.1-0.1,0-0.1,0-0.1
						c-0.2,0-0.2,0-0.3,0.1c0.1,0.1,0.3,0.3,0.2,0.4c0.2,0.1,0.4,0.3,0.5,0.5c0.1-0.1-0.2-0.2,0-0.3c0.4,0,0.4,0.5,0.8,0.6
						c-0.2,0.3,0.3,0.5,0.1,0.6c0.1,0.1,0.2,0.2,0.3,0.3c0.1,0.5,0.7,1.1,1.1,1.5c0.3,0.3,0.5,0.5,0.7,0.7c0.2,0.2,0.6,0.4,0.8,0.6
						c0.1,0.1,0.1,0.3,0.3,0.3C347.8,74.6,348.3,75.3,349.2,75.9c0.1,0.3,0.5,0.3,0.6,0.7C349.5,76.4,349.2,76.3,349.2,75.9z
						 M340.7,66.1c0.2,0,0.2,0.2,0.2,0.3c-0.1,0.1-0.2,0-0.3,0c0-0.1,0.1,0,0.2,0C340.9,66.2,340.7,66.2,340.7,66.1z M341,66
						C341,66,341,66.1,341,66C341,66.2,340.9,66,341,66z M350,79.1c0.2,0.1,0.3,0.2,0.4,0.3C350.2,79.4,350,79.3,350,79.1z
						 M350.5,79.6c0.2,0,0.1,0.2,0.3,0.2C350.7,79.9,350.5,79.7,350.5,79.6z M351.6,66.8c0.3,0.1,0.3,0.4,0.5,0.5
						C352,67.3,351.7,67,351.6,66.8z M415.9,23.8c0.1,0.1,0,0.2,0,0.4c0.1,0.2,0.2,0.1,0.3,0.1c0,0.2,0.1,0.4,0.2,0.5
						c-0.1,0.2-0.3,0.2-0.2,0.5c0.2,0,0.1-0.2,0.3-0.2c0.3,0.5-0.1,1,0.2,1.4c0.1,0,0.1-0.1,0.2-0.2c0.5,1.2,0.8,2.6,1.2,3.9
						c-0.2-0.2-0.2-0.5-0.3-0.7c-0.1-0.2-0.2-0.3-0.3-0.5c-0.3-0.5-0.4-1.2-0.6-1.8c0-0.2,0.2-0.1,0.1-0.2c0-0.1-0.1,0-0.2,0
						c-0.2-0.4-0.4-0.9-0.6-1.4c-0.1-0.2-0.2-0.4-0.3-0.8c-0.1-0.2-0.3-0.5-0.1-0.6c-0.2-0.2-0.3-0.4-0.3-0.7
						C415.7,23.4,415.6,24,415.9,23.8z M418.1,55.8c0.2,0-0.1,0.3,0,0.6C418,56.2,418,55.9,418.1,55.8z M416.3,60.8
						c0.1,0,0,0.2,0,0.2C416.2,61,416.3,60.8,416.3,60.8z M416.3,60.5C416.2,60.3,416.4,60.2,416.3,60.5L416.3,60.5z M415.8,63.1
						c-0.2-0.2-0.3-0.8,0.1-0.9c0,0.1,0.1,0.3-0.1,0.5C415.9,62.9,415.9,63,415.8,63.1z M415.8,62c0.1-0.1,0,0.1,0.2,0.1
						C416,62.2,415.8,62.1,415.8,62z M416,61.8c-0.1-0.2,0-0.5,0.1-0.6C416.2,61.3,416,61.6,416,61.8z M415.7,23.2
						c-0.1,0.2-0.3,0-0.3-0.1C415.5,23.1,415.6,23.2,415.7,23.2z M415.6,63.9c0,0.2,0,0.2-0.1,0.3c-0.1,0,0.1-0.1-0.1-0.1
						C415.4,64,415.5,63.9,415.6,63.9z M415.3,22.7c0.1,0.1,0.1,0.2,0,0.2C415.2,22.9,415.2,22.7,415.3,22.7z M415.4,23.7
						c-0.1,0-0.1-0.1-0.1-0.1C415.3,23.6,415.4,23.6,415.4,23.7z M415.1,22.5C415.1,22.4,415.2,22.5,415.1,22.5
						C415.1,22.7,415.1,22.5,415.1,22.5z M414.7,63.4c0.1,0.1,0,0.2,0,0.3C414.5,63.7,414.6,63.4,414.7,63.4z M409.7,15.9
						c0,0.1,0,0.2,0,0.2c0.9,0.6,1.3,1.6,1.8,2.5c-0.1,0-0.1-0.1-0.2-0.1c0-0.1,0-0.1-0.1-0.1c0-0.1-0.1-0.2-0.2-0.3
						c-1-1.3-2-2.6-3.1-3.8C408.6,14.8,409,15.5,409.7,15.9z M402.1,33.1c-0.1,0.1-0.1-0.2-0.2-0.4C402,32.9,402,33.1,402.1,33.1z
						 M401.4,31.7c-0.2-0.1-0.3-0.4-0.4-0.6C401.2,31.2,401.3,31.5,401.4,31.7z M401.8,32.6c-0.3-0.1-0.2-0.5-0.4-0.6
						c0,0,0-0.1,0-0.1C401.6,32.1,401.7,32.3,401.8,32.6z M400.9,32.2c-0.1,0-0.1-0.1-0.1-0.2C400.9,32,400.9,32.1,400.9,32.2z
						 M400.5,30.1c0.1,0,0.1,0.1,0.1,0.2c0,0-0.1,0-0.1,0C400.4,30.2,400.5,30.1,400.5,30.1z M400.6,31c0,0.1-0.2,0.1-0.1-0.1
						C400.5,30.9,400.5,31,400.6,31z M400.3,30c-0.1-0.1-0.2-0.2-0.2-0.4C400.2,29.7,400.3,29.8,400.3,30z M399.6,29
						c-0.1,0-0.1-0.2-0.2-0.2C399.5,28.8,399.6,29,399.6,29z M392.9,3.8c-0.1-0.1,0.2-0.1,0-0.2c0.1,0,0.2,0.2,0.2,0.4
						C392.9,4,393,3.8,392.9,3.8z M395.5,25c0-0.1-0.1-0.1-0.2-0.1c-0.1-0.4-0.4-0.5-0.5-0.8c-0.5-0.5-0.9-1.2-1.4-1.8
						c-0.1-0.1-0.4-0.3-0.3-0.5c0.2-0.1,0.1,0.1,0.2,0.2c0.4,0.5,1.1,0.7,1.3,1.4c0.2,0.3,0.5,0.4,0.7,0.7c0.2,0,0-0.2,0-0.3
						c0.7,0.4,1.1,1.3,1.7,1.7c0,0.1-0.1,0.1-0.1,0.2c0.2-0.1,0.1-0.1,0.2,0c-0.1,0.2,0.1,0.3,0.1,0.5c0.2-0.1-0.1-0.2,0-0.4
						c0.1,0.2,0.3,0.2,0.3,0.5c-0.1,0-0.1-0.1-0.2-0.1c0.1,0.2,0.1,0.3,0.3,0.4c0.2-0.1,0-0.1,0-0.2c0.3,0.2,0.6,0.4,0.7,0.8
						c0.4,0.4,0.7,1,1.1,1.5c-0.1,0.1-0.3-0.1-0.3-0.2c-0.3-0.1-0.4-0.5-0.6-0.6c0-0.2-0.1-0.2-0.1-0.3c-0.1-0.1-0.1,0-0.2,0
						c0-0.2,0-0.3-0.2-0.3c0,0.2,0.2,0.3,0.3,0.5c0.1,0.2,0.2,0.4,0.3,0.5c0.3,0.3,0.6,0.9,0.9,1.3c0.2,0.3,0.5,0.4,0.5,1
						c-0.7-0.9-1.2-2-2.1-2.7c0-0.2-0.1-0.4-0.3-0.4c0-0.4-0.4-0.4-0.4-0.6c-0.5-0.2-0.8-0.7-1.1-1.1c-0.3,0-0.3-0.4-0.6-0.4
						c-0.1,0,0,0.2,0,0.2C395.6,25.4,395.6,25.1,395.5,25z M398.5,30.5c0-0.1,0.1,0.1,0.1,0.1C398.4,30.7,398.6,30.5,398.5,30.5z
						 M398.8,31.2c-0.1,0-0.1-0.1-0.1-0.1c0,0,0,0,0.1,0c0,0,0,0,0.1,0C398.8,31.1,398.8,31.2,398.8,31.2z M398.8,31
						c-0.1-0.1-0.1-0.2-0.2-0.2c0-0.1,0.2,0,0.2,0C398.8,30.8,398.8,30.9,398.8,31z M399,31.7c0.1-0.2,0.2,0.1,0.3,0.2
						C399.1,31.8,399.1,31.7,399,31.7z M399.2,30.3c-0.2-0.4-0.4-0.8-0.7-1.2c-0.1-0.2-0.2-0.3-0.4-0.5c-0.1-0.2-0.3-0.4-0.5-0.5
						c-0.2-0.2-0.3-0.5-0.5-0.8c-0.2-0.3-0.4-0.5-0.6-0.9c-0.1-0.1-0.2-0.2-0.3-0.4c-0.1-0.2-0.4-0.4-0.4-0.6
						c0.7,0.4,1.1,1.3,1.7,1.9c0.1,0.2,0.3,0.2,0.4,0.4c0.2,0.2,0.3,0.6,0.6,0.8c0.1,0.3,0.4,0.5,0.5,0.8c0.1,0.1,0.2,0.2,0.3,0.3
						c-0.2,0,0.1,0.5,0.4,0.5c-0.2,0.3,0.2,0.5,0.3,0.8c0.1,0,0.2,0,0.2,0c0.1,0.1-0.2,0.2,0,0.4c0,0,0.1-0.1,0.1-0.1
						c0.2,0.2,0.5,0.6,0.5,0.9c-0.1-0.1-0.1-0.3-0.4-0.2c0.1,0.3,0.3,0.4,0.4,0.7c-0.5-0.5-0.9-1.3-1.3-2
						C399.4,30.4,399.3,30.3,399.2,30.3z M400.5,33.5c-0.1,0-0.2-0.1-0.2-0.3C400.4,33.3,400.5,33.4,400.5,33.5z M400.2,33.1
						c-0.1,0.1-0.2-0.1-0.2-0.3C400.2,32.8,400.1,33.1,400.2,33.1z M400.1,32.2c0.1,0,0.1,0.1,0.1,0.2
						C400.1,32.3,400,32.3,400.1,32.2z M399.5,32.3c0.1,0,0,0.2,0.1,0.2C399.6,32.6,399.4,32.4,399.5,32.3z M400.6,34.6
						c-0.2-0.4-0.5-0.8-0.5-1.2c0,0-0.1-0.1-0.2-0.1c0-0.1,0.1-0.1,0.1-0.2c-0.1,0,0-0.1-0.2-0.2c0.3,0.2,0.6,0.9,0.9,1.3
						c0,0.1,0,0.1-0.1,0.1c0.2,0.3,0.3,0.6,0.5,1C400.8,35.3,400.7,34.9,400.6,34.6z M400.6,33.6c0.3,0.3,0.5,0.7,0.8,0.9
						c0,0.4,0.1,0.6,0.4,0.7c-0.1-0.3-0.4-0.6-0.3-0.9c0-0.1-0.2,0-0.2-0.1c0.3-0.7-0.7-1.1-0.6-1.9c0.4,0.9,1,1.5,1.1,2.6
						c0.3,0.2,0.3,0.8,0.4,1.2c-0.2,0-0.1-0.3-0.4-0.3c0.1-0.2,0-0.2,0.1-0.3c-0.1-0.2-0.3,0-0.3-0.3c-0.1,0.1-0.1,0.1-0.3,0
						c0-0.2-0.1-0.4-0.3-0.4C401.2,34.4,400.5,34.1,400.6,33.6z M401.7,36c0-0.1-0.2-0.3,0.1-0.3C401.7,35.8,401.8,35.8,401.7,36z
						 M402.9,40.6c0.1,0.2,0.2,0.3,0.2,0.6C402.9,41.2,403,40.9,402.9,40.6z M403.2,40.5c-0.2,0.1-0.1-0.2-0.3-0.1
						c0,0,0.1,0.1,0,0.2c-0.2-0.1,0-0.6-0.3-0.8c-0.3-1.6-0.9-2.7-1.4-4.1c0.2,0.1,0.3,0.2,0.3,0.4c0.5,0.7,0.6,1.6,1.1,2.3
						c0.2-0.3-0.1-0.7-0.2-0.9c-0.1-0.2-0.2-0.5-0.3-0.8c0.1,0,0.2,0,0.2,0c0.2,0,0.1,0.2,0.2,0.3c0.1,0.3,0.3,0.5,0.3,0.8
						c0,0.3-0.1,0.6-0.1,0.9c0,0.2,0.2,0.4,0.2,0.6c0,0.1,0,0.2,0,0.3C403,39.9,403.2,40,403.2,40.5z M403.2,36.5
						c-0.1-0.1-0.2-0.2-0.2-0.3c0,0,0.2,0.1,0.1-0.1C403.2,36.2,403.1,36.3,403.2,36.5z M402.9,37.2c-0.2-0.1-0.2-0.4-0.2-0.6
						C402.9,36.7,403,37,402.9,37.2z M402.8,35.8C402.8,36,402.7,35.4,402.8,35.8L402.8,35.8z M404,45.4c0.1,0,0.1,0.2,0.1,0.3
						C404,45.8,403.9,45.5,404,45.4z M403.8,44.5c0.2,0.2,0.2,0.5,0.3,0.8C403.8,45.2,403.8,44.9,403.8,44.5z M404.1,45.9
						c0.2,0.3,0.2,0.6,0.2,1C404.1,46.6,404.1,46.2,404.1,45.9z M404.2,43.9c-0.1-0.4-0.1-0.9-0.2-1.4c0-0.1-0.1-0.2-0.1-0.2
						c0-0.1,0.1-0.1,0.1-0.2c-0.1-0.7-0.4-1.4-0.4-2.3c-0.2-0.3-0.3-0.9-0.3-1.3c0.3,0.2,0.3,0.6,0.4,1c0.1,0.4,0.3,0.9,0.5,1.3
						c0.1,0.8,0.4,1.4,0.5,2.2c0-0.3,0-1-0.1-1.5c-0.2-1-0.5-1.9-0.8-2.9c-0.1-0.2-0.2-0.5-0.2-0.8c-0.1-0.3-0.3-0.6-0.3-0.9
						c0-0.2,0-0.3,0-0.5c-0.1-0.3-0.4-0.7-0.5-1.2c-0.2,0-0.3,0-0.3-0.2c0-0.2,0.1,0,0.2,0c-0.1-0.4-0.5-0.7-0.7-1.1
						c-0.1-0.2-0.1-0.4-0.2-0.5c-0.1-0.1-0.2-0.2-0.2-0.4c0.2,0.2,0.3,0.4,0.4,0.6c0.1,0,0-0.2,0-0.3c0.2,0.1,0.2,0.5,0.3,0.6
						c-0.1,0.1-0.2-0.2-0.3-0.3c-0.2,0.3,0.2,0.5,0.4,0.7c0,0.2,0.2,0.3,0.3,0.5c0.3,0.4,0.5,1,0.7,1.6c0,0.1,0,0.1-0.1,0.1
						c0.1,0.2,0.2,0.5,0.5,0.6c0,0.7,0.5,1.3,0.6,2c0,0.1,0,0.2,0,0.3c0.1,0.3,0.2,0.5,0.4,0.7c0,0.1,0,0.1,0,0.2
						c0,0.1,0.1,0.2,0.1,0.2c0.1,0.5,0.2,1.1,0.4,1.7c0,0.2-0.1,0.2-0.1,0.3c0,0.1,0.1,0,0.1,0.1c0,0.2-0.1,0.3-0.1,0.3
						c0.4,0.3,0.3,1,0.4,1.6c0.1,0.4,0.1,0.9,0.1,1.4c0,0.3,0.1,0.7,0.1,1c0,0.6-0.1,1.2,0,1.9c-0.3-0.1,0-0.7-0.2-0.8
						c0.2-0.2,0.2-1.2-0.2-0.9c0,0.1,0,0.1,0,0.1c-0.2,0.4,0.2,1,0.1,1.7c0,0.1,0.1,0.1,0.2,0.1c-0.2,0.1-0.1,0.6-0.2,0.8
						c-0.1-0.3-0.2-0.6-0.1-0.8c-0.2-0.5-0.2-1.3-0.2-1.9c0-0.1,0.2-0.1,0.1-0.2c0-0.1,0-0.2-0.2-0.2c0.1-0.6-0.2-1.1-0.1-1.6
						c0-0.1-0.1-0.1-0.2-0.2c0-0.6-0.3-1.1-0.4-1.8c0,1,0.4,2.1,0.5,3.3c-0.2-0.1-0.1-0.4-0.2-0.5c-0.1-0.4-0.2-0.7-0.3-1
						c-0.2,0,0,0.2-0.2,0.2C404.6,44.5,404.3,44.3,404.2,43.9z M405.8,51.6c-0.1,0.6-0.2,1.5-0.3,2.2c-0.2-0.2,0.1-0.7-0.1-1
						c0-0.1,0.1-0.1,0.2-0.2c-0.1-0.3,0-0.4-0.1-0.6c0.1,0.1,0.2,0,0.2,0c0.1-0.8,0-1.4,0-2.1c0.4,0.3,0.2,0.6,0.1,1.2
						C405.8,51.2,405.8,51.4,405.8,51.6z M405.3,50.1c0.2,0,0,0.4,0.1,0.5c-0.1,0-0.1,0-0.1,0C405.4,50.4,405.4,50.4,405.3,50.1z
						 M405.4,54c-0.1,0,0-0.1,0-0.2C405.6,53.9,405.4,54,405.4,54z M405.1,77.8C405.1,78,405,77.7,405.1,77.8
						C405.2,77.6,405.1,77.7,405.1,77.8z M404.8,53.9c-0.1-0.2,0.1-0.6,0.1-0.8C404.9,53.4,404.9,53.8,404.8,53.9z M404.5,54.8
						c0-0.2,0.2-0.5,0.2-0.8c0.2,0.1,0,0.4-0.1,0.5c0.1,0.3-0.1,0.7-0.1,1C404.4,55.4,404.5,55.1,404.5,54.8z M403.3,58.3
						c0,0,0.1,0,0.1,0c0,0,0,0.1,0,0.1c0,0-0.1,0-0.1,0C403.3,58.4,403.3,58.3,403.3,58.3z M398,68.5c0.1-0.2,0.3-0.4,0.5-0.6
						c0.1-0.1,0.2-0.2,0.2-0.4c0.3-0.5,0.7-1.1,1-1.6c0.2-0.3,0.3-0.5,0.5-0.7c0.7-1.4,1.5-2.7,2-4.2c0.2-0.1,0.3-0.4,0.5-0.6
						c0-0.4,0.2-0.7,0.4-1c0.1-0.2,0.2-0.4,0.4-0.5c0.3-0.6,0.5-1.4,0.6-2.1c0-0.2,0-0.5,0.2-0.6c-0.2,1-0.4,2-0.9,2.9
						c-0.2,0.4-0.4,0.9-0.6,1.3c-0.1,0.2-0.3,0.4-0.4,0.6c-0.2,0.4-0.3,0.8-0.5,1.2c0,0-0.1,0.1-0.1,0.2c-0.2,0.4-0.3,0.7-0.5,1.1
						c-0.3,0.6-0.5,1.2-0.9,1.7c-0.3,0.5-0.7,1-1,1.6c-0.3,0.5-0.6,1.1-1,1.6c-0.2,0.2-0.4,0.3-0.5,0.5
						C397.9,68.6,397.9,68.6,398,68.5z M403.6,64.5c0,0.1-0.1,0.2-0.1,0.2C403.4,64.8,403.5,64.5,403.6,64.5z M402.4,63.2
						c-0.1,0,0-0.1,0-0.2C402.6,63,402.4,63.2,402.4,63.2z M401.2,80.6c-0.2-0.1-0.2,0.1-0.3,0.2c0.1-0.3,0.5-0.6,0.7-0.8
						C401.7,80,401.3,80.4,401.2,80.6z M401.1,81.5c-0.2,0-0.3,0.1-0.5,0.1c0.3-0.3,0.7-0.4,1-0.8C401.7,81.1,401.1,81.1,401.1,81.5
						z M401.3,66.1c0.1,0.1-0.2,0.3-0.2,0.5C401,66.3,401.3,66.2,401.3,66.1z M400.2,70.5c-0.1,0,0-0.1,0-0.2
						C400.4,70.4,400.2,70.5,400.2,70.5z M400.3,81C400,81,400.4,81,400.3,81L400.3,81z M400.6,81.7c0.1,0-0.2,0.2-0.3,0.4
						c-0.1,0-0.2,0-0.3,0C400.1,81.8,400.4,81.8,400.6,81.7z M400.5,81.1C400.4,81.3,400.4,81,400.5,81.1L400.5,81.1z M399.9,68.3
						c0,0-0.1,0-0.1,0.1C399.6,68.4,400,67.9,399.9,68.3z M399.5,82.3c0,0.2-0.4,0.3-0.6,0.4C398.9,82.5,399.4,82.4,399.5,82.3z
						 M398.8,82.1c0.1-0.2,0.3-0.3,0.5-0.4C399.3,81.8,399,82,398.8,82.1z M396.3,83.5c0.4-0.2,0.8-0.5,1.1-0.6
						c0.3-0.1,0.6-0.1,0.7-0.4c0,0,0,0.1,0.1,0.2c-0.6,0.4-1.5,0.6-1.9,1.1c-0.1,0.1-0.1,0-0.2,0c-0.1,0.1,0.1,0.2,0,0.2
						c-0.3-0.1-0.5,0.4-0.9,0.3C395.5,83.9,395.9,83.7,396.3,83.5z M395.2,70.4c0.1,0,0.2-0.1,0.3,0
						C395.5,70.4,395.3,70.4,395.2,70.4c-0.1,0.3-0.4,0.6-0.7,0.8C394.7,70.9,394.9,70.5,395.2,70.4z M394.6,71.6
						C394.4,71.6,394.8,71.3,394.6,71.6C394.6,71.6,394.6,71.6,394.6,71.6z M395.2,84.3c0,0-0.1,0.1-0.1,0.1
						c-0.4,0.1-0.7,0.4-1.2,0.5C394.3,84.7,394.7,84.4,395.2,84.3z M393.7,85c0.1,0,0.1,0,0.2,0c0,0-0.1,0.1-0.1,0.1
						C393.7,85.1,393.7,85.1,393.7,85C393.7,85,393.7,85,393.7,85z M393.3,85.2c0.1,0.1-0.2,0.2-0.2,0.3c-0.1,0-0.1-0.1-0.2,0
						C392.9,85.3,393.1,85.3,393.3,85.2z M391.7,73.2C391.5,73.1,391.9,73.1,391.7,73.2L391.7,73.2z M391.3,73.3
						c0,0.1-0.1,0.1-0.2,0.1C391,73.3,391.1,73.3,391.3,73.3z M390.8,73.5c-0.1,0.3-0.6,0.3-0.9,0.5C390,73.8,390.5,73.6,390.8,73.5
						z M390.4,74.5c0.2,0,0.2-0.1,0.4-0.1c0,0,0.1-0.1,0-0.1c0.1-0.1,0.3-0.1,0.5-0.1c0.1-0.1,0.1-0.2,0.2-0.3
						c0.6-0.2,1-0.7,1.6-0.8c0,0.2-0.2,0.2-0.4,0.3c-0.1,0.1-0.1,0.2-0.2,0.3c-0.2,0.2-0.5,0.2-0.8,0.3c-0.2,0.1-0.3,0.3-0.5,0.4
						c-0.1,0.1-0.3,0.1-0.4,0.1c-0.1,0.1-0.2,0.2-0.3,0.2c-0.2,0.1-0.6,0.1-0.7,0.3c-0.1,0-0.1,0-0.1,0
						C389.8,74.8,390.3,74.8,390.4,74.5z M392.8,84.5c-0.5,0.4-1.3,0.5-1.8,0.9c-0.1,0.1-0.3-0.1-0.3,0c-0.1-0.1,0.2-0.2,0.3-0.2
						c0.1-0.1,0.3-0.1,0.4-0.2C391.9,84.8,392.3,84.5,392.8,84.5z M389.2,75.3c-0.2,0.3-0.8,0.3-1.2,0.4
						C388.3,75.5,388.8,75.4,389.2,75.3z M388.2,77.9c0,0.2-0.3,0.1-0.4,0.2C387.8,77.9,388,77.9,388.2,77.9z M385.2,76.4
						c0.2,0,0.2-0.1,0.3-0.1C385.7,76.3,385.4,76.5,385.2,76.4C385.1,76.5,385.2,76.5,385.2,76.4z M382,77.3
						C382,77.2,382,77.2,382,77.3c0.2-0.1,0.4-0.1,0.7-0.1c0.2-0.1,0.2-0.1,0.6-0.1c0.6-0.1,1.3-0.5,1.8-0.5
						c-0.2,0.3-0.7,0.3-0.9,0.6c0.3-0.1,0.8-0.1,1-0.3c0.8,0,1.1-0.5,1.9-0.6c0.2-0.1,0.5-0.2,0.7-0.3c0,0,0.2,0,0.3,0
						c-0.7,0.4-1.7,0.7-2.7,1c-0.6,0.2-1,0.4-1.6,0.4c-0.2,0-0.3-0.1-0.4-0.1c-0.1,0,0,0.2-0.1,0c-0.1,0,0,0.1,0,0.2
						c-0.5,0-0.7,0.1-1.1,0.1C381.9,77.5,382,77.3,382,77.3C382,77.3,382,77.3,382,77.3z M384.9,86.9c-0.7,0.4-1.7,0.4-2.6,0.6
						C383,87.2,384,87.1,384.9,86.9z M376.7,85.6c0,0.1-0.2,0-0.3,0C376.4,85.6,376.7,85.7,376.7,85.6z M375.2,85.7
						c0,0.1-0.2,0.1-0.4,0.1C374.8,85.6,375.1,85.7,375.2,85.7z M369.8,86.1c0.6-0.2,1.3,0.2,2,0.2c0.1,0-0.1,0-0.2,0
						c-0.7,0-1.7,0-2.5-0.1C369.3,86,369.7,85.9,369.8,86.1z M370.4,88.3c-0.4,0.1-1.2-0.2-1.9-0.1C369.1,88,369.8,88.2,370.4,88.3z
						 M368.6,83.6c0.2,0,0.6,0,0.7,0.2c-0.2,0-0.5-0.1-0.9-0.1c-0.2,0-0.4,0.1-0.5-0.1C368.2,83.4,368.4,83.6,368.6,83.6z
						 M368.5,85.7c0,0.2-0.4-0.1-0.3,0.2c-0.4,0-1.1-0.1-1.3-0.4C367.5,85.3,368.1,85.6,368.5,85.7z M364.4,84.7
						c0.3,0.1,0.7,0,1,0.1c0,0,0.1,0,0.2,0.1c0.3,0.1,0.6,0.3,1.1,0.3c-0.7,0.2-1.5-0.1-2.1-0.4c-0.3,0-0.5-0.1-0.6-0.2
						c-0.4,0-0.5-0.1-0.8-0.2C363.6,84.4,364,84.6,364.4,84.7z M368.3,89.8c-0.8,0.1-1.6-0.2-2.3-0.3
						C366.8,89.4,367.5,89.8,368.3,89.8z M365.6,85.6c-0.1,0.1-0.5,0-0.5-0.1C365.3,85.4,365.4,85.5,365.6,85.6z M363.5,82.3
						c-0.1,0.1-0.3-0.1-0.5-0.1C363.2,82.1,363.4,82.2,363.5,82.3z M355.1,70.4c-0.2,0-0.5-0.4-0.6-0.5
						C354.7,69.9,354.9,70.2,355.1,70.4z M354.6,82.3c-0.2,0.1-0.4-0.3-0.7-0.3c0-0.2-0.1-0.2-0.2-0.2
						C353.9,81.7,354.3,82.3,354.6,82.3z M352.9,81.1c-0.1,0-0.1,0-0.1-0.1C352.8,81,353,81.1,352.9,81.1z M354.8,83.3
						c0.2-0.1,0.4,0.1,0.4,0.2C355,83.5,354.9,83.3,354.8,83.3z M358.5,85.2c-0.2-0.2-0.5-0.4-0.9-0.4c0-0.1-0.1-0.1-0.1-0.2
						c-0.6-0.2-1.3-0.5-1.7-1c-0.1,0-0.2-0.1-0.2,0c-0.3-0.3-0.8-0.8-1-0.6c-0.8-0.5-1.5-1.1-2.2-1.7c0.1-0.2,0.3,0.1,0.4,0.2
						c1,0.6,2.1,1.3,3.1,1.9c0.1,0,0.2,0,0.3,0.1c0.1,0.1,0.2,0.2,0.2,0.2c0.2,0,0.3,0.1,0.5,0c-0.1,0.1-0.2,0-0.3,0.1
						c0.3,0.3,0.8,0.6,1.1,0.9c0.2,0,0.2-0.1,0.3,0c0.2,0.2,0.5,0.4,0.9,0.5c0.3,0.2,0.7,0.4,1,0.6C359.4,85.8,359,85.2,358.5,85.2z
						 M360.3,86c0-0.2,0.2,0,0.3,0C360.5,86.1,360.4,85.9,360.3,86z M362.1,89c-0.2-0.1-0.3-0.2-0.5-0.3c0.1,0,0.3,0.1,0.5,0.1
						C362.1,88.9,362.1,88.9,362.1,89z M360.9,83.9c-0.1,0-0.1-0.2-0.1-0.2c-0.3-0.1-0.6-0.1-0.8-0.4c0.3,0.1,0.8,0.3,1.1,0.5
						c0.5,0.2,0.9,0.1,1.1,0.5c0.1,0,0.1,0,0.1,0c0.4,0.2,0.8,0.4,1.3,0.5c-0.2,0.1-0.7-0.1-1-0.1c0-0.1,0-0.1,0.1-0.1
						c-0.1-0.2-0.2,0-0.4,0c0,0,0,0,0,0C362,84.5,361.5,84.1,360.9,83.9z M363.5,89.3c-0.3-0.1-1,0-1-0.4
						C362.8,89.1,363.2,89,363.5,89.3z M362.3,89.4c0.1-0.2,0.5,0,0.8,0c0.2,0,0.6,0.1,0.8,0.2C363.4,89.7,362.8,89.5,362.3,89.4z
						 M368.1,90.3c-0.5,0.2-1.2,0.2-1.7-0.2c-1.1,0-1.9-0.5-2.9-0.7c0.3-0.1,0.6,0.1,0.9,0.2c0.8,0.2,1.8,0.3,2.6,0.5
						c0.6-0.1,1.2,0.2,1.7,0.1C368.6,90.5,368.4,90.3,368.1,90.3z M369,90.3c-0.1,0-0.1-0.1-0.2-0.1C368.8,90.2,369,90.2,369,90.3z
						 M371,90.9C371.1,90.7,371.3,90.9,371,90.9L371,90.9z M372.9,90.1C373,90,373.1,90.3,372.9,90.1L372.9,90.1z M374.9,90.7
						c1-0.2,1.8-0.2,3-0.3C377,90.8,376,90.7,374.9,90.7z M380.2,90.3c0.1-0.1,0.3-0.1,0.5-0.1C380.5,90.2,380.4,90.2,380.2,90.3z
						 M380.8,90.2c-0.1-0.1,0.1-0.2,0.1-0.1C380.9,90.2,380.8,90.2,380.8,90.2z M384.8,89.3c0.1-0.2,0.4-0.1,0.7-0.1
						C385.4,89.3,385.1,89.4,384.8,89.3z M385.5,89.2c0-0.1,0.2,0,0.3,0C385.8,89.2,385.6,89.2,385.5,89.2z M388.1,89
						c0.1-0.1,0.3-0.2,0.4-0.1C388.4,89.1,388.2,89,388.1,89z M394.8,85.2c-0.4,0.1-0.8,0.4-1.1,0.6c-0.5,0.1-1.1,0.3-1.6,0.5
						c-0.1,0-0.2,0.1-0.3,0.1c-0.3,0.1-0.7,0-0.8,0.4c0,0.1,0.2,0,0.2,0c-1,0.7-2.3,0.9-3.5,1.3c-0.1,0-0.2,0-0.3-0.1
						c-0.1,0,0,0.2,0,0.2c-0.7,0-1.4,0.3-2.1,0.4c-0.7,0.1-1.5,0.2-2.2,0.4c-0.7,0.1-1.4,0.2-2,0.3c-0.2,0.1-0.8,0.2-1.1,0
						c-0.1,0-0.1,0.1-0.1,0.2c-1,0.2-1.8,0.2-2.8,0.3c0.1,0,0.2-0.1,0.2-0.2c-0.1-0.1-0.2,0-0.3,0.2c-0.3,0-0.4,0-0.6,0
						c-0.7,0.2-2.1,0.1-3,0.3c-0.2,0-0.2-0.1-0.4-0.3c-0.1,0.1-0.3,0.1-0.4,0.1c0,0,0.1,0.1,0.1,0.1c0,0.1-0.1,0-0.1-0.1
						c-0.2,0.2-0.5,0.1-0.9,0.1c0.2-0.1,0.4,0,0.5-0.1c-0.1-0.3-0.5-0.1-0.9-0.1c-0.4,0-1-0.1-1.4-0.2c0-0.1,0.2,0,0.2-0.1
						c-0.4-0.1-0.9,0.1-1.6-0.1c-0.1,0-0.3-0.2-0.5-0.2c-0.1,0-0.3,0.1-0.4,0c-0.2-0.1-0.7-0.1-1-0.2c0.7,0,1.5,0.1,2.4,0.2
						c0.5,0.1,1,0,1.3,0.3c0-0.1,0.4,0,0.4,0c0.5-0.2,1.1,0.1,1.7,0.1c0.4,0,0.9,0,1.3,0c0.1,0,0.1,0.1,0.1,0.1
						c0.3,0.1,0.8-0.1,1.1,0c0,0,0.1-0.1,0.1-0.1c0-0.1,0.1-0.1,0-0.1c0.4-0.1,0.8-0.1,1.2-0.1c0,0-0.1,0-0.1,0c0.1-0.1,0.2,0,0.3,0
						c0.1,0,0.1-0.1,0.2-0.1c0,0.1,0.1,0,0.1,0.1c0.2-0.3,0.7-0.1,1-0.1c0.3,0,0.7-0.2,1.2-0.1c0.3,0.1,0.3,0.2,0.6,0.1
						c0-0.1-0.1-0.1-0.2-0.1c0.3,0,0.8-0.2,1.2-0.3c0.2,0,0.4,0,0.6,0c0.1,0,0.3-0.1,0.4-0.1c0.2,0,0.3,0,0.5,0
						c0.2,0,0.3-0.1,0.5-0.1c0.2,0,0.5,0.1,0.7,0c0.2,0,0-0.1,0.1-0.1c0.4,0,0.7-0.1,1.4-0.2c0.3,0,0.6-0.2,0.9-0.3
						c0.1,0,0.1,0.1,0.2,0.1c0.4,0,0.8-0.3,1.3-0.3c0.1,0,0.2,0.1,0.3,0.1c0.1,0,0-0.1,0-0.2c0.5,0,0.7-0.2,1.1-0.2
						c-0.2,0.2,0.1,0,0.2-0.1c0.2-0.1,0.5-0.1,0.8-0.3c0.5-0.2,0.8-0.5,1.5-0.5c0.2,0,0,0,0,0.1c0.1-0.1,0.2-0.2,0.3-0.2
						c0.4-0.1,0.8-0.4,1.1-0.4c0.1-0.2-0.2-0.1-0.1-0.3c0.3,0,0.4-0.3,0.8-0.3c-0.1,0.2-0.4,0.2-0.6,0.4c0.5,0,0.9-0.4,1.4-0.6
						c0.2-0.1,0.5-0.1,0.6-0.3c0.2,0,0.4,0.1,0.6,0C394.7,85,394.6,85.2,394.8,85.2c0-0.1,0-0.2,0.1-0.3c0.4-0.1,0.7-0.3,1.1-0.5
						c0.2-0.2,0.5-0.3,0.7-0.4c0.1,0,0.1-0.3,0.3-0.2c0-0.2,0.1-0.3,0.1-0.5c0.3,0,0.4-0.2,0.7-0.2c0.1,0,0.1,0,0.2,0
						c0.3-0.1,0.4-0.3,0.7-0.3c-0.1,0.1-0.3,0-0.2,0.2c-0.6,0.3-1.2,0.6-1.6,1.1c-0.4,0.1-0.6,0.4-1,0.6c0,0-0.1,0-0.2,0
						C395.4,84.9,395.3,85.1,394.8,85.2z M395.3,86.4c-0.1-0.1,0.2-0.2,0.3-0.2C395.7,86.1,395.4,86.3,395.3,86.4z M395.7,86.1
						c0.1-0.1,0.2-0.1,0.4-0.2C396,86,395.9,86.1,395.7,86.1z M400.3,83.5C400.4,83.3,400.5,83.4,400.3,83.5L400.3,83.5z
						 M400.3,82.7c-0.3,0.1-0.6,0.2-0.8,0.4c-0.2,0.2-0.4,0.4-0.6,0.5c-0.2,0.1-0.5,0.2-0.7,0.4c-0.2,0.1-0.4,0.2-0.6,0.3
						c-0.2,0.1-0.4,0.3-0.6,0.4c-0.3,0.1-0.6,0.2-0.8,0.4c0,0-0.1,0-0.1,0c0-0.2,0.1-0.3,0.3-0.3c0.6-0.4,1.2-0.8,1.8-1
						c0.1-0.2,0.3-0.2,0.4-0.4c0.5,0,0.7-0.4,1-0.6c0.2-0.2,0.5-0.2,0.7-0.4c0.2-0.1,0.4-0.3,0.6-0.4c0.2-0.2,0.4-0.3,0.7-0.3
						c-0.1,0.3-0.4,0.3-0.6,0.5C400.7,82.3,400.5,82.6,400.3,82.7z M400.5,83.3c0.1-0.1,0.2-0.2,0.3-0.2
						C400.8,83.3,400.7,83.3,400.5,83.3z M400.9,83.1c0.1-0.2,0.5-0.5,0.9-0.6C401.6,82.8,401.3,83,400.9,83.1z M402.3,80.4
						c-0.1,0,0-0.1,0-0.2c-0.1,0.1-0.3,0-0.2,0.3c-0.2,0-0.1,0.2-0.4,0.2c-0.1-0.1,0-0.2,0-0.3c0.3-0.1,0.3-0.3,0.6-0.4
						c0.1-0.1,0.1-0.3,0.3-0.3c0-0.1,0,0-0.1-0.1c0.1-0.1,0.2-0.2,0.2-0.4c0.5,0,0.6-0.5,1.1-0.5c0-0.1-0.1-0.1-0.1,0
						c-0.1-0.1,0.2-0.2,0.3-0.1C403.4,79.2,402.8,79.8,402.3,80.4z M403.1,80.5c0-0.2,0.4-0.4,0.6-0.6
						C403.6,80.2,403.2,80.3,403.1,80.5z M403.7,79.8c0-0.3,0.3-0.5,0.6-0.3C404.1,79.7,403.9,79.9,403.7,79.8z M407.2,77.6
						c-0.1-0.1,0.2-0.3,0.3-0.4c0.2-0.1,0.3-0.3,0.5-0.3C407.7,77,407.4,77.3,407.2,77.6z M408.4,76.6c-0.1,0,0-0.1,0-0.2
						C408.5,76.5,408.5,76.6,408.4,76.6z M409,76c-0.2-0.1,0.1-0.2,0.1-0.2C409.3,75.9,409,75.9,409,76z M409,75.3
						c0.1,0,0,0.1,0,0.1C408.9,75.4,409,75.3,409,75.3z M409.4,75.7c-0.1-0.1,0-0.3,0.1-0.3C409.5,75.5,409.4,75.6,409.4,75.7z
						 M409.4,75.1c-0.1,0-0.1-0.1-0.1-0.2C409.5,74.8,409.4,75,409.4,75.1z M410.6,74.3c-0.3,0.1-0.3,0.5-0.6,0.6
						c-0.1-0.2,0.2-0.3,0.3-0.4c0.1-0.1,0.1-0.4,0.2-0.5c0.1-0.1,0.3-0.1,0.3-0.3C411,73.9,410.6,74.1,410.6,74.3z M411.8,73.1
						c-0.1,0-0.1,0-0.1,0c0.1-0.1,0.1-0.2,0.2-0.2C411.8,72.9,411.8,73,411.8,73.1z M417.1,61.6c0-0.1,0.1-0.1,0.1-0.2
						C417.3,61.4,417.2,61.7,417.1,61.6z M417.9,58.5c0.1,1.2-0.4,2.1-0.9,2.9c0.2,0.4-0.2,0.9-0.5,1.3c0,0.2,0.2,0.1,0.2,0.3
						c-0.1,0.2-0.4,0.5-0.5,0.8c0,0,0.1,0.1,0,0.1c-0.1,0.3-0.3,0.7-0.4,1c-0.1,0.3-0.1,0.6-0.2,0.9c-0.1,0.2-0.1,0.5-0.3,0.5
						c-0.4,1.2-0.8,2.3-1.5,3.1c0,0.1,0,0.2,0,0.3c-0.5,0.9-1.1,1.8-1.6,2.6c-0.1,0,0-0.1,0-0.2c-0.3,0.5-0.9,0.6-1.1,1.1
						c-0.5,0.2-0.9,0.6-1,1c-0.2-0.1,0-0.1,0-0.3c0.3-0.1,0.4-0.3,0.5-0.7c0.1,0,0.2,0,0.2-0.1c-0.2,0-0.1-0.1,0-0.3
						c-0.1-0.2-0.1,0.1-0.3,0c-0.1-0.1,0-0.1,0-0.3c-0.8,0.3-0.5,1.3-0.9,1.8c0,0.1,0.1,0.1,0.2,0.1c0,0.1-0.2,0.2-0.2,0
						c-0.1,0-0.3,0.2-0.4,0.1c-0.2,0.1,0,0.1-0.1,0.3c-0.1,0.1-0.2,0-0.3,0.1c0,0.1,0.1,0,0.2,0c0,0.2-0.1,0.1-0.1,0.3
						c-0.4,0-0.7,0.3-0.8,0.8c-0.6,0.3-0.8,1-1.4,1.3c-0.2,0.3-0.4,0.5-0.7,0.6c-0.1,0-0.1-0.1-0.2-0.2c-0.4,0.2-0.5,0.6-0.8,0.8
						c0.1,0.2-0.1,0.3-0.2,0.5c-0.2-0.2-0.3,0.1-0.5,0.1c0.1-0.1,0.2-0.2,0.3-0.4c0-0.5,0.5-0.5,0.6-0.9c0.3,0.2,0.2-0.4,0.5-0.4
						c0-0.1-0.1-0.2-0.1-0.1c-0.1-0.1,0.1-0.2,0.3-0.2c0,0.1-0.1,0.1,0,0.1c0.1-0.1,0-0.2,0-0.2c0.1-0.1,0.2-0.2,0.3-0.1
						c0-0.1,0-0.1,0-0.2c0.2,0,0.2-0.1,0.3-0.3c0.1,0.1-0.1,0.1,0.1,0.1c0.7-0.7,1.2-1.6,2.1-2.2c0.1-0.3,0.3-0.5,0.6-0.7
						c0-0.1,0-0.3-0.1-0.3c0.3-0.3,0.4-0.8,0.9-0.9c0-0.2,0.2-0.2,0.2-0.5c0.1,0,0.1,0.1,0.2,0.1c0,0.1-0.1,0.1-0.1,0.2
						c0.3-0.2,0.6-0.3,0.5-0.7c0.4-0.2,0.5-0.6,0.8-0.8c-0.1-0.1-0.3-0.1-0.4-0.2c-0.1,0.2-0.2,0.5-0.6,0.6c0,0.3-0.3,0.4-0.4,0.6
						c0-0.3,0.3-0.6,0.4-0.8c0.2-0.3,0.5-0.7,0.7-1c0,0,0.1,0,0.2,0c0.3-0.5,0.6-1,0.9-1.4c0-0.6,0.4-0.8,0.5-1.3
						c0.2,0.1,0.1,0.5,0.1,0.8c-0.3,0.3-0.5,0.9-0.8,1.2c0.1,0.6-0.5,0.9-0.5,1.4c0.1,0.1,0.2-0.2,0.2-0.4c0.2-0.2,0.4-0.6,0.5-0.9
						c0.1,0,0.1-0.1,0.3-0.1c0-0.4,0.2-0.8,0.5-1.1c-0.2-0.4,0.3-0.5,0.4-0.7c0,0-0.2,0.1-0.3,0.1c-0.2-0.1,0-0.4-0.3-0.3
						c0.3-0.4,0.2-1.1,0.6-1.3c-0.1-0.2,0.1-0.2,0.2-0.4c0-0.1,0-0.2,0-0.4c0-0.1,0.2-0.2,0.2-0.4c0,0,0-0.2,0-0.2
						c0.2-0.3,0.4-0.6,0.6-0.9c0.1-0.2,0.1-0.4,0.2-0.5c0.2,0.1,0,0.4,0.1,0.5c0,0.1,0.2-0.1,0.1-0.2c0.1,0,0,0.2,0,0.3
						c-0.3,0.1-0.1,0.6-0.1,0.7c0,0.2-0.1,0-0.1,0c0,0.2-0.1,0.8-0.4,0.7c0.1-0.3,0-0.3,0-0.5c-0.1,0-0.1,0.2-0.1,0.4
						c-0.2,0-0.2,0.3-0.1,0.5c-0.1,0.1-0.3,0.1-0.2,0.4c0.2,0,0-0.2,0.2-0.2c0.1,0.3-0.2,0.7,0.2,0.8c0,0.2,0,0.5,0.1,0.7
						c0.3-0.3,0.1-1,0.3-1.4c0.1,0,0.1,0,0.2,0c0.2-0.4,0.2-0.5,0.3-0.9c0,0,0.1,0,0.1,0c0.2-0.6,0.3-1.4,0.6-2
						c-0.1-0.3,0.2-0.8,0.3-1.2c0-0.2,0.2-0.5,0.3-0.8c0-0.1,0-0.3,0.1-0.4c0.1-0.1,0.1-0.1,0.1-0.2c0-0.2,0.2-0.4,0.3-0.6
						c0.1-0.3,0.1-0.6,0.1-0.9c0.2-0.7,0.3-1.4,0.6-2.1c0.1,0.1,0.3,0.1,0.3,0.3C418.1,57.4,418.2,58.2,417.9,58.5z M409.9,73.5
						c0-0.1,0.1-0.3,0.3-0.4C410.1,73.3,410,73.4,409.9,73.5z M418.2,55.7c-0.1-0.3-0.1-0.9,0.1-1.1
						C418.2,55.1,418.3,55.5,418.2,55.7z"/>
				</g>
			</g>
			<g>
				<path class="st1" d="M56.8,43.8l24.1,31c2.7,3.4,4.6,5.6,5.7,6.6c1.1,0.9,2.7,1.6,4.8,1.9v1.9H59.7v-1.9c2.3-0.5,3.5-1.5,3.5-3
					c0-0.8-0.7-2.1-2.1-4L46.2,57L31.1,75.6c-1.6,2.1-2.4,3.5-2.4,4.4c0,2,1.3,3,3.9,3.3v1.9H1.9v-1.9c1.8-0.2,3.2-0.7,4.2-1.5
					c1-0.8,3-3.1,6-6.9l24.4-30.4L14.1,15.4c-2.9-3.8-4.8-6.1-5.8-6.8c-1-0.8-2.5-1.2-4.6-1.4L3.6,5.3h32.1v1.9
					c-2.3,0.6-3.5,1.8-3.5,3.6c0,0.9,0.8,2.5,2.5,4.7l12.4,16l12.8-16c1.9-2.4,2.8-4.1,2.8-5c0-1.7-1.3-2.8-4-3.2V5.3h31.2v1.9
					c-1.9,0.2-3.2,0.6-4,1.3c-0.8,0.6-2.9,3-6.2,7L56.8,43.8z"/>
				<path class="st1" d="M102.7,79V11.4c0-1.2-0.3-2.1-0.8-2.7c-0.5-0.6-1.5-1.1-2.9-1.5V5.3h24.9v1.9c-1.4,0.4-2.4,0.8-2.9,1.5
					c-0.5,0.6-0.8,1.6-0.8,2.7V79c0,1.2,0.3,2.1,0.8,2.8c0.6,0.6,1.5,1.1,2.9,1.5v1.9H98.9v-1.9c1.4-0.4,2.4-0.9,2.9-1.5
					C102.4,81.2,102.7,80.2,102.7,79z"/>
				<path class="st1" d="M159.4,52.6v26.5c0,1.2,0.3,2.1,0.8,2.7c0.6,0.6,1.5,1.1,2.9,1.5v1.9h-24.9v-1.9c1.4-0.4,2.4-0.9,2.9-1.5
					c0.5-0.6,0.8-1.5,0.8-2.7V11.4c0-1.2-0.3-2.1-0.8-2.8c-0.5-0.6-1.5-1.1-2.9-1.5V5.3h50c6.1,0,10.9,0.4,14.5,1.1
					c3.6,0.7,6.7,1.9,9.3,3.7c3.1,2,5.4,4.8,6.9,8.3c1.4,3.4,2.2,6.9,2.2,10.8c0,13-7.2,20.7-21.7,22.9L214.9,74
					c2.7,3.9,4.7,6.3,6,7.5c1.3,1.1,2.8,1.7,4.7,1.8v1.9h-28.9v-1.9c2-0.3,3-1,3-2.1c0-0.7-0.9-2.4-2.7-5.1l-16.2-23.5H159.4z
					 M159.4,39.4h26.9c4,0,6.8-0.1,8.4-0.4c1.6-0.2,3.1-0.7,4.5-1.5c3-1.6,4.4-4.5,4.4-8.7c0-4.2-1.5-7.1-4.4-8.7
					c-1.4-0.8-2.9-1.3-4.5-1.5c-1.6-0.2-4.4-0.3-8.5-0.3h-26.9V39.4z"/>
				<path class="st1" d="M311,57.7l11.1,16.7l-1.5,1.1c-1.1-1-2-1.5-2.7-1.5c-0.7,0-2.7,0.9-5.9,2.8c-6.7,3.9-12.4,6.5-16.9,7.8
					c-4.6,1.3-10,2-16.4,2c-12.6,0-22.9-3-31-9c-4.8-3.5-8.5-7.8-11.2-12.9c-3.2-5.9-4.7-12.4-4.7-19.5c0-9.7,2.8-18.1,8.5-25.2
					c8.5-10.7,21.4-16.1,38.6-16.1c6.3,0,11.7,0.7,16.3,2c4.5,1.3,10.2,3.9,17,7.8c3.2,1.8,5.2,2.8,5.9,2.8c0.7,0,1.6-0.5,2.7-1.5
					l1.5,1.1L311,32.7l-1.6-1c0.1-0.6,0.1-1.1,0.1-1.6c0-1.1-0.5-2.2-1.5-3.2c-1-1-2.7-2.2-5.2-3.6c-6.9-3.9-14.2-5.8-21.9-5.8
					c-9.1,0-16.4,2.3-21.8,6.8c-6.4,5.3-9.6,12.3-9.6,20.9s3.2,15.6,9.6,20.9c5.4,4.6,12.7,6.8,21.8,6.8c7.7,0,15-1.9,21.9-5.9
					c2.5-1.4,4.2-2.6,5.2-3.6c1-1,1.5-2.1,1.5-3.2c0-0.4,0-0.9-0.1-1.5L311,57.7z"/>
				<path class="st1" d="M454.2,30.5V79c0,1.2,0.3,2.1,0.8,2.8c0.5,0.6,1.5,1.1,2.9,1.5v1.9h-23.5v-1.9c1.4-0.4,2.4-0.9,2.9-1.5
					c0.5-0.6,0.8-1.5,0.8-2.8V11.4c0-1.2-0.3-2.1-0.8-2.7c-0.5-0.6-1.5-1.1-2.9-1.5V5.3h27.2v1.9c-1.7,0.4-2.5,1.3-2.5,2.7
					c0,0.9,0.5,2,1.6,3.1l44.1,45.8V11.4c0-1.2-0.3-2.1-0.8-2.7c-0.5-0.6-1.5-1.1-2.9-1.5V5.3h23.5v1.9c-1.4,0.4-2.4,0.9-2.9,1.5
					c-0.5,0.6-0.8,1.5-0.8,2.7V79c0,1.2,0.3,2.1,0.8,2.8c0.5,0.6,1.5,1.1,2.9,1.5v1.9h-25.2v-1.9c1.6-0.3,2.5-1.2,2.5-2.5
					c0-0.8-1-2.1-2.9-4.1L454.2,30.5z"/>
				<path class="st1" d="M542.6,79V11.4c0-1.2-0.3-2.1-0.8-2.7c-0.5-0.6-1.5-1.1-2.9-1.5V5.3h24.9v1.9c-1.4,0.4-2.4,0.8-2.9,1.5
					c-0.5,0.6-0.8,1.6-0.8,2.7V79c0,1.2,0.3,2.1,0.8,2.8c0.6,0.6,1.5,1.1,2.9,1.5v1.9h-24.9v-1.9c1.4-0.4,2.4-0.9,2.9-1.5
					C542.4,81.2,542.6,80.2,542.6,79z"/>
				<path class="st1" d="M659.5,11.4v44.8c0,8.5-1.6,14.8-4.7,19c-5.6,7.6-17.2,11.4-34.8,11.4c-12.7,0-22.5-2-29.2-6.1
					c-3.9-2.4-6.7-5.6-8.2-9.7c-1.5-4.1-2.2-8.9-2.2-14.5V11.4c0-1.2-0.3-2.1-0.8-2.8c-0.5-0.6-1.5-1.1-2.9-1.5V5.3h24.9v1.9
					c-1.4,0.4-2.4,0.8-2.9,1.5c-0.6,0.6-0.8,1.6-0.8,2.8v39.9c0,4.6,0.3,8,0.8,10.2c0.5,2.2,1.5,4,2.9,5.5c3.7,4,10.1,6,19.2,6
					c9.1,0,15.5-2,19.3-6c1.4-1.5,2.3-3.3,2.8-5.5c0.5-2.2,0.8-5.6,0.8-10.2V11.4c0-1.2-0.3-2.1-0.8-2.8c-0.5-0.6-1.5-1.1-2.9-1.5
					V5.3h23.5v1.9c-1.4,0.4-2.4,0.9-2.9,1.5C659.7,9.3,659.5,10.2,659.5,11.4z"/>
				<path class="st1" d="M725.2,85.2L695.7,30v49c0,1.2,0.3,2.1,0.8,2.8c0.5,0.6,1.5,1.1,2.9,1.5v1.9H676v-1.9
					c1.4-0.4,2.4-0.9,2.9-1.5c0.5-0.6,0.8-1.5,0.8-2.8V11.4c0-1.2-0.3-2.1-0.8-2.7c-0.5-0.6-1.5-1.1-2.9-1.5V5.3h30.8v1.9
					c-1.8,0.5-2.8,1.5-2.8,3.2c0,0.8,0.3,1.7,0.8,2.7l21.8,41.3l22.1-40.6c1-1.8,1.5-3.1,1.5-3.9c0-1.6-1-2.5-2.9-2.7V5.3h30.2v1.9
					c-1.4,0.4-2.4,0.9-2.9,1.5c-0.5,0.6-0.8,1.5-0.8,2.7V79c0,1.2,0.3,2.1,0.8,2.8c0.5,0.6,1.5,1.1,2.9,1.5v1.9h-24.9v-1.9
					c1.4-0.3,2.3-0.8,2.9-1.5c0.6-0.6,0.8-1.6,0.8-2.8V30L725.2,85.2z"/>
			</g>
		</g>
	</g>
</g>
</svg>
